<svg width="1920" height="1167" viewBox="0 0 1920 1167" fill="none" xmlns="http://www.w3.org/2000/svg">
<rect width="1920" height="1167" fill="#368EF5"/>
<path d="M352.816 91.502V95H333.955V91.502H352.816ZM335.045 91.502V101.293H330.826L330.668 91.502H335.045ZM356.227 91.502L355.963 101.275H351.814V91.502H356.227ZM349.723 69.4062V72.9219H337.91V69.4062H349.723ZM353.098 69.4062V95H348.703V69.4062H353.098ZM337.031 69.4062H341.443L340.828 79.7773C340.734 81.418 340.564 82.8945 340.318 84.207C340.072 85.5195 339.773 86.6973 339.422 87.7402C339.082 88.7715 338.695 89.6855 338.262 90.4824C337.828 91.2676 337.365 91.9473 336.873 92.5215C336.381 93.0957 335.877 93.5879 335.361 93.998C334.857 94.3965 334.359 94.7305 333.867 95H331.512V91.502H332.654C332.971 91.209 333.322 90.7871 333.709 90.2363C334.096 89.6738 334.471 88.9414 334.834 88.0391C335.209 87.125 335.537 85.9941 335.818 84.6465C336.1 83.2988 336.293 81.6758 336.398 79.7773L337.031 69.4062ZM379.553 81.5V82.9062C379.553 84.8398 379.301 86.5742 378.797 88.1094C378.293 89.6445 377.572 90.9512 376.635 92.0293C375.709 93.1074 374.596 93.9336 373.295 94.5078C371.994 95.0703 370.553 95.3516 368.971 95.3516C367.4 95.3516 365.965 95.0703 364.664 94.5078C363.375 93.9336 362.256 93.1074 361.307 92.0293C360.357 90.9512 359.619 89.6445 359.092 88.1094C358.576 86.5742 358.318 84.8398 358.318 82.9062V81.5C358.318 79.5664 358.576 77.8379 359.092 76.3145C359.607 74.7793 360.334 73.4727 361.271 72.3945C362.221 71.3047 363.34 70.4785 364.629 69.916C365.93 69.3418 367.365 69.0547 368.936 69.0547C370.518 69.0547 371.959 69.3418 373.26 69.916C374.561 70.4785 375.68 71.3047 376.617 72.3945C377.555 73.4727 378.275 74.7793 378.779 76.3145C379.295 77.8379 379.553 79.5664 379.553 81.5ZM375.141 82.9062V81.4648C375.141 80.0352 375 78.7754 374.719 77.6855C374.449 76.584 374.045 75.6641 373.506 74.9258C372.979 74.1758 372.328 73.6133 371.555 73.2383C370.781 72.8516 369.908 72.6582 368.936 72.6582C367.963 72.6582 367.096 72.8516 366.334 73.2383C365.572 73.6133 364.922 74.1758 364.383 74.9258C363.855 75.6641 363.451 76.584 363.17 77.6855C362.889 78.7754 362.748 80.0352 362.748 81.4648V82.9062C362.748 84.3359 362.889 85.6016 363.17 86.7031C363.451 87.8047 363.861 88.7363 364.4 89.498C364.951 90.248 365.607 90.8164 366.369 91.2031C367.131 91.5781 367.998 91.7656 368.971 91.7656C369.955 91.7656 370.828 91.5781 371.59 91.2031C372.352 90.8164 372.996 90.248 373.523 89.498C374.051 88.7363 374.449 87.8047 374.719 86.7031C375 85.6016 375.141 84.3359 375.141 82.9062ZM400.189 69.4062V72.9219H388.289V95H383.895V69.4062H400.189ZM386.953 79.2324H393.387C395.332 79.2324 396.996 79.5605 398.379 80.2168C399.762 80.8613 400.816 81.7695 401.543 82.9414C402.27 84.1133 402.633 85.4785 402.633 87.0371C402.633 88.209 402.428 89.2812 402.018 90.2539C401.607 91.2266 401.004 92.0703 400.207 92.7852C399.41 93.4883 398.438 94.0332 397.289 94.4199C396.152 94.8066 394.852 95 393.387 95H383.895V69.4062H388.324V91.502H393.387C394.5 91.502 395.414 91.2969 396.129 90.8867C396.844 90.4648 397.371 89.9141 397.711 89.2344C398.062 88.5547 398.238 87.8105 398.238 87.002C398.238 86.2168 398.062 85.502 397.711 84.8574C397.371 84.2129 396.844 83.6973 396.129 83.3105C395.414 82.9238 394.5 82.7305 393.387 82.7305H386.953V79.2324ZM416.572 72.8164L408.926 95H404.303L413.936 69.4062H416.889L416.572 72.8164ZM422.971 95L415.307 72.8164L414.973 69.4062H417.943L427.611 95H422.971ZM422.602 85.5078V89.0059H408.68V85.5078H422.602ZM440.074 83.4336H433.553L433.518 80.2168H439.213C440.174 80.2168 440.988 80.0762 441.656 79.7949C442.336 79.502 442.852 79.0859 443.203 78.5469C443.555 77.9961 443.73 77.334 443.73 76.5605C443.73 75.7051 443.566 75.0078 443.238 74.4688C442.91 73.9297 442.406 73.5371 441.727 73.291C441.059 73.0449 440.203 72.9219 439.16 72.9219H434.889V95H430.477V69.4062H439.16C440.566 69.4062 441.82 69.541 442.922 69.8105C444.035 70.0801 444.979 70.502 445.752 71.0762C446.537 71.6387 447.129 72.3535 447.527 73.2207C447.938 74.0879 448.143 75.1191 448.143 76.3145C448.143 77.3691 447.891 78.3359 447.387 79.2148C446.883 80.082 446.139 80.791 445.154 81.3418C444.17 81.8926 442.945 82.2207 441.48 82.3262L440.074 83.4336ZM439.881 95H432.164L434.15 91.502H439.881C440.877 91.502 441.709 91.3379 442.377 91.0098C443.045 90.6699 443.543 90.207 443.871 89.6211C444.211 89.0234 444.381 88.3262 444.381 87.5293C444.381 86.6973 444.234 85.9766 443.941 85.3672C443.648 84.7461 443.186 84.2715 442.553 83.9434C441.92 83.6035 441.094 83.4336 440.074 83.4336H435.117L435.152 80.2168H441.604L442.605 81.4297C444.012 81.4766 445.166 81.7871 446.068 82.3613C446.982 82.9355 447.662 83.6797 448.107 84.5938C448.553 85.5078 448.775 86.4922 448.775 87.5469C448.775 89.1758 448.418 90.541 447.703 91.6426C447 92.7441 445.986 93.582 444.662 94.1562C443.338 94.7188 441.744 95 439.881 95ZM470.01 69.4062V72.9219H457.74V69.4062H470.01ZM473.385 69.4062V95H468.973V69.4062H473.385ZM456.861 69.4062H461.238L460.623 82.1152C460.541 83.9785 460.383 85.6191 460.148 87.0371C459.914 88.4551 459.598 89.668 459.199 90.6758C458.801 91.6836 458.297 92.5098 457.688 93.1543C457.078 93.7871 456.346 94.2559 455.49 94.5605C454.646 94.8535 453.656 95 452.52 95H451.395V91.502L452.08 91.4492C452.701 91.4023 453.234 91.2559 453.68 91.0098C454.137 90.752 454.523 90.377 454.84 89.8848C455.156 89.3809 455.42 88.7305 455.631 87.9336C455.842 87.1367 456.006 86.1641 456.123 85.0156C456.252 83.8672 456.346 82.5254 456.404 80.9902L456.861 69.4062ZM495.428 91.502V95H481.84V91.502H495.428ZM483.088 69.4062V95H478.676V69.4062H483.088ZM493.652 80.0938V83.5391H481.84V80.0938H493.652ZM495.34 69.4062V72.9219H481.84V69.4062H495.34ZM515.941 80.0938V83.5918H502.354V80.0938H515.941ZM503.443 69.4062V95H499.031V69.4062H503.443ZM519.334 69.4062V95H514.939V69.4062H519.334ZM528.949 87.8105L540.305 69.4062H544.717V95H540.305V76.5781L528.949 95H524.555V69.4062H528.949V87.8105ZM566.76 91.502V95H553.172V91.502H566.76ZM554.42 69.4062V95H550.008V69.4062H554.42ZM564.984 80.0938V83.5391H553.172V80.0938H564.984ZM566.672 69.4062V72.9219H553.172V69.4062H566.672ZM589.049 85.4551H582.387V81.957H589.049C590.209 81.957 591.146 81.7695 591.861 81.3945C592.576 81.0195 593.098 80.5039 593.426 79.8477C593.766 79.1797 593.936 78.418 593.936 77.5625C593.936 76.7539 593.766 75.998 593.426 75.2949C593.098 74.5801 592.576 74.0059 591.861 73.5723C591.146 73.1387 590.209 72.9219 589.049 72.9219H583.74V95H579.328V69.4062H589.049C591.029 69.4062 592.711 69.7578 594.094 70.4609C595.488 71.1523 596.549 72.1133 597.275 73.3438C598.002 74.5625 598.365 75.957 598.365 77.5273C598.365 79.1797 598.002 80.5977 597.275 81.7812C596.549 82.9648 595.488 83.873 594.094 84.5059C592.711 85.1387 591.029 85.4551 589.049 85.4551ZM609.615 72.8164L601.969 95H597.346L606.979 69.4062H609.932L609.615 72.8164ZM616.014 95L608.35 72.8164L608.016 69.4062H610.986L620.654 95H616.014ZM615.645 85.5078V89.0059H601.723V85.5078H615.645ZM639.744 69.4062V72.9219H627.844V95H623.449V69.4062H639.744ZM626.508 79.2324H632.941C634.887 79.2324 636.551 79.5605 637.934 80.2168C639.316 80.8613 640.371 81.7695 641.098 82.9414C641.824 84.1133 642.188 85.4785 642.188 87.0371C642.188 88.209 641.982 89.2812 641.572 90.2539C641.162 91.2266 640.559 92.0703 639.762 92.7852C638.965 93.4883 637.992 94.0332 636.844 94.4199C635.707 94.8066 634.406 95 632.941 95H623.449V69.4062H627.879V91.502H632.941C634.055 91.502 634.969 91.2969 635.684 90.8867C636.398 90.4648 636.926 89.9141 637.266 89.2344C637.617 88.5547 637.793 87.8105 637.793 87.002C637.793 86.2168 637.617 85.502 637.266 84.8574C636.926 84.2129 636.398 83.6973 635.684 83.3105C634.969 82.9238 634.055 82.7305 632.941 82.7305H626.508V79.2324ZM666.568 81.5V82.9062C666.568 84.8398 666.316 86.5742 665.812 88.1094C665.309 89.6445 664.588 90.9512 663.65 92.0293C662.725 93.1074 661.611 93.9336 660.311 94.5078C659.01 95.0703 657.568 95.3516 655.986 95.3516C654.416 95.3516 652.98 95.0703 651.68 94.5078C650.391 93.9336 649.271 93.1074 648.322 92.0293C647.373 90.9512 646.635 89.6445 646.107 88.1094C645.592 86.5742 645.334 84.8398 645.334 82.9062V81.5C645.334 79.5664 645.592 77.8379 646.107 76.3145C646.623 74.7793 647.35 73.4727 648.287 72.3945C649.236 71.3047 650.355 70.4785 651.645 69.916C652.945 69.3418 654.381 69.0547 655.951 69.0547C657.533 69.0547 658.975 69.3418 660.275 69.916C661.576 70.4785 662.695 71.3047 663.633 72.3945C664.57 73.4727 665.291 74.7793 665.795 76.3145C666.311 77.8379 666.568 79.5664 666.568 81.5ZM662.156 82.9062V81.4648C662.156 80.0352 662.016 78.7754 661.734 77.6855C661.465 76.584 661.061 75.6641 660.521 74.9258C659.994 74.1758 659.344 73.6133 658.57 73.2383C657.797 72.8516 656.924 72.6582 655.951 72.6582C654.979 72.6582 654.111 72.8516 653.35 73.2383C652.588 73.6133 651.938 74.1758 651.398 74.9258C650.871 75.6641 650.467 76.584 650.186 77.6855C649.904 78.7754 649.764 80.0352 649.764 81.4648V82.9062C649.764 84.3359 649.904 85.6016 650.186 86.7031C650.467 87.8047 650.877 88.7363 651.416 89.498C651.967 90.248 652.623 90.8164 653.385 91.2031C654.146 91.5781 655.014 91.7656 655.986 91.7656C656.971 91.7656 657.844 91.5781 658.605 91.2031C659.367 90.8164 660.012 90.248 660.539 89.498C661.066 88.7363 661.465 87.8047 661.734 86.7031C662.016 85.6016 662.156 84.3359 662.156 82.9062ZM680.631 69.4062V95H676.254V69.4062H680.631ZM688.664 69.4062V72.9219H668.291V69.4062H688.664ZM695.168 79.2324H701.619C703.564 79.2324 705.223 79.5605 706.594 80.2168C707.977 80.8613 709.031 81.7695 709.758 82.9414C710.496 84.1133 710.865 85.4785 710.865 87.0371C710.865 88.209 710.654 89.2812 710.232 90.2539C709.822 91.2266 709.219 92.0703 708.422 92.7852C707.625 93.4883 706.652 94.0332 705.504 94.4199C704.367 94.8066 703.072 95 701.619 95H692.127V69.4062H696.539V91.502H701.619C702.732 91.502 703.646 91.2969 704.361 90.8867C705.076 90.4648 705.604 89.9141 705.943 89.2344C706.295 88.5547 706.471 87.8105 706.471 87.002C706.471 86.2168 706.295 85.502 705.943 84.8574C705.604 84.2129 705.076 83.6973 704.361 83.3105C703.646 82.9238 702.732 82.7305 701.619 82.7305H695.168V79.2324ZM717.914 69.4062V95H713.502V69.4062H717.914Z" fill="white"/>
<line y1="-1.5" x2="42.2351" y2="-1.5" transform="matrix(0.241442 0.970415 0.970415 -0.241442 1822.53 319.703)" stroke="white" stroke-opacity="0.5" stroke-width="3"/>
<path opacity="0.3" d="M1846.55 289C1846.77 297.188 1842.15 314.822 1821.91 319.859C1801.66 324.897 1789.53 311.428 1786 304.064" stroke="white" stroke-width="4"/>
<path opacity="0.3" d="M1838.16 291.086C1838.32 296.982 1834.97 309.686 1820.33 313.328C1805.69 316.97 1796.93 307.279 1794.38 301.979" stroke="white" stroke-width="4"/>
<path opacity="0.3" d="M1828.85 293.404C1828.99 296.996 1827.17 304.704 1818.76 306.796C1810.35 308.888 1805.21 302.912 1803.7 299.662" stroke="white" stroke-width="4"/>
<line x1="233.323" y1="557.001" x2="263.355" y2="548.085" stroke="white" stroke-opacity="0.5" stroke-width="3"/>
<path opacity="0.3" d="M223.172 585.348C228.488 582.407 238.019 572.817 233.614 557.982C229.21 543.147 216.036 540.468 210 540.983" stroke="white" stroke-width="4"/>
<path opacity="0.3" d="M221.348 579.205C225.174 577.084 232.031 570.16 228.846 559.433C225.661 548.706 216.171 546.759 211.823 547.126" stroke="white" stroke-width="4"/>
<path opacity="0.3" d="M219.32 572.379C221.669 571.116 225.908 567.049 224.078 560.887C222.248 554.725 216.496 553.695 213.849 553.95" stroke="white" stroke-width="4"/>
<line x1="1666.89" y1="582.673" x2="1703.47" y2="603.78" stroke="white" stroke-opacity="0.5" stroke-width="3"/>
<path opacity="0.3" d="M1630 598.586C1637.81 601.058 1656.03 601.485 1666.46 583.414C1676.88 565.342 1667.28 549.97 1661.18 544.543" stroke="white" stroke-width="4"/>
<path opacity="0.3" d="M1634.32 591.104C1639.94 592.879 1653.08 593.163 1660.61 580.096C1668.15 567.029 1661.25 555.938 1656.86 552.026" stroke="white" stroke-width="4"/>
<path opacity="0.3" d="M1639.11 582.789C1642.53 583.914 1650.44 584.289 1654.77 576.782C1659.1 569.275 1654.77 562.693 1652.06 560.34" stroke="white" stroke-width="4"/>
<line y1="-1.5" x2="42.2351" y2="-1.5" transform="matrix(0.241442 0.970415 0.970415 -0.241442 1723.05 539.703)" stroke="white" stroke-opacity="0.5" stroke-width="3"/>
<path opacity="0.3" d="M1747.07 509C1747.29 517.188 1742.67 534.822 1722.43 539.859C1702.18 544.897 1690.05 531.428 1686.52 524.064" stroke="white" stroke-width="4"/>
<path opacity="0.3" d="M1738.68 511.086C1738.84 516.982 1735.49 529.686 1720.85 533.328C1706.21 536.97 1697.45 527.279 1694.9 521.979" stroke="white" stroke-width="4"/>
<path opacity="0.3" d="M1729.37 513.404C1729.51 516.996 1727.68 524.704 1719.27 526.796C1710.86 528.888 1705.73 522.912 1704.22 519.662" stroke="white" stroke-width="4"/>
<line x1="136.044" y1="188.025" x2="105" y2="233.075" stroke="white" stroke-opacity="0.5" stroke-width="3"/>
<path opacity="0.3" d="M119.684 139C115.682 148.826 113.242 172.313 135.496 187.648C157.75 202.983 178.594 192.179 186.234 184.861" stroke="white" stroke-width="4"/>
<path opacity="0.3" d="M128.898 145.35C126.023 152.428 124.295 169.358 140.386 180.447C156.478 191.536 171.513 183.776 177.02 178.51" stroke="white" stroke-width="4"/>
<path opacity="0.3" d="M139.137 152.406C137.33 156.698 136.027 166.874 145.271 173.244C154.515 179.614 163.462 174.706 166.781 171.456" stroke="white" stroke-width="4"/>
<line y1="-1.5" x2="54.7101" y2="-1.5" transform="matrix(-0.986621 0.163032 0.163032 0.986621 186.07 265.252)" stroke="white" stroke-opacity="0.5" stroke-width="3"/>
<path opacity="0.3" d="M223.227 299.441C212.632 298.881 190.34 291.093 185.934 264.428C181.528 237.764 200.175 223.5 210.05 219.701" stroke="white" stroke-width="4"/>
<path opacity="0.3" d="M221.402 288.4C213.773 287.99 197.717 282.348 194.531 263.068C191.345 243.787 204.766 233.484 211.875 230.742" stroke="white" stroke-width="4"/>
<path opacity="0.3" d="M219.375 276.133C214.722 275.941 204.96 272.79 203.129 261.714C201.299 250.638 209.548 244.629 213.902 243.01" stroke="white" stroke-width="4"/>
<path fill-rule="evenodd" clip-rule="evenodd" d="M1807.62 245H1784.77V211.339H1767V116.591H1796.18V86.5001L750 86.5V79.5L1803 79.5001V81.9776L1803.18 81.9775V116.591H1824.12V211.339H1807.62V245Z" fill="white"/>
<path d="M8.29032e-08 79L301 80" stroke="white" stroke-width="7"/>
</svg>
