<svg width="1920" height="681" viewBox="0 0 1920 681" fill="none" xmlns="http://www.w3.org/2000/svg">
<rect width="1920" height="681" fill="#368EF5"/>
<line y1="-1.5" x2="42.2351" y2="-1.5" transform="matrix(0.241442 0.970415 0.970415 -0.241442 1822.54 319.703)" stroke="white" stroke-opacity="0.5" stroke-width="3"/>
<path opacity="0.3" d="M1846.55 289C1846.77 297.188 1842.15 314.822 1821.91 319.859C1801.66 324.897 1789.53 311.428 1786 304.064" stroke="white" stroke-width="4"/>
<path opacity="0.3" d="M1838.16 291.086C1838.32 296.982 1834.97 309.686 1820.33 313.328C1805.69 316.97 1796.93 307.279 1794.38 301.979" stroke="white" stroke-width="4"/>
<path opacity="0.3" d="M1828.85 293.404C1828.99 296.996 1827.17 304.704 1818.76 306.796C1810.35 308.888 1805.21 302.912 1803.7 299.662" stroke="white" stroke-width="4"/>
<line x1="233.327" y1="557.001" x2="263.359" y2="548.085" stroke="white" stroke-opacity="0.5" stroke-width="3"/>
<path opacity="0.3" d="M223.172 585.348C228.488 582.407 238.019 572.817 233.614 557.982C229.21 543.147 216.036 540.468 210 540.983" stroke="white" stroke-width="4"/>
<path opacity="0.3" d="M221.348 579.205C225.174 577.084 232.031 570.16 228.846 559.433C225.661 548.706 216.171 546.759 211.823 547.126" stroke="white" stroke-width="4"/>
<path opacity="0.3" d="M219.324 572.379C221.672 571.116 225.912 567.049 224.082 560.887C222.252 554.725 216.5 553.695 213.853 553.95" stroke="white" stroke-width="4"/>
<line x1="1666.89" y1="582.673" x2="1703.47" y2="603.78" stroke="white" stroke-opacity="0.5" stroke-width="3"/>
<path opacity="0.3" d="M1630 598.586C1637.81 601.058 1656.03 601.485 1666.46 583.414C1676.88 565.342 1667.28 549.97 1661.18 544.543" stroke="white" stroke-width="4"/>
<path opacity="0.3" d="M1634.32 591.104C1639.94 592.879 1653.08 593.163 1660.61 580.096C1668.15 567.029 1661.25 555.938 1656.86 552.026" stroke="white" stroke-width="4"/>
<path opacity="0.3" d="M1639.11 582.789C1642.53 583.914 1650.44 584.289 1654.77 576.782C1659.1 569.275 1654.77 562.693 1652.06 560.34" stroke="white" stroke-width="4"/>
<line y1="-1.5" x2="42.2351" y2="-1.5" transform="matrix(0.241442 0.970415 0.970415 -0.241442 1723.05 539.703)" stroke="white" stroke-opacity="0.5" stroke-width="3"/>
<path opacity="0.3" d="M1747.07 509C1747.29 517.188 1742.67 534.822 1722.43 539.859C1702.18 544.897 1690.05 531.428 1686.52 524.064" stroke="white" stroke-width="4"/>
<path opacity="0.3" d="M1738.68 511.086C1738.84 516.982 1735.49 529.686 1720.85 533.328C1706.21 536.97 1697.45 527.279 1694.9 521.979" stroke="white" stroke-width="4"/>
<path opacity="0.3" d="M1729.37 513.404C1729.51 516.996 1727.68 524.704 1719.27 526.796C1710.86 528.888 1705.73 522.912 1704.22 519.662" stroke="white" stroke-width="4"/>
<line x1="136.044" y1="188.025" x2="105" y2="233.075" stroke="white" stroke-opacity="0.5" stroke-width="3"/>
<path opacity="0.3" d="M119.684 139C115.682 148.826 113.242 172.313 135.496 187.648C157.75 202.983 178.594 192.179 186.234 184.861" stroke="white" stroke-width="4"/>
<path opacity="0.3" d="M128.898 145.35C126.023 152.428 124.295 169.358 140.386 180.447C156.478 191.536 171.513 183.776 177.02 178.51" stroke="white" stroke-width="4"/>
<path opacity="0.3" d="M139.137 152.406C137.33 156.698 136.027 166.874 145.271 173.244C154.515 179.614 163.462 174.706 166.781 171.456" stroke="white" stroke-width="4"/>
<line y1="-1.5" x2="54.7101" y2="-1.5" transform="matrix(-0.986621 0.163032 0.163032 0.986621 186.07 265.254)" stroke="white" stroke-opacity="0.5" stroke-width="3"/>
<path opacity="0.3" d="M223.227 299.441C212.632 298.881 190.34 291.093 185.934 264.428C181.528 237.764 200.175 223.5 210.05 219.701" stroke="white" stroke-width="4"/>
<path opacity="0.3" d="M221.402 288.4C213.773 287.99 197.717 282.348 194.531 263.068C191.345 243.787 204.766 233.484 211.875 230.742" stroke="white" stroke-width="4"/>
<path opacity="0.3" d="M219.375 276.133C214.722 275.941 204.96 272.79 203.129 261.714C201.299 250.638 209.548 244.629 213.902 243.01" stroke="white" stroke-width="4"/>
<path fill-rule="evenodd" clip-rule="evenodd" d="M1807.62 245H1784.77V211.339H1767V116.591H1796.19V86.5001L750 86.5V79.5L1803 79.5001V81.9776L1803.19 81.9775V116.591H1824.12V211.339H1807.62V245Z" fill="white"/>
<path d="M8.29032e-08 79L301 80" stroke="white" stroke-width="7"/>
<path d="M336.961 87.8105L348.316 69.4062H352.729V95H348.316V76.5781L336.961 95H332.566V69.4062H336.961V87.8105ZM366.791 82.7305H363.24V80.2168H366.299C367.389 80.2168 368.273 80.0586 368.953 79.7422C369.633 79.4141 370.125 78.9629 370.43 78.3887C370.746 77.8027 370.904 77.123 370.904 76.3496C370.904 75.6582 370.729 75.0254 370.377 74.4512C370.037 73.877 369.51 73.4199 368.795 73.0801C368.08 72.7285 367.16 72.5527 366.035 72.5527C365.191 72.5527 364.424 72.7051 363.732 73.0098C363.041 73.3145 362.49 73.7422 362.08 74.293C361.682 74.8438 361.482 75.4941 361.482 76.2441H357.07C357.07 75.1309 357.305 74.1348 357.773 73.2559C358.254 72.3652 358.904 71.6094 359.725 70.9883C360.557 70.3672 361.512 69.8926 362.59 69.5645C363.68 69.2246 364.828 69.0547 366.035 69.0547C367.441 69.0547 368.713 69.2129 369.85 69.5293C370.986 69.834 371.965 70.291 372.785 70.9004C373.605 71.5098 374.232 72.2715 374.666 73.1855C375.1 74.0879 375.316 75.1367 375.316 76.332C375.316 77.2109 375.111 78.0371 374.701 78.8105C374.303 79.584 373.729 80.2637 372.979 80.8496C372.229 81.4355 371.326 81.8984 370.271 82.2383C369.229 82.5664 368.068 82.7305 366.791 82.7305ZM363.24 81.2012H366.791C368.209 81.2012 369.469 81.3477 370.57 81.6406C371.672 81.9336 372.604 82.3613 373.365 82.9238C374.127 83.4863 374.707 84.1836 375.105 85.0156C375.504 85.8359 375.703 86.7793 375.703 87.8457C375.703 89.041 375.463 90.1074 374.982 91.0449C374.514 91.9707 373.846 92.7559 372.979 93.4004C372.111 94.0449 371.086 94.5312 369.902 94.8594C368.73 95.1875 367.441 95.3516 366.035 95.3516C364.898 95.3516 363.773 95.2109 362.66 94.9297C361.559 94.6367 360.557 94.1914 359.654 93.5938C358.764 92.9844 358.049 92.2109 357.51 91.2734C356.971 90.3359 356.701 89.2109 356.701 87.8984H361.131C361.131 88.625 361.336 89.293 361.746 89.9023C362.168 90.5 362.742 90.9805 363.469 91.3438C364.207 91.6953 365.062 91.8711 366.035 91.8711C367.148 91.8711 368.092 91.6953 368.865 91.3438C369.65 90.9922 370.248 90.5117 370.658 89.9023C371.08 89.293 371.291 88.6074 371.291 87.8457C371.291 87.1191 371.18 86.4922 370.957 85.9648C370.746 85.4258 370.43 84.9922 370.008 84.6641C369.586 84.3242 369.064 84.0723 368.443 83.9082C367.822 83.7441 367.107 83.6621 366.299 83.6621H363.24V81.2012ZM381.68 69.4062H385.617L393.018 89.1465L400.4 69.4062H404.338L394.564 95H391.436L381.68 69.4062ZM379.887 69.4062H383.631L384.281 86.4922V95H379.887V69.4062ZM402.387 69.4062H406.148V95H401.736V86.4922L402.387 69.4062ZM428.139 91.502V95H414.551V91.502H428.139ZM415.799 69.4062V95H411.387V69.4062H415.799ZM426.363 80.0938V83.5391H414.551V80.0938H426.363ZM428.051 69.4062V72.9219H414.551V69.4062H428.051ZM448.652 80.0938V83.5918H435.064V80.0938H448.652ZM436.154 69.4062V95H431.742V69.4062H436.154ZM452.045 69.4062V95H447.65V69.4062H452.045ZM474.053 91.502V95H460.465V91.502H474.053ZM461.713 69.4062V95H457.301V69.4062H461.713ZM472.277 80.0938V83.5391H460.465V80.0938H472.277ZM473.965 69.4062V72.9219H460.465V69.4062H473.965ZM494.566 80.0938V83.5918H480.979V80.0938H494.566ZM482.068 69.4062V95H477.656V69.4062H482.068ZM497.959 69.4062V95H493.564V69.4062H497.959ZM507.574 87.8105L518.93 69.4062H523.342V95H518.93V76.5781L507.574 95H503.18V69.4062H507.574V87.8105ZM545.385 91.502V95H531.797V91.502H545.385ZM533.045 69.4062V95H528.633V69.4062H533.045ZM543.609 80.0938V83.5391H531.797V80.0938H543.609ZM545.297 69.4062V72.9219H531.797V69.4062H545.297ZM578.168 91.502V95H559.307V91.502H578.168ZM560.396 91.502V101.293H556.178L556.02 91.502H560.396ZM581.578 91.502L581.314 101.275H577.166V91.502H581.578ZM575.074 69.4062V72.9219H563.262V69.4062H575.074ZM578.449 69.4062V95H574.055V69.4062H578.449ZM562.383 69.4062H566.795L566.18 79.7773C566.086 81.418 565.916 82.8945 565.67 84.207C565.424 85.5195 565.125 86.6973 564.773 87.7402C564.434 88.7715 564.047 89.6855 563.613 90.4824C563.18 91.2676 562.717 91.9473 562.225 92.5215C561.732 93.0957 561.229 93.5879 560.713 93.998C560.209 94.3965 559.711 94.7305 559.219 95H556.863V91.502H558.006C558.322 91.209 558.674 90.7871 559.061 90.2363C559.447 89.6738 559.822 88.9414 560.186 88.0391C560.561 87.125 560.889 85.9941 561.17 84.6465C561.451 83.2988 561.645 81.6758 561.75 79.7773L562.383 69.4062ZM595.166 72.8164L587.52 95H582.896L592.529 69.4062H595.482L595.166 72.8164ZM601.564 95L593.9 72.8164L593.566 69.4062H596.537L606.205 95H601.564ZM601.195 85.5078V89.0059H587.273V85.5078H601.195ZM625.98 80.0938V83.5918H612.393V80.0938H625.98ZM613.482 69.4062V95H609.07V69.4062H613.482ZM629.373 69.4062V95H624.979V69.4062H629.373ZM651.539 80.0938V83.5918H637.951V80.0938H651.539ZM639.041 69.4062V95H634.629V69.4062H639.041ZM654.932 69.4062V95H650.537V69.4062H654.932ZM663.316 79.2324H669.768C671.713 79.2324 673.371 79.5605 674.742 80.2168C676.125 80.8613 677.18 81.7695 677.906 82.9414C678.645 84.1133 679.014 85.4785 679.014 87.0371C679.014 88.209 678.803 89.2812 678.381 90.2539C677.971 91.2266 677.367 92.0703 676.57 92.7852C675.773 93.4883 674.801 94.0332 673.652 94.4199C672.516 94.8066 671.221 95 669.768 95H660.275V69.4062H664.688V91.502H669.768C670.881 91.502 671.795 91.2969 672.51 90.8867C673.225 90.4648 673.752 89.9141 674.092 89.2344C674.443 88.5547 674.619 87.8105 674.619 87.002C674.619 86.2168 674.443 85.502 674.092 84.8574C673.752 84.2129 673.225 83.6973 672.51 83.3105C671.795 82.9238 670.881 82.7305 669.768 82.7305H663.316V79.2324ZM686.062 69.4062V95H681.65V69.4062H686.062ZM695.08 69.4062L700.512 78.7402L705.943 69.4062H711.023L703.289 82.0801L711.217 95H706.084L700.512 85.4902L694.939 95H689.789L697.734 82.0801L689.982 69.4062H695.08Z" fill="white"/>
</svg>
