<svg width="1920" height="646" viewBox="0 0 1920 646" fill="none" xmlns="http://www.w3.org/2000/svg">
<rect width="1920" height="646" fill="#368EF5"/>
<path d="M352.852 72.4062V98H348.457V75.9219H337.084V98H332.689V72.4062H352.852ZM368.127 75.8164L360.48 98H355.857L365.49 72.4062H368.443L368.127 75.8164ZM374.525 98L366.861 75.8164L366.527 72.4062H369.498L379.166 98H374.525ZM374.156 88.5078V92.0059H360.234V88.5078H374.156ZM391.752 88.4551H385.09V84.957H391.752C392.912 84.957 393.85 84.7695 394.564 84.3945C395.279 84.0195 395.801 83.5039 396.129 82.8477C396.469 82.1797 396.639 81.418 396.639 80.5625C396.639 79.7539 396.469 78.998 396.129 78.2949C395.801 77.5801 395.279 77.0059 394.564 76.5723C393.85 76.1387 392.912 75.9219 391.752 75.9219H386.443V98H382.031V72.4062H391.752C393.732 72.4062 395.414 72.7578 396.797 73.4609C398.191 74.1523 399.252 75.1133 399.979 76.3438C400.705 77.5625 401.068 78.957 401.068 80.5273C401.068 82.1797 400.705 83.5977 399.979 84.7812C399.252 85.9648 398.191 86.873 396.797 87.5059C395.414 88.1387 393.732 88.4551 391.752 88.4551ZM412.318 75.8164L404.672 98H400.049L409.682 72.4062H412.635L412.318 75.8164ZM418.717 98L411.053 75.8164L410.719 72.4062H413.689L423.357 98H418.717ZM418.348 88.5078V92.0059H404.426V88.5078H418.348ZM428.016 72.4062H431.953L439.354 92.1465L446.736 72.4062H450.674L440.9 98H437.771L428.016 72.4062ZM426.223 72.4062H429.967L430.617 89.4922V98H426.223V72.4062ZM448.723 72.4062H452.484V98H448.072V89.4922L448.723 72.4062ZM474.475 94.502V98H460.887V94.502H474.475ZM462.135 72.4062V98H457.723V72.4062H462.135ZM472.699 83.0938V86.5391H460.887V83.0938H472.699ZM474.387 72.4062V75.9219H460.887V72.4062H474.387ZM488.959 72.4062V98H484.582V72.4062H488.959ZM496.992 72.4062V75.9219H476.619V72.4062H496.992ZM510.088 88.4551H503.426V84.957H510.088C511.248 84.957 512.186 84.7695 512.9 84.3945C513.615 84.0195 514.137 83.5039 514.465 82.8477C514.805 82.1797 514.975 81.418 514.975 80.5625C514.975 79.7539 514.805 78.998 514.465 78.2949C514.137 77.5801 513.615 77.0059 512.9 76.5723C512.186 76.1387 511.248 75.9219 510.088 75.9219H504.779V98H500.367V72.4062H510.088C512.068 72.4062 513.75 72.7578 515.133 73.4609C516.527 74.1523 517.588 75.1133 518.314 76.3438C519.041 77.5625 519.404 78.957 519.404 80.5273C519.404 82.1797 519.041 83.5977 518.314 84.7812C517.588 85.9648 516.527 86.873 515.133 87.5059C513.75 88.1387 512.068 88.4551 510.088 88.4551ZM526.488 82.2324H532.939C534.885 82.2324 536.543 82.5605 537.914 83.2168C539.297 83.8613 540.352 84.7695 541.078 85.9414C541.816 87.1133 542.186 88.4785 542.186 90.0371C542.186 91.209 541.975 92.2812 541.553 93.2539C541.143 94.2266 540.539 95.0703 539.742 95.7852C538.945 96.4883 537.973 97.0332 536.824 97.4199C535.688 97.8066 534.393 98 532.939 98H523.447V72.4062H527.859V94.502H532.939C534.053 94.502 534.967 94.2969 535.682 93.8867C536.396 93.4648 536.924 92.9141 537.264 92.2344C537.615 91.5547 537.791 90.8105 537.791 90.002C537.791 89.2168 537.615 88.502 537.264 87.8574C536.924 87.2129 536.396 86.6973 535.682 86.3105C534.967 85.9238 534.053 85.7305 532.939 85.7305H526.488V82.2324ZM549.234 72.4062V98H544.822V72.4062H549.234ZM571.523 89.0879L578.027 72.4062H582.896L574.002 93.3594C573.721 94.0039 573.398 94.6309 573.035 95.2402C572.684 95.8379 572.256 96.3711 571.752 96.8398C571.248 97.3086 570.639 97.6836 569.924 97.9648C569.209 98.2344 568.342 98.3691 567.322 98.3691C567.053 98.3691 566.725 98.3574 566.338 98.334C565.963 98.3105 565.688 98.2871 565.512 98.2637L565.547 94.8008C565.688 94.8242 565.922 94.8418 566.25 94.8535C566.59 94.8652 566.836 94.8711 566.988 94.8711C567.668 94.8711 568.207 94.7598 568.605 94.5371C569.004 94.3027 569.32 93.9922 569.555 93.6055C569.801 93.207 570.018 92.7734 570.205 92.3047L571.523 89.0879ZM566.637 72.4062L573.07 86.5742L574.336 91.1797L570.908 91.3027L561.82 72.4062H566.637ZM586.201 72.4062H590.613V80.334C590.613 81.541 590.795 82.4902 591.158 83.1816C591.521 83.8613 592.072 84.3418 592.811 84.623C593.561 84.9043 594.492 85.0449 595.605 85.0449C596.145 85.0449 596.713 85.0215 597.311 84.9746C597.908 84.9277 598.506 84.8633 599.104 84.7812C599.713 84.6875 600.299 84.582 600.861 84.4648C601.424 84.3359 601.939 84.1953 602.408 84.043V87.541C601.951 87.6816 601.447 87.8164 600.896 87.9453C600.357 88.0742 599.795 88.1855 599.209 88.2793C598.623 88.3613 598.025 88.4258 597.416 88.4727C596.807 88.5195 596.203 88.543 595.605 88.543C593.672 88.543 592.002 88.2676 590.596 87.7168C589.189 87.1543 588.105 86.2695 587.344 85.0625C586.582 83.8555 586.201 82.2793 586.201 80.334V72.4062ZM601.406 72.4062H605.818V98H601.406V72.4062ZM627.861 94.502V98H614.273V94.502H627.861ZM615.521 72.4062V98H611.109V72.4062H615.521ZM626.086 83.0938V86.5391H614.273V83.0938H626.086ZM627.773 72.4062V75.9219H614.273V72.4062H627.773ZM642.346 72.4062V98H637.969V72.4062H642.346ZM650.379 72.4062V75.9219H630.006V72.4062H650.379ZM670.664 83.0938V86.5918H657.076V83.0938H670.664ZM658.166 72.4062V98H653.754V72.4062H658.166ZM674.057 72.4062V98H669.662V72.4062H674.057ZM699.721 84.5V85.9062C699.721 87.8398 699.469 89.5742 698.965 91.1094C698.461 92.6445 697.74 93.9512 696.803 95.0293C695.877 96.1074 694.764 96.9336 693.463 97.5078C692.162 98.0703 690.721 98.3516 689.139 98.3516C687.568 98.3516 686.133 98.0703 684.832 97.5078C683.543 96.9336 682.424 96.1074 681.475 95.0293C680.525 93.9512 679.787 92.6445 679.26 91.1094C678.744 89.5742 678.486 87.8398 678.486 85.9062V84.5C678.486 82.5664 678.744 80.8379 679.26 79.3145C679.775 77.7793 680.502 76.4727 681.439 75.3945C682.389 74.3047 683.508 73.4785 684.797 72.916C686.098 72.3418 687.533 72.0547 689.104 72.0547C690.686 72.0547 692.127 72.3418 693.428 72.916C694.729 73.4785 695.848 74.3047 696.785 75.3945C697.723 76.4727 698.443 77.7793 698.947 79.3145C699.463 80.8379 699.721 82.5664 699.721 84.5ZM695.309 85.9062V84.4648C695.309 83.0352 695.168 81.7754 694.887 80.6855C694.617 79.584 694.213 78.6641 693.674 77.9258C693.146 77.1758 692.496 76.6133 691.723 76.2383C690.949 75.8516 690.076 75.6582 689.104 75.6582C688.131 75.6582 687.264 75.8516 686.502 76.2383C685.74 76.6133 685.09 77.1758 684.551 77.9258C684.023 78.6641 683.619 79.584 683.338 80.6855C683.057 81.7754 682.916 83.0352 682.916 84.4648V85.9062C682.916 87.3359 683.057 88.6016 683.338 89.7031C683.619 90.8047 684.029 91.7363 684.568 92.498C685.119 93.248 685.775 93.8164 686.537 94.2031C687.299 94.5781 688.166 94.7656 689.139 94.7656C690.123 94.7656 690.996 94.5781 691.758 94.2031C692.52 93.8164 693.164 93.248 693.691 92.498C694.219 91.7363 694.617 90.8047 694.887 89.7031C695.168 88.6016 695.309 87.3359 695.309 85.9062ZM708.492 90.8105L719.848 72.4062H724.26V98H719.848V79.5781L708.492 98H704.098V72.4062H708.492V90.8105ZM716.807 65.8496H719.953C719.953 66.8223 719.719 67.6836 719.25 68.4336C718.793 69.1719 718.137 69.752 717.281 70.1738C716.438 70.5957 715.43 70.8066 714.258 70.8066C712.488 70.8066 711.088 70.3496 710.057 69.4355C709.037 68.5098 708.527 67.3145 708.527 65.8496H711.674C711.674 66.5059 711.867 67.0859 712.254 67.5898C712.652 68.082 713.32 68.3281 714.258 68.3281C715.184 68.3281 715.84 68.082 716.227 67.5898C716.613 67.0859 716.807 66.5059 716.807 65.8496ZM747.287 85.7305H743.736V83.2168H746.795C747.885 83.2168 748.77 83.0586 749.449 82.7422C750.129 82.4141 750.621 81.9629 750.926 81.3887C751.242 80.8027 751.4 80.123 751.4 79.3496C751.4 78.6582 751.225 78.0254 750.873 77.4512C750.533 76.877 750.006 76.4199 749.291 76.0801C748.576 75.7285 747.656 75.5527 746.531 75.5527C745.688 75.5527 744.92 75.7051 744.229 76.0098C743.537 76.3145 742.986 76.7422 742.576 77.293C742.178 77.8438 741.979 78.4941 741.979 79.2441H737.566C737.566 78.1309 737.801 77.1348 738.27 76.2559C738.75 75.3652 739.4 74.6094 740.221 73.9883C741.053 73.3672 742.008 72.8926 743.086 72.5645C744.176 72.2246 745.324 72.0547 746.531 72.0547C747.938 72.0547 749.209 72.2129 750.346 72.5293C751.482 72.834 752.461 73.291 753.281 73.9004C754.102 74.5098 754.729 75.2715 755.162 76.1855C755.596 77.0879 755.812 78.1367 755.812 79.332C755.812 80.2109 755.607 81.0371 755.197 81.8105C754.799 82.584 754.225 83.2637 753.475 83.8496C752.725 84.4355 751.822 84.8984 750.768 85.2383C749.725 85.5664 748.564 85.7305 747.287 85.7305ZM743.736 84.2012H747.287C748.705 84.2012 749.965 84.3477 751.066 84.6406C752.168 84.9336 753.1 85.3613 753.861 85.9238C754.623 86.4863 755.203 87.1836 755.602 88.0156C756 88.8359 756.199 89.7793 756.199 90.8457C756.199 92.041 755.959 93.1074 755.479 94.0449C755.01 94.9707 754.342 95.7559 753.475 96.4004C752.607 97.0449 751.582 97.5312 750.398 97.8594C749.227 98.1875 747.938 98.3516 746.531 98.3516C745.395 98.3516 744.27 98.2109 743.156 97.9297C742.055 97.6367 741.053 97.1914 740.15 96.5938C739.26 95.9844 738.545 95.2109 738.006 94.2734C737.467 93.3359 737.197 92.2109 737.197 90.8984H741.627C741.627 91.625 741.832 92.293 742.242 92.9023C742.664 93.5 743.238 93.9805 743.965 94.3438C744.703 94.6953 745.559 94.8711 746.531 94.8711C747.645 94.8711 748.588 94.6953 749.361 94.3438C750.146 93.9922 750.744 93.5117 751.154 92.9023C751.576 92.293 751.787 91.6074 751.787 90.8457C751.787 90.1191 751.676 89.4922 751.453 88.9648C751.242 88.4258 750.926 87.9922 750.504 87.6641C750.082 87.3242 749.561 87.0723 748.939 86.9082C748.318 86.7441 747.604 86.6621 746.795 86.6621H743.736V84.2012ZM770.35 75.8164L762.703 98H758.08L767.713 72.4062H770.666L770.35 75.8164ZM776.748 98L769.084 75.8164L768.75 72.4062H771.721L781.389 98H776.748ZM776.379 88.5078V92.0059H762.457V88.5078H776.379ZM804.504 72.4062V98H800.109V75.9219H788.736V98H784.342V72.4062H804.504ZM814.172 90.8105L825.527 72.4062H829.939V98H825.527V79.5781L814.172 98H809.777V72.4062H814.172V90.8105ZM850.348 89.668H854.742C854.602 91.3438 854.133 92.8379 853.336 94.1504C852.539 95.4512 851.42 96.4766 849.979 97.2266C848.537 97.9766 846.785 98.3516 844.723 98.3516C843.141 98.3516 841.717 98.0703 840.451 97.5078C839.186 96.9336 838.102 96.125 837.199 95.082C836.297 94.0273 835.605 92.7559 835.125 91.2676C834.656 89.7793 834.422 88.1152 834.422 86.2754V84.1484C834.422 82.3086 834.662 80.6445 835.143 79.1562C835.635 77.668 836.338 76.3965 837.252 75.3418C838.166 74.2754 839.262 73.4609 840.539 72.8984C841.828 72.3359 843.275 72.0547 844.881 72.0547C846.92 72.0547 848.643 72.4297 850.049 73.1797C851.455 73.9297 852.545 74.9668 853.318 76.291C854.104 77.6152 854.584 79.1328 854.76 80.8438H850.365C850.248 79.7422 849.99 78.7988 849.592 78.0137C849.205 77.2285 848.631 76.6309 847.869 76.2207C847.107 75.7988 846.111 75.5879 844.881 75.5879C843.873 75.5879 842.994 75.7754 842.244 76.1504C841.494 76.5254 840.867 77.0762 840.363 77.8027C839.859 78.5293 839.479 79.4258 839.221 80.4922C838.975 81.5469 838.852 82.7539 838.852 84.1133V86.2754C838.852 87.5645 838.963 88.7363 839.186 89.791C839.42 90.834 839.771 91.7305 840.24 92.4805C840.721 93.2305 841.33 93.8105 842.068 94.2207C842.807 94.6309 843.691 94.8359 844.723 94.8359C845.977 94.8359 846.99 94.6367 847.764 94.2383C848.549 93.8398 849.141 93.2598 849.539 92.498C849.949 91.7246 850.219 90.7812 850.348 89.668ZM863.109 90.8105L874.465 72.4062H878.877V98H874.465V79.5781L863.109 98H858.715V72.4062H863.109V90.8105Z" fill="white"/>
<line y1="-1.5" x2="42.2351" y2="-1.5" transform="matrix(0.241442 0.970415 0.970415 -0.241442 1822.53 322.703)" stroke="white" stroke-opacity="0.5" stroke-width="3"/>
<path opacity="0.3" d="M1846.55 292C1846.77 300.188 1842.15 317.822 1821.91 322.859C1801.66 327.897 1789.53 314.428 1786 307.064" stroke="white" stroke-width="4"/>
<path opacity="0.3" d="M1838.16 294.086C1838.32 299.982 1834.97 312.686 1820.33 316.328C1805.69 319.97 1796.93 310.279 1794.38 304.979" stroke="white" stroke-width="4"/>
<path opacity="0.3" d="M1828.85 296.404C1828.99 299.996 1827.17 307.704 1818.76 309.796C1810.35 311.888 1805.21 305.912 1803.7 302.662" stroke="white" stroke-width="4"/>
<line x1="233.323" y1="560.001" x2="263.355" y2="551.085" stroke="white" stroke-opacity="0.5" stroke-width="3"/>
<path opacity="0.3" d="M223.172 588.348C228.488 585.407 238.019 575.817 233.614 560.982C229.21 546.147 216.036 543.468 210 543.983" stroke="white" stroke-width="4"/>
<path opacity="0.3" d="M221.348 582.205C225.174 580.084 232.031 573.16 228.846 562.433C225.661 551.706 216.171 549.759 211.823 550.126" stroke="white" stroke-width="4"/>
<path opacity="0.3" d="M219.32 575.379C221.669 574.116 225.908 570.049 224.078 563.887C222.248 557.725 216.496 556.695 213.849 556.95" stroke="white" stroke-width="4"/>
<line x1="1666.89" y1="585.673" x2="1703.47" y2="606.78" stroke="white" stroke-opacity="0.5" stroke-width="3"/>
<path opacity="0.3" d="M1630 601.586C1637.81 604.058 1656.03 604.485 1666.46 586.414C1676.88 568.342 1667.28 552.97 1661.18 547.543" stroke="white" stroke-width="4"/>
<path opacity="0.3" d="M1634.32 594.104C1639.94 595.879 1653.08 596.163 1660.61 583.096C1668.15 570.029 1661.25 558.938 1656.86 555.026" stroke="white" stroke-width="4"/>
<path opacity="0.3" d="M1639.11 585.789C1642.53 586.914 1650.44 587.289 1654.77 579.782C1659.1 572.275 1654.77 565.693 1652.06 563.34" stroke="white" stroke-width="4"/>
<line y1="-1.5" x2="42.2351" y2="-1.5" transform="matrix(0.241442 0.970415 0.970415 -0.241442 1723.05 542.703)" stroke="white" stroke-opacity="0.5" stroke-width="3"/>
<path opacity="0.3" d="M1747.07 512C1747.29 520.188 1742.67 537.822 1722.43 542.859C1702.18 547.897 1690.05 534.428 1686.52 527.064" stroke="white" stroke-width="4"/>
<path opacity="0.3" d="M1738.68 514.086C1738.84 519.982 1735.49 532.686 1720.85 536.328C1706.21 539.97 1697.45 530.279 1694.9 524.979" stroke="white" stroke-width="4"/>
<path opacity="0.3" d="M1729.37 516.404C1729.51 519.996 1727.68 527.704 1719.27 529.796C1710.86 531.888 1705.73 525.912 1704.22 522.662" stroke="white" stroke-width="4"/>
<line x1="136.044" y1="191.025" x2="105" y2="236.075" stroke="white" stroke-opacity="0.5" stroke-width="3"/>
<path opacity="0.3" d="M119.684 142C115.682 151.826 113.242 175.313 135.496 190.648C157.75 205.983 178.594 195.179 186.234 187.861" stroke="white" stroke-width="4"/>
<path opacity="0.3" d="M128.898 148.35C126.023 155.428 124.295 172.358 140.386 183.447C156.478 194.536 171.513 186.776 177.02 181.51" stroke="white" stroke-width="4"/>
<path opacity="0.3" d="M139.137 155.406C137.33 159.698 136.027 169.874 145.271 176.244C154.515 182.614 163.462 177.706 166.781 174.456" stroke="white" stroke-width="4"/>
<line y1="-1.5" x2="54.7101" y2="-1.5" transform="matrix(-0.986621 0.163032 0.163032 0.986621 186.07 268.252)" stroke="white" stroke-opacity="0.5" stroke-width="3"/>
<path opacity="0.3" d="M223.227 302.441C212.632 301.881 190.34 294.093 185.934 267.428C181.528 240.764 200.175 226.5 210.05 222.701" stroke="white" stroke-width="4"/>
<path opacity="0.3" d="M221.402 291.4C213.773 290.99 197.717 285.348 194.531 266.068C191.345 246.787 204.766 236.484 211.875 233.742" stroke="white" stroke-width="4"/>
<path opacity="0.3" d="M219.375 279.133C214.722 278.941 204.96 275.79 203.129 264.714C201.299 253.638 209.548 247.629 213.902 246.01" stroke="white" stroke-width="4"/>
<path fill-rule="evenodd" clip-rule="evenodd" d="M1807.62 248H1784.77V214.339H1767V119.591H1796.18V89.4999L927 89.5V82.5L1803 82.4999V84.9776L1803.18 84.9775V119.591H1824.12V214.339H1807.62V248Z" fill="#FF9B05"/>
<path d="M8.29032e-08 79L301 80" stroke="#FF9B05" stroke-width="7"/>
</svg>
