<svg width="1917" height="42" viewBox="0 0 1917 42" fill="none" xmlns="http://www.w3.org/2000/svg">
<path d="M633 21L1652 16.0001" stroke="#368EF5" stroke-opacity="0.7" stroke-width="7"/>
<path d="M337.553 7.40625H341.736L348.732 26.6719L355.711 7.40625H359.912L350.402 33H347.045L337.553 7.40625ZM335.443 7.40625H339.539L340.277 25.1074V33H335.443V7.40625ZM357.908 7.40625H362.021V33H357.188V25.1074L357.908 7.40625ZM383.906 29.2031V33H370.301V29.2031H383.906ZM371.777 7.40625V33H366.943V7.40625H371.777ZM382.131 17.9707V21.6797H370.301V17.9707H382.131ZM383.854 7.40625V11.2207H370.301V7.40625H383.854ZM397.107 23.666H390.516V19.8691H397.107C398.186 19.8691 399.059 19.6934 399.727 19.3418C400.406 18.9785 400.904 18.4863 401.221 17.8652C401.537 17.2324 401.695 16.5117 401.695 15.7031C401.695 14.918 401.537 14.1855 401.221 13.5059C400.904 12.8262 400.406 12.2754 399.727 11.8535C399.059 11.4316 398.186 11.2207 397.107 11.2207H392.098V33H387.264V7.40625H397.107C399.1 7.40625 400.799 7.76367 402.205 8.47852C403.623 9.18164 404.701 10.1602 405.439 11.4141C406.189 12.6563 406.564 14.0742 406.564 15.668C406.564 17.3203 406.189 18.7441 405.439 19.9395C404.701 21.1348 403.623 22.0547 402.205 22.6992C400.799 23.3438 399.1 23.666 397.107 23.666ZM431.086 19.5527V20.8711C431.086 22.8047 430.828 24.5449 430.312 26.0918C429.797 27.627 429.064 28.9336 428.115 30.0117C427.166 31.0898 426.035 31.916 424.723 32.4902C423.41 33.0645 421.951 33.3516 420.346 33.3516C418.764 33.3516 417.311 33.0645 415.986 32.4902C414.674 31.916 413.537 31.0898 412.576 30.0117C411.615 28.9336 410.871 27.627 410.344 26.0918C409.816 24.5449 409.553 22.8047 409.553 20.8711V19.5527C409.553 17.6074 409.816 15.8672 410.344 14.332C410.871 12.7969 411.609 11.4902 412.559 10.4121C413.508 9.32227 414.639 8.49023 415.951 7.91602C417.275 7.3418 418.729 7.05469 420.311 7.05469C421.916 7.05469 423.375 7.3418 424.688 7.91602C426 8.49023 427.131 9.32227 428.08 10.4121C429.041 11.4902 429.779 12.7969 430.295 14.332C430.822 15.8672 431.086 17.6074 431.086 19.5527ZM426.199 20.8711V19.5176C426.199 18.123 426.07 16.8984 425.812 15.8438C425.555 14.7773 425.174 13.8809 424.67 13.1543C424.166 12.4277 423.545 11.8828 422.807 11.5195C422.068 11.1445 421.236 10.957 420.311 10.957C419.373 10.957 418.541 11.1445 417.814 11.5195C417.1 11.8828 416.49 12.4277 415.986 13.1543C415.482 13.8809 415.096 14.7773 414.826 15.8438C414.568 16.8984 414.439 18.123 414.439 19.5176V20.8711C414.439 22.2539 414.568 23.4785 414.826 24.5449C415.096 25.6113 415.482 26.5137 415.986 27.252C416.502 27.9785 417.123 28.5293 417.85 28.9043C418.576 29.2793 419.408 29.4668 420.346 29.4668C421.283 29.4668 422.115 29.2793 422.842 28.9043C423.568 28.5293 424.178 27.9785 424.67 27.252C425.174 26.5137 425.555 25.6113 425.812 24.5449C426.07 23.4785 426.199 22.2539 426.199 20.8711ZM455.73 7.40625V33H450.896V11.2207H440.068V33H435.234V7.40625H455.73ZM470.549 23.666H463.957V19.8691H470.549C471.627 19.8691 472.5 19.6934 473.168 19.3418C473.848 18.9785 474.346 18.4863 474.662 17.8652C474.979 17.2324 475.137 16.5117 475.137 15.7031C475.137 14.918 474.979 14.1855 474.662 13.5059C474.346 12.8262 473.848 12.2754 473.168 11.8535C472.5 11.4316 471.627 11.2207 470.549 11.2207H465.539V33H460.705V7.40625H470.549C472.541 7.40625 474.24 7.76367 475.646 8.47852C477.064 9.18164 478.143 10.1602 478.881 11.4141C479.631 12.6563 480.006 14.0742 480.006 15.668C480.006 17.3203 479.631 18.7441 478.881 19.9395C478.143 21.1348 477.064 22.0547 475.646 22.6992C474.24 23.3438 472.541 23.666 470.549 23.666ZM488.531 25.2656L499.342 7.40625H504.193V33H499.342V15.1406L488.531 33H483.697V7.40625H488.531V25.2656ZM522.861 23.543H515.848L514.09 22.8223C512.121 22.2012 510.615 21.2637 509.572 20.0098C508.529 18.7559 508.008 17.168 508.008 15.2461C508.008 13.5469 508.383 12.1172 509.133 10.957C509.895 9.78516 510.973 8.90039 512.367 8.30273C513.773 7.70508 515.438 7.40625 517.359 7.40625H526.113V33H521.262V11.2207H517.359C515.824 11.2207 514.688 11.6016 513.949 12.3633C513.211 13.125 512.842 14.1855 512.842 15.5449C512.842 16.4941 513.006 17.2969 513.334 17.9531C513.674 18.6094 514.172 19.1016 514.828 19.4297C515.496 19.7578 516.322 19.9219 517.307 19.9219H522.844L522.861 23.543ZM517.623 21.5039L511.805 33H506.584L512.438 21.5039H517.623ZM541.441 7.40625V33H536.625V7.40625H541.441ZM549.387 7.40625V11.2207H528.768V7.40625H549.387ZM557.332 25.2656L568.143 7.40625H572.994V33H568.143V15.1406L557.332 33H552.498V7.40625H557.332V25.2656ZM591.662 23.543H584.648L582.891 22.8223C580.922 22.2012 579.416 21.2637 578.373 20.0098C577.33 18.7559 576.809 17.168 576.809 15.2461C576.809 13.5469 577.184 12.1172 577.934 10.957C578.695 9.78516 579.773 8.90039 581.168 8.30273C582.574 7.70508 584.238 7.40625 586.16 7.40625H594.914V33H590.062V11.2207H586.16C584.625 11.2207 583.488 11.6016 582.75 12.3633C582.012 13.125 581.643 14.1855 581.643 15.5449C581.643 16.4941 581.807 17.2969 582.135 17.9531C582.475 18.6094 582.973 19.1016 583.629 19.4297C584.297 19.7578 585.123 19.9219 586.107 19.9219H591.645L591.662 23.543ZM586.424 21.5039L580.605 33H575.385L581.238 21.5039H586.424Z" fill="#286CBB"/>
<path d="M1652 16L1952 16" stroke="#368EF5" stroke-opacity="0.7" stroke-width="7"/>
<path d="M0 16L300 16" stroke="#368EF5" stroke-opacity="0.7" stroke-width="7"/>
</svg>
