<svg width="51" height="39" viewBox="0 0 51 39" fill="none" xmlns="http://www.w3.org/2000/svg">
<path fill-rule="evenodd" clip-rule="evenodd" d="M31.3482 34.4281C31.637 34.1393 31.7992 33.7476 31.7992 33.3392V27.1793C31.7992 26.7709 31.9615 26.3792 32.2502 26.0904C32.539 25.8016 32.9307 25.6394 33.3392 25.6394C33.7476 25.6394 34.1393 25.8016 34.4281 26.0904C34.7169 26.3792 34.8791 26.7709 34.8791 27.1793V33.3392C34.8791 34.5644 34.3924 35.7395 33.526 36.6059C32.6596 37.4723 31.4845 37.959 30.2592 37.959H5.61988C4.39461 37.959 3.21953 37.4723 2.35313 36.6059C1.48674 35.7395 1 34.5644 1 33.3392V5.61988C1 4.39461 1.48674 3.21953 2.35313 2.35313C3.21953 1.48674 4.39461 1 5.61988 1H30.2592C31.4845 1 32.6596 1.48674 33.526 2.35313C34.3924 3.21953 34.8791 4.39461 34.8791 5.61988V11.7797C34.8791 12.1881 34.7169 12.5798 34.4281 12.8686C34.1393 13.1574 33.7476 13.3197 33.3392 13.3197C32.9307 13.3197 32.539 13.1574 32.2502 12.8686C31.9615 12.5798 31.7992 12.1881 31.7992 11.7797V5.61988C31.7992 5.21146 31.637 4.81976 31.3482 4.53096C31.0594 4.24217 30.6677 4.07992 30.2592 4.07992H5.61988C5.21146 4.07992 4.81976 4.24217 4.53096 4.53096C4.24217 4.81976 4.07992 5.21146 4.07992 5.61988V33.3392C4.07992 33.7476 4.24217 34.1393 4.53096 34.4281C4.81976 34.7169 5.21146 34.8791 5.61988 34.8791H30.2592C30.6677 34.8791 31.0594 34.7169 31.3482 34.4281ZM50.1639 20.0698C50.0863 20.2569 49.9725 20.4269 49.8291 20.5699L40.5893 29.8097C40.3001 30.0988 39.908 30.2613 39.499 30.2613C39.0901 30.2613 38.6979 30.0988 38.4087 29.8097C38.1196 29.5205 37.9571 29.1283 37.9571 28.7194C37.9571 28.3105 38.1196 27.9183 38.4087 27.6291L45.0213 21.0196H17.9396C17.5311 21.0196 17.1395 20.8573 16.8507 20.5685C16.5619 20.2797 16.3996 19.8881 16.3996 19.4796C16.3996 19.0712 16.5619 18.6795 16.8507 18.3907C17.1395 18.1019 17.5311 17.9397 17.9396 17.9397H45.0213L38.4087 11.3302C38.1196 11.041 37.9571 10.6488 37.9571 10.2399C37.9571 9.83093 38.1196 9.43874 38.4087 9.14958C38.6979 8.86041 39.0901 8.69796 39.499 8.69796C39.908 8.69796 40.3001 8.86041 40.5893 9.14958L49.8291 18.3893C49.9725 18.5324 50.0863 18.7023 50.1639 18.8894C50.2415 19.0765 50.2815 19.2771 50.2815 19.4796C50.2815 19.6822 50.2415 19.8828 50.1639 20.0698Z" fill="#368EF5"/>
<path d="M31.3482 34.4281L30.9946 34.0745H30.9946L31.3482 34.4281ZM32.2502 26.0904L31.8967 25.7369L31.8967 25.7369L32.2502 26.0904ZM34.4281 26.0904L34.7816 25.7369L34.4281 26.0904ZM33.526 36.6059L33.8796 36.9595L33.526 36.6059ZM2.35313 36.6059L1.99958 36.9595H1.99958L2.35313 36.6059ZM2.35313 2.35313L1.99958 1.99958L1.99958 1.99958L2.35313 2.35313ZM33.526 2.35313L33.8796 1.99958V1.99958L33.526 2.35313ZM32.2502 12.8686L31.8967 13.2222L31.8967 13.2222L32.2502 12.8686ZM31.3482 4.53096L31.7017 4.17741V4.17741L31.3482 4.53096ZM4.53096 34.4281L4.88452 34.0745H4.88452L4.53096 34.4281ZM49.8291 20.5699L49.476 20.2159L49.4755 20.2164L49.8291 20.5699ZM40.5893 29.8097L40.9429 30.1632L40.5893 29.8097ZM38.4087 29.8097L38.7623 29.4561V29.4561L38.4087 29.8097ZM38.4087 27.6291L38.0553 27.2755L38.0552 27.2755L38.4087 27.6291ZM45.0213 21.0196L45.3748 21.3732L46.2288 20.5196H45.0213V21.0196ZM16.8507 20.5685L16.4971 20.9221V20.9221L16.8507 20.5685ZM16.8507 18.3907L17.2042 18.7443H17.2042L16.8507 18.3907ZM45.0213 17.9397V18.4397H46.2288L45.3748 17.586L45.0213 17.9397ZM38.4087 11.3302L38.0552 11.6837L38.0553 11.6838L38.4087 11.3302ZM38.4087 9.14958L38.7623 9.50313L38.7623 9.50313L38.4087 9.14958ZM40.5893 9.14958L40.9429 8.79602V8.79602L40.5893 9.14958ZM49.8291 18.3893L49.4755 18.7429L49.476 18.7433L49.8291 18.3893ZM31.2992 33.3392C31.2992 33.615 31.1896 33.8795 30.9946 34.0745L31.7017 34.7816C32.0843 34.3991 32.2992 33.8802 32.2992 33.3392H31.2992ZM31.2992 27.1793V33.3392H32.2992V27.1793H31.2992ZM31.8967 25.7369C31.5141 26.1194 31.2992 26.6383 31.2992 27.1793H32.2992C32.2992 26.9035 32.4088 26.639 32.6038 26.444L31.8967 25.7369ZM33.3392 25.1394C32.7981 25.1394 32.2793 25.3543 31.8967 25.7369L32.6038 26.444C32.7988 26.2489 33.0634 26.1394 33.3392 26.1394V25.1394ZM34.7816 25.7369C34.3991 25.3543 33.8802 25.1394 33.3392 25.1394V26.1394C33.615 26.1394 33.8795 26.2489 34.0745 26.444L34.7816 25.7369ZM35.3791 27.1793C35.3791 26.6383 35.1642 26.1194 34.7816 25.7369L34.0745 26.444C34.2696 26.639 34.3791 26.9035 34.3791 27.1793H35.3791ZM35.3791 33.3392V27.1793H34.3791V33.3392H35.3791ZM33.8796 36.9595C34.8397 35.9993 35.3791 34.697 35.3791 33.3392H34.3791C34.3791 34.4318 33.9451 35.4797 33.1724 36.2524L33.8796 36.9595ZM30.2592 38.459C31.6171 38.459 32.9194 37.9196 33.8796 36.9595L33.1724 36.2524C32.3998 37.025 31.3519 37.459 30.2592 37.459V38.459ZM5.61988 38.459H30.2592V37.459H5.61988V38.459ZM1.99958 36.9595C2.95974 37.9196 4.262 38.459 5.61988 38.459V37.459C4.52722 37.459 3.47931 37.025 2.70668 36.2524L1.99958 36.9595ZM0.5 33.3392C0.5 34.697 1.03941 35.9993 1.99958 36.9595L2.70668 36.2524C1.93406 35.4797 1.5 34.4318 1.5 33.3392H0.5ZM0.5 5.61988V33.3392H1.5V5.61988H0.5ZM1.99958 1.99958C1.03941 2.95974 0.5 4.262 0.5 5.61988H1.5C1.5 4.52722 1.93406 3.47931 2.70669 2.70669L1.99958 1.99958ZM5.61988 0.5C4.262 0.5 2.95974 1.03941 1.99958 1.99958L2.70669 2.70669C3.47931 1.93406 4.52722 1.5 5.61988 1.5V0.5ZM30.2592 0.5H5.61988V1.5H30.2592V0.5ZM33.8796 1.99958C32.9194 1.03941 31.6171 0.5 30.2592 0.5V1.5C31.3519 1.5 32.3998 1.93406 33.1724 2.70669L33.8796 1.99958ZM35.3791 5.61988C35.3791 4.262 34.8397 2.95974 33.8796 1.99958L33.1724 2.70668C33.9451 3.47931 34.3791 4.52722 34.3791 5.61988H35.3791ZM35.3791 11.7797V5.61988H34.3791V11.7797H35.3791ZM34.7816 13.2222C35.1642 12.8396 35.3791 12.3208 35.3791 11.7797H34.3791C34.3791 12.0555 34.2696 12.3201 34.0745 12.5151L34.7816 13.2222ZM33.3392 13.8197C33.8802 13.8197 34.3991 13.6048 34.7816 13.2222L34.0745 12.5151C33.8795 12.7101 33.615 12.8197 33.3392 12.8197V13.8197ZM31.8967 13.2222C32.2793 13.6048 32.7981 13.8197 33.3392 13.8197V12.8197C33.0634 12.8197 32.7988 12.7101 32.6038 12.5151L31.8967 13.2222ZM31.2992 11.7797C31.2992 12.3208 31.5141 12.8396 31.8967 13.2222L32.6038 12.5151C32.4088 12.3201 32.2992 12.0555 32.2992 11.7797H31.2992ZM31.2992 5.61988V11.7797H32.2992V5.61988H31.2992ZM30.9946 4.88452C31.1896 5.07955 31.2992 5.34407 31.2992 5.61988H32.2992C32.2992 5.07885 32.0843 4.55998 31.7017 4.17741L30.9946 4.88452ZM30.2592 4.57992C30.5351 4.57992 30.7996 4.68949 30.9946 4.88452L31.7017 4.17741C31.3192 3.79484 30.8003 3.57992 30.2592 3.57992V4.57992ZM5.61988 4.57992H30.2592V3.57992H5.61988V4.57992ZM4.88452 4.88452C5.07955 4.68949 5.34407 4.57992 5.61988 4.57992V3.57992C5.07885 3.57992 4.55998 3.79484 4.17741 4.17741L4.88452 4.88452ZM4.57992 5.61988C4.57992 5.34407 4.68949 5.07955 4.88452 4.88452L4.17741 4.17741C3.79484 4.55998 3.57992 5.07885 3.57992 5.61988H4.57992ZM4.57992 33.3392V5.61988H3.57992V33.3392H4.57992ZM4.88452 34.0745C4.68949 33.8795 4.57992 33.615 4.57992 33.3392H3.57992C3.57992 33.8802 3.79484 34.3991 4.17741 34.7816L4.88452 34.0745ZM5.61988 34.3791C5.34407 34.3791 5.07955 34.2696 4.88452 34.0745L4.17741 34.7816C4.55998 35.1642 5.07885 35.3791 5.61988 35.3791V34.3791ZM30.2592 34.3791H5.61988V35.3791H30.2592V34.3791ZM30.9946 34.0745C30.7996 34.2696 30.5351 34.3791 30.2592 34.3791V35.3791C30.8003 35.3791 31.3192 35.1642 31.7017 34.7816L30.9946 34.0745ZM50.1822 20.9239C50.3722 20.7344 50.5229 20.5093 50.6257 20.2615L49.7021 19.8782C49.6496 20.0046 49.5728 20.1193 49.476 20.2159L50.1822 20.9239ZM40.9429 30.1632L50.1826 20.9235L49.4755 20.2164L40.2358 29.4561L40.9429 30.1632ZM39.499 30.7613C40.0406 30.7613 40.5599 30.5462 40.9429 30.1632L40.2358 29.4561C40.0404 29.6515 39.7753 29.7613 39.499 29.7613V30.7613ZM38.0552 30.1632C38.4381 30.5462 38.9575 30.7613 39.499 30.7613V29.7613C39.2227 29.7613 38.9577 29.6515 38.7623 29.4561L38.0552 30.1632ZM37.4571 28.7194C37.4571 29.2609 37.6722 29.7803 38.0552 30.1632L38.7623 29.4561C38.5669 29.2607 38.4571 28.9957 38.4571 28.7194H37.4571ZM38.0552 27.2755C37.6722 27.6585 37.4571 28.1778 37.4571 28.7194H38.4571C38.4571 28.4431 38.5669 28.178 38.7623 27.9827L38.0552 27.2755ZM44.6678 20.666L38.0553 27.2755L38.7622 27.9827L45.3748 21.3732L44.6678 20.666ZM17.9396 21.5196H45.0213V20.5196H17.9396V21.5196ZM16.4971 20.9221C16.8797 21.3047 17.3985 21.5196 17.9396 21.5196V20.5196C17.6638 20.5196 17.3992 20.41 17.2042 20.215L16.4971 20.9221ZM15.8996 19.4796C15.8996 20.0207 16.1145 20.5395 16.4971 20.9221L17.2042 20.215C17.0092 20.02 16.8996 19.7554 16.8996 19.4796H15.8996ZM16.4971 18.0372C16.1145 18.4197 15.8996 18.9386 15.8996 19.4796H16.8996C16.8996 19.2038 17.0092 18.9393 17.2042 18.7443L16.4971 18.0372ZM17.9396 17.4397C17.3985 17.4397 16.8797 17.6546 16.4971 18.0372L17.2042 18.7443C17.3992 18.5492 17.6638 18.4397 17.9396 18.4397V17.4397ZM45.0213 17.4397H17.9396V18.4397H45.0213V17.4397ZM38.0553 11.6838L44.6678 18.2933L45.3748 17.586L38.7622 10.9765L38.0553 11.6838ZM37.4571 10.2399C37.4571 10.7814 37.6722 11.3008 38.0552 11.6837L38.7623 10.9766C38.5669 10.7812 38.4571 10.5162 38.4571 10.2399H37.4571ZM38.0552 8.79602C37.6722 9.17895 37.4571 9.69832 37.4571 10.2399H38.4571C38.4571 9.96354 38.5669 9.69852 38.7623 9.50313L38.0552 8.79602ZM39.499 8.19796C38.9575 8.19796 38.4381 8.41309 38.0552 8.79602L38.7623 9.50313C38.9577 9.30773 39.2227 9.19796 39.499 9.19796V8.19796ZM40.9429 8.79602C40.5599 8.41309 40.0406 8.19796 39.499 8.19796V9.19796C39.7753 9.19796 40.0404 9.30773 40.2358 9.50313L40.9429 8.79602ZM50.1826 18.0358L40.9429 8.79602L40.2358 9.50313L49.4755 18.7429L50.1826 18.0358ZM50.6257 18.6978C50.5229 18.4499 50.3722 18.2248 50.1822 18.0353L49.476 18.7433C49.5728 18.8399 49.6497 18.9547 49.7021 19.081L50.6257 18.6978ZM50.7815 19.4796C50.7815 19.2113 50.7285 18.9456 50.6257 18.6978L49.7021 19.081C49.7545 19.2074 49.7815 19.3428 49.7815 19.4796H50.7815ZM50.6257 20.2615C50.7285 20.0137 50.7815 19.748 50.7815 19.4796H49.7815C49.7815 19.6164 49.7545 19.7519 49.7021 19.8782L50.6257 20.2615Z" fill="#368EF5"/>
</svg>
