<svg width="219" height="247" viewBox="0 0 219 247" fill="none" xmlns="http://www.w3.org/2000/svg">
<rect x="17" width="194" height="194" rx="97" fill="#368EF5"/>
<path d="M100.25 42C91.4958 42 84.4054 48.3571 82.6317 56.6117C71.9433 58.5183 63.5833 67.4375 63.5833 78.6667C63.5833 79.7942 63.7071 80.7979 63.8721 81.82C60.9158 86.165 59 91.2846 59 97C59 105.236 63.1021 112.166 68.8817 117.194C68.4692 118.826 68.1667 120.453 68.1667 122.208C68.1667 133.543 77.4571 142.833 88.7917 142.833H89.0804C91.7479 148.008 96.3679 152 102.542 152C104.68 151.995 106.796 151.561 108.764 150.725C110.732 149.888 112.513 148.665 114 147.128C115.487 148.665 117.268 149.888 119.236 150.725C121.204 151.561 123.32 151.995 125.458 152C131.637 152 136.252 148.008 138.924 142.833H139.208C149.97 142.833 158.793 134.455 159.691 123.927H159.833C159.833 123.638 159.71 123.354 159.691 123.065C159.71 122.781 159.833 122.493 159.833 122.208C159.833 120.508 159.224 119.055 158.83 117.483C164.774 112.432 169 105.383 169 97C169 91.2892 167.084 86.1696 164.128 81.8154C164.293 80.7979 164.417 79.7988 164.417 78.6667C164.417 67.4375 156.057 58.5229 145.368 56.6071C143.595 48.3617 136.504 42 127.75 42C122.25 42 117.364 44.5621 114 48.4442C110.636 44.5667 105.75 42 100.25 42ZM100.25 51.1667C105.37 51.1667 109.417 55.2138 109.417 60.3333V69.5C109.417 77.145 103.312 83.25 95.6667 83.25V92.4167C100.86 92.4167 105.567 90.6292 109.417 87.6913V135.958C109.417 139.808 106.392 142.833 102.542 142.833C100.938 142.856 99.3791 142.305 98.145 141.281C96.9108 140.257 96.0824 138.826 95.8088 137.246L94.9517 132.81L90.5104 133.525C88.8785 133.782 87.2101 133.682 85.6207 133.231C84.0313 132.78 82.5589 131.989 81.3056 130.913C80.0522 129.837 79.0478 128.501 78.3619 126.998C77.676 125.495 77.3251 123.86 77.3333 122.208C77.3333 120.792 77.5625 119.468 78.0483 118.198C78.085 118.093 78.1583 118.015 78.1904 117.909C78.8937 116.162 80.022 114.618 81.4731 113.418C82.9242 112.217 84.6521 111.398 86.5 111.034L84.6392 102.014C79.9614 102.938 75.7549 105.471 72.75 109.173C69.77 105.822 68.1371 101.485 68.1667 97C68.1588 92.8784 69.5756 88.8807 72.1771 85.6838L73.6117 83.965L73.1808 81.6733C72.9211 80.6912 72.7765 79.6822 72.75 78.6667C72.75 71.0217 78.855 64.9167 86.5 64.9167H91.0833V60.3333C91.0833 55.2138 95.1304 51.1667 100.25 51.1667ZM127.75 51.1667C132.87 51.1667 136.917 55.2138 136.917 60.3333V64.9167H141.5C149.145 64.9167 155.25 71.0217 155.25 78.6667C155.25 79.6521 155.067 80.6008 154.819 81.6733L154.393 83.965L155.823 85.6838C158.424 88.8807 159.841 92.8784 159.833 97C159.833 102.5 157.487 107.404 153.673 110.75C150.543 107.977 146.551 106.167 142.073 106.167C137.742 106.167 133.837 107.707 130.757 110.319L136.633 117.341C138.145 116.038 140.077 115.325 142.073 115.333C146.496 115.333 150.02 118.647 150.525 122.923C150.149 128.96 145.332 133.667 139.208 133.667C138.796 133.667 138.292 133.648 137.49 133.525L133.048 132.805L132.191 137.251C131.917 138.83 131.088 140.26 129.854 141.283C128.62 142.306 127.061 142.856 125.458 142.833C121.608 142.833 118.583 139.808 118.583 135.958V87.6913C122.518 90.7428 127.354 92.4046 132.333 92.4167V83.25C124.688 83.25 118.583 77.145 118.583 69.5V60.3333C118.583 55.2138 122.63 51.1667 127.75 51.1667Z" fill="white"/>
<path d="M16.3457 217.931H18.0332C17.9453 218.739 17.7139 219.463 17.3389 220.102C16.9639 220.74 16.4336 221.247 15.748 221.622C15.0625 221.991 14.207 222.176 13.1816 222.176C12.4316 222.176 11.749 222.035 11.1338 221.754C10.5244 221.473 10 221.074 9.56055 220.559C9.12109 220.037 8.78125 219.413 8.54102 218.687C8.30664 217.954 8.18945 217.14 8.18945 216.243V214.969C8.18945 214.072 8.30664 213.261 8.54102 212.534C8.78125 211.802 9.12402 211.175 9.56934 210.653C10.0205 210.132 10.5625 209.73 11.1953 209.449C11.8281 209.168 12.54 209.027 13.3311 209.027C14.2979 209.027 15.1152 209.209 15.7832 209.572C16.4512 209.936 16.9697 210.439 17.3389 211.084C17.7139 211.723 17.9453 212.464 18.0332 213.308H16.3457C16.2637 212.71 16.1113 212.197 15.8887 211.77C15.666 211.336 15.3496 211.002 14.9395 210.768C14.5293 210.533 13.9932 210.416 13.3311 210.416C12.7627 210.416 12.2617 210.524 11.8281 210.741C11.4004 210.958 11.04 211.266 10.7471 211.664C10.46 212.062 10.2432 212.54 10.0967 213.097C9.9502 213.653 9.87695 214.271 9.87695 214.951V216.243C9.87695 216.87 9.94141 217.459 10.0703 218.01C10.2051 218.561 10.4072 219.044 10.6768 219.46C10.9463 219.876 11.2891 220.204 11.7051 220.444C12.1211 220.679 12.6133 220.796 13.1816 220.796C13.9023 220.796 14.4766 220.682 14.9043 220.453C15.332 220.225 15.6543 219.896 15.8711 219.469C16.0938 219.041 16.252 218.528 16.3457 217.931ZM26.4355 212.49V213.835H21.6279V212.49H26.4355ZM21.8652 212.49V222H20.2393V212.49H21.8652ZM27.877 212.49V222H26.2422V212.49H27.877ZM34.4336 222.176C33.7715 222.176 33.1709 222.064 32.6318 221.842C32.0986 221.613 31.6387 221.294 31.252 220.884C30.8711 220.474 30.5781 219.987 30.373 219.425C30.168 218.862 30.0654 218.247 30.0654 217.579V217.21C30.0654 216.437 30.1797 215.748 30.4082 215.145C30.6367 214.535 30.9473 214.02 31.3398 213.598C31.7324 213.176 32.1777 212.856 32.6758 212.64C33.1738 212.423 33.6895 212.314 34.2227 212.314C34.9023 212.314 35.4883 212.432 35.9805 212.666C36.4785 212.9 36.8857 213.229 37.2021 213.65C37.5186 214.066 37.7529 214.559 37.9053 215.127C38.0576 215.689 38.1338 216.305 38.1338 216.973V217.702H31.0322V216.375H36.5078V216.252C36.4844 215.83 36.3965 215.42 36.2441 215.021C36.0977 214.623 35.8633 214.295 35.541 214.037C35.2188 213.779 34.7793 213.65 34.2227 213.65C33.8535 213.65 33.5137 213.729 33.2031 213.888C32.8926 214.04 32.626 214.269 32.4033 214.573C32.1807 214.878 32.0078 215.25 31.8848 215.689C31.7617 216.129 31.7002 216.636 31.7002 217.21V217.579C31.7002 218.03 31.7617 218.455 31.8848 218.854C32.0137 219.246 32.1982 219.592 32.4385 219.891C32.6846 220.189 32.9805 220.424 33.3262 220.594C33.6777 220.764 34.0762 220.849 34.5215 220.849C35.0957 220.849 35.582 220.731 35.9805 220.497C36.3789 220.263 36.7275 219.949 37.0264 219.557L38.0107 220.339C37.8057 220.649 37.5449 220.945 37.2285 221.227C36.9121 221.508 36.5225 221.736 36.0596 221.912C35.6025 222.088 35.0605 222.176 34.4336 222.176ZM40.1729 222V212.49H41.7988V220.664H46.1758V212.49H47.8105V222H40.1729ZM48.9355 220.664L48.7773 224.821H47.3271V222H46.0879V220.664H48.9355ZM52.46 219.425L56.8457 212.49H58.4805V222H56.8457V215.065L52.46 222H50.8428V212.49H52.46V219.425ZM66.6982 220.374V215.479C66.6982 215.104 66.6221 214.778 66.4697 214.503C66.3232 214.222 66.1006 214.005 65.8018 213.853C65.5029 213.7 65.1338 213.624 64.6943 213.624C64.2842 213.624 63.9238 213.694 63.6133 213.835C63.3086 213.976 63.0684 214.16 62.8926 214.389C62.7227 214.617 62.6377 214.863 62.6377 215.127H61.0117C61.0117 214.787 61.0996 214.45 61.2754 214.116C61.4512 213.782 61.7031 213.48 62.0312 213.211C62.3652 212.936 62.7637 212.719 63.2266 212.561C63.6953 212.396 64.2168 212.314 64.791 212.314C65.4824 212.314 66.0918 212.432 66.6191 212.666C67.1523 212.9 67.5684 213.255 67.8672 213.729C68.1719 214.198 68.3242 214.787 68.3242 215.496V219.926C68.3242 220.242 68.3506 220.579 68.4033 220.937C68.4619 221.294 68.5469 221.602 68.6582 221.859V222H66.9619C66.8799 221.812 66.8154 221.563 66.7686 221.253C66.7217 220.937 66.6982 220.644 66.6982 220.374ZM66.9795 216.234L66.9971 217.377H65.3535C64.8906 217.377 64.4775 217.415 64.1143 217.491C63.751 217.562 63.4463 217.67 63.2002 217.816C62.9541 217.963 62.7666 218.147 62.6377 218.37C62.5088 218.587 62.4443 218.842 62.4443 219.135C62.4443 219.434 62.5117 219.706 62.6465 219.952C62.7812 220.198 62.9834 220.395 63.2529 220.541C63.5283 220.682 63.8652 220.752 64.2637 220.752C64.7617 220.752 65.2012 220.646 65.582 220.436C65.9629 220.225 66.2646 219.967 66.4873 219.662C66.7158 219.357 66.8389 219.062 66.8564 218.774L67.5508 219.557C67.5098 219.803 67.3984 220.075 67.2168 220.374C67.0352 220.673 66.792 220.96 66.4873 221.235C66.1885 221.505 65.8311 221.73 65.415 221.912C65.0049 222.088 64.542 222.176 64.0264 222.176C63.3818 222.176 62.8164 222.05 62.3301 221.798C61.8496 221.546 61.4746 221.209 61.2051 220.787C60.9414 220.359 60.8096 219.882 60.8096 219.354C60.8096 218.845 60.9092 218.396 61.1084 218.01C61.3076 217.617 61.5947 217.292 61.9697 217.034C62.3447 216.771 62.7959 216.571 63.3232 216.437C63.8506 216.302 64.4395 216.234 65.0898 216.234H66.9795ZM77.2363 212.49V213.835H72.6396V212.49H77.2363ZM78.6689 212.49V222H77.043V212.49H78.6689ZM72.2441 212.49H73.8789L73.6328 217.078C73.5918 217.787 73.5244 218.414 73.4307 218.959C73.3428 219.498 73.2197 219.961 73.0615 220.348C72.9092 220.734 72.7158 221.051 72.4814 221.297C72.2529 221.537 71.9775 221.716 71.6553 221.833C71.333 221.944 70.9609 222 70.5391 222H70.0293V220.567L70.3809 220.541C70.6328 220.523 70.8467 220.465 71.0225 220.365C71.2041 220.266 71.3564 220.119 71.4795 219.926C71.6025 219.727 71.7021 219.472 71.7783 219.161C71.8604 218.851 71.9219 218.481 71.9629 218.054C72.0098 217.626 72.0449 217.128 72.0684 216.56L72.2441 212.49ZM82.624 215.76H85.4805C86.248 215.76 86.8955 215.895 87.4229 216.164C87.9502 216.428 88.3486 216.794 88.6182 217.263C88.8936 217.726 89.0312 218.253 89.0312 218.845C89.0312 219.284 88.9551 219.697 88.8027 220.084C88.6504 220.465 88.4219 220.799 88.1172 221.086C87.8184 221.373 87.4463 221.599 87.001 221.763C86.5615 221.921 86.0547 222 85.4805 222H81.4375V212.49H83.0635V220.664H85.4805C85.9492 220.664 86.3242 220.579 86.6055 220.409C86.8867 220.239 87.0889 220.02 87.2119 219.75C87.335 219.48 87.3965 219.199 87.3965 218.906C87.3965 218.619 87.335 218.338 87.2119 218.062C87.0889 217.787 86.8867 217.559 86.6055 217.377C86.3242 217.189 85.9492 217.096 85.4805 217.096H82.624V215.76ZM97.5127 216.612V217.931H92.4854V216.612H97.5127ZM92.8281 212.49V222H91.2021V212.49H92.8281ZM98.8311 212.49V222H97.1963V212.49H98.8311ZM107.058 220.374V215.479C107.058 215.104 106.981 214.778 106.829 214.503C106.683 214.222 106.46 214.005 106.161 213.853C105.862 213.7 105.493 213.624 105.054 213.624C104.644 213.624 104.283 213.694 103.973 213.835C103.668 213.976 103.428 214.16 103.252 214.389C103.082 214.617 102.997 214.863 102.997 215.127H101.371C101.371 214.787 101.459 214.45 101.635 214.116C101.811 213.782 102.062 213.48 102.391 213.211C102.725 212.936 103.123 212.719 103.586 212.561C104.055 212.396 104.576 212.314 105.15 212.314C105.842 212.314 106.451 212.432 106.979 212.666C107.512 212.9 107.928 213.255 108.227 213.729C108.531 214.198 108.684 214.787 108.684 215.496V219.926C108.684 220.242 108.71 220.579 108.763 220.937C108.821 221.294 108.906 221.602 109.018 221.859V222H107.321C107.239 221.812 107.175 221.563 107.128 221.253C107.081 220.937 107.058 220.644 107.058 220.374ZM107.339 216.234L107.356 217.377H105.713C105.25 217.377 104.837 217.415 104.474 217.491C104.11 217.562 103.806 217.67 103.56 217.816C103.313 217.963 103.126 218.147 102.997 218.37C102.868 218.587 102.804 218.842 102.804 219.135C102.804 219.434 102.871 219.706 103.006 219.952C103.141 220.198 103.343 220.395 103.612 220.541C103.888 220.682 104.225 220.752 104.623 220.752C105.121 220.752 105.561 220.646 105.941 220.436C106.322 220.225 106.624 219.967 106.847 219.662C107.075 219.357 107.198 219.062 107.216 218.774L107.91 219.557C107.869 219.803 107.758 220.075 107.576 220.374C107.395 220.673 107.151 220.96 106.847 221.235C106.548 221.505 106.19 221.73 105.774 221.912C105.364 222.088 104.901 222.176 104.386 222.176C103.741 222.176 103.176 222.05 102.689 221.798C102.209 221.546 101.834 221.209 101.564 220.787C101.301 220.359 101.169 219.882 101.169 219.354C101.169 218.845 101.269 218.396 101.468 218.01C101.667 217.617 101.954 217.292 102.329 217.034C102.704 216.771 103.155 216.571 103.683 216.437C104.21 216.302 104.799 216.234 105.449 216.234H107.339ZM113.166 217.465H114.924L112.173 222H110.415L113.166 217.465ZM114.528 212.49H118.501V222H116.875V213.809H114.528C114.065 213.809 113.688 213.888 113.395 214.046C113.102 214.198 112.888 214.397 112.753 214.644C112.618 214.89 112.551 215.145 112.551 215.408C112.551 215.666 112.612 215.915 112.735 216.155C112.858 216.39 113.052 216.583 113.315 216.735C113.579 216.888 113.919 216.964 114.335 216.964H117.314V218.3H114.335C113.79 218.3 113.307 218.227 112.885 218.08C112.463 217.934 112.105 217.731 111.812 217.474C111.52 217.21 111.297 216.902 111.145 216.551C110.992 216.193 110.916 215.807 110.916 215.391C110.916 214.975 110.995 214.591 111.153 214.239C111.317 213.888 111.552 213.58 111.856 213.316C112.167 213.053 112.545 212.851 112.99 212.71C113.441 212.563 113.954 212.49 114.528 212.49ZM132.036 216.612V217.931H127.009V216.612H132.036ZM127.352 212.49V222H125.726V212.49H127.352ZM133.354 212.49V222H131.72V212.49H133.354ZM135.543 217.351V217.148C135.543 216.463 135.643 215.827 135.842 215.241C136.041 214.649 136.328 214.137 136.703 213.703C137.078 213.264 137.532 212.924 138.065 212.684C138.599 212.438 139.196 212.314 139.858 212.314C140.526 212.314 141.127 212.438 141.66 212.684C142.199 212.924 142.656 213.264 143.031 213.703C143.412 214.137 143.702 214.649 143.901 215.241C144.101 215.827 144.2 216.463 144.2 217.148V217.351C144.2 218.036 144.101 218.672 143.901 219.258C143.702 219.844 143.412 220.356 143.031 220.796C142.656 221.229 142.202 221.569 141.669 221.815C141.142 222.056 140.544 222.176 139.876 222.176C139.208 222.176 138.607 222.056 138.074 221.815C137.541 221.569 137.084 221.229 136.703 220.796C136.328 220.356 136.041 219.844 135.842 219.258C135.643 218.672 135.543 218.036 135.543 217.351ZM137.169 217.148V217.351C137.169 217.825 137.225 218.273 137.336 218.695C137.447 219.111 137.614 219.48 137.837 219.803C138.065 220.125 138.35 220.38 138.689 220.567C139.029 220.749 139.425 220.84 139.876 220.84C140.321 220.84 140.711 220.749 141.045 220.567C141.385 220.38 141.666 220.125 141.889 219.803C142.111 219.48 142.278 219.111 142.39 218.695C142.507 218.273 142.565 217.825 142.565 217.351V217.148C142.565 216.68 142.507 216.237 142.39 215.821C142.278 215.399 142.108 215.027 141.88 214.705C141.657 214.377 141.376 214.119 141.036 213.932C140.702 213.744 140.31 213.65 139.858 213.65C139.413 213.65 139.021 213.744 138.681 213.932C138.347 214.119 138.065 214.377 137.837 214.705C137.614 215.027 137.447 215.399 137.336 215.821C137.225 216.237 137.169 216.68 137.169 217.148ZM151.706 219.838L154.94 212.49H156.505L152.269 222H151.144L146.925 212.49H148.489L151.706 219.838ZM148.015 212.49V222H146.389V212.49H148.015ZM155.345 222V212.49H156.979V222H155.345ZM161.356 219.425L165.742 212.49H167.377V222H165.742V215.065L161.356 222H159.739V212.49H161.356V219.425ZM176.438 216.612V217.931H171.411V216.612H176.438ZM171.754 212.49V222H170.128V212.49H171.754ZM177.757 212.49V222H176.122V212.49H177.757ZM185.983 220.374V215.479C185.983 215.104 185.907 214.778 185.755 214.503C185.608 214.222 185.386 214.005 185.087 213.853C184.788 213.7 184.419 213.624 183.979 213.624C183.569 213.624 183.209 213.694 182.898 213.835C182.594 213.976 182.354 214.16 182.178 214.389C182.008 214.617 181.923 214.863 181.923 215.127H180.297C180.297 214.787 180.385 214.45 180.561 214.116C180.736 213.782 180.988 213.48 181.316 213.211C181.65 212.936 182.049 212.719 182.512 212.561C182.98 212.396 183.502 212.314 184.076 212.314C184.768 212.314 185.377 212.432 185.904 212.666C186.438 212.9 186.854 213.255 187.152 213.729C187.457 214.198 187.609 214.787 187.609 215.496V219.926C187.609 220.242 187.636 220.579 187.688 220.937C187.747 221.294 187.832 221.602 187.943 221.859V222H186.247C186.165 221.812 186.101 221.563 186.054 221.253C186.007 220.937 185.983 220.644 185.983 220.374ZM186.265 216.234L186.282 217.377H184.639C184.176 217.377 183.763 217.415 183.399 217.491C183.036 217.562 182.731 217.67 182.485 217.816C182.239 217.963 182.052 218.147 181.923 218.37C181.794 218.587 181.729 218.842 181.729 219.135C181.729 219.434 181.797 219.706 181.932 219.952C182.066 220.198 182.269 220.395 182.538 220.541C182.813 220.682 183.15 220.752 183.549 220.752C184.047 220.752 184.486 220.646 184.867 220.436C185.248 220.225 185.55 219.967 185.772 219.662C186.001 219.357 186.124 219.062 186.142 218.774L186.836 219.557C186.795 219.803 186.684 220.075 186.502 220.374C186.32 220.673 186.077 220.96 185.772 221.235C185.474 221.505 185.116 221.73 184.7 221.912C184.29 222.088 183.827 222.176 183.312 222.176C182.667 222.176 182.102 222.05 181.615 221.798C181.135 221.546 180.76 221.209 180.49 220.787C180.227 220.359 180.095 219.882 180.095 219.354C180.095 218.845 180.194 218.396 180.394 218.01C180.593 217.617 180.88 217.292 181.255 217.034C181.63 216.771 182.081 216.571 182.608 216.437C183.136 216.302 183.725 216.234 184.375 216.234H186.265ZM190.308 222V212.49H191.934V220.664H196.311V212.49H197.945V222H190.308ZM199.07 220.664L198.912 224.821H197.462V222H196.223V220.664H199.07ZM202.595 219.425L206.98 212.49H208.615V222H206.98V215.065L202.595 222H200.978V212.49H202.595V219.425ZM213.15 217.465H214.908L212.157 222H210.399L213.15 217.465ZM214.513 212.49H218.485V222H216.859V213.809H214.513C214.05 213.809 213.672 213.888 213.379 214.046C213.086 214.198 212.872 214.397 212.737 214.644C212.603 214.89 212.535 215.145 212.535 215.408C212.535 215.666 212.597 215.915 212.72 216.155C212.843 216.39 213.036 216.583 213.3 216.735C213.563 216.888 213.903 216.964 214.319 216.964H217.299V218.3H214.319C213.774 218.3 213.291 218.227 212.869 218.08C212.447 217.934 212.09 217.731 211.797 217.474C211.504 217.21 211.281 216.902 211.129 216.551C210.977 216.193 210.9 215.807 210.9 215.391C210.9 214.975 210.979 214.591 211.138 214.239C211.302 213.888 211.536 213.58 211.841 213.316C212.151 213.053 212.529 212.851 212.975 212.71C213.426 212.563 213.938 212.49 214.513 212.49ZM55.2021 234.686L52.9082 238.219L51.3613 238.21V238.096L53.9541 234.686H55.2021ZM52.9082 238.14L55.2021 241.682H53.9541L51.3613 238.263V238.148L52.9082 238.14ZM58.1113 234.686L55.8174 238.219L54.2705 238.21V238.096L56.8633 234.686H58.1113ZM55.8174 238.14L58.1113 241.682H56.8633L54.2705 238.263V238.148L55.8174 238.14ZM63.877 243H61.2051L61.2227 241.62H63.877C64.791 241.62 65.5527 241.43 66.1621 241.049C66.7715 240.662 67.2285 240.123 67.5332 239.432C67.8438 238.734 67.999 237.92 67.999 236.988V236.206C67.999 235.474 67.9111 234.823 67.7354 234.255C67.5596 233.681 67.3018 233.197 66.9619 232.805C66.6221 232.406 66.2061 232.104 65.7139 231.899C65.2275 231.694 64.668 231.592 64.0352 231.592H61.1523V230.203H64.0352C64.873 230.203 65.6377 230.344 66.3291 230.625C67.0205 230.9 67.6152 231.302 68.1133 231.829C68.6172 232.351 69.0039 232.983 69.2734 233.728C69.543 234.466 69.6777 235.298 69.6777 236.224V236.988C69.6777 237.914 69.543 238.749 69.2734 239.493C69.0039 240.231 68.6143 240.861 68.1045 241.383C67.6006 241.904 66.9912 242.306 66.2764 242.587C65.5674 242.862 64.7676 243 63.877 243ZM62.1104 230.203V243H60.4141V230.203H62.1104ZM77.5879 241.374V236.479C77.5879 236.104 77.5117 235.778 77.3594 235.503C77.2129 235.222 76.9902 235.005 76.6914 234.853C76.3926 234.7 76.0234 234.624 75.584 234.624C75.1738 234.624 74.8135 234.694 74.5029 234.835C74.1982 234.976 73.958 235.16 73.7822 235.389C73.6123 235.617 73.5273 235.863 73.5273 236.127H71.9014C71.9014 235.787 71.9893 235.45 72.165 235.116C72.3408 234.782 72.5928 234.48 72.9209 234.211C73.2549 233.936 73.6533 233.719 74.1162 233.561C74.585 233.396 75.1064 233.314 75.6807 233.314C76.3721 233.314 76.9814 233.432 77.5088 233.666C78.042 233.9 78.458 234.255 78.7568 234.729C79.0615 235.198 79.2139 235.787 79.2139 236.496V240.926C79.2139 241.242 79.2402 241.579 79.293 241.937C79.3516 242.294 79.4365 242.602 79.5479 242.859V243H77.8516C77.7695 242.812 77.7051 242.563 77.6582 242.253C77.6113 241.937 77.5879 241.644 77.5879 241.374ZM77.8691 237.234L77.8867 238.377H76.2432C75.7803 238.377 75.3672 238.415 75.0039 238.491C74.6406 238.562 74.3359 238.67 74.0898 238.816C73.8438 238.963 73.6562 239.147 73.5273 239.37C73.3984 239.587 73.334 239.842 73.334 240.135C73.334 240.434 73.4014 240.706 73.5361 240.952C73.6709 241.198 73.873 241.395 74.1426 241.541C74.418 241.682 74.7549 241.752 75.1533 241.752C75.6514 241.752 76.0908 241.646 76.4717 241.436C76.8525 241.225 77.1543 240.967 77.377 240.662C77.6055 240.357 77.7285 240.062 77.7461 239.774L78.4404 240.557C78.3994 240.803 78.2881 241.075 78.1064 241.374C77.9248 241.673 77.6816 241.96 77.377 242.235C77.0781 242.505 76.7207 242.73 76.3047 242.912C75.8945 243.088 75.4316 243.176 74.916 243.176C74.2715 243.176 73.7061 243.05 73.2197 242.798C72.7393 242.546 72.3643 242.209 72.0947 241.787C71.8311 241.359 71.6992 240.882 71.6992 240.354C71.6992 239.845 71.7988 239.396 71.998 239.01C72.1973 238.617 72.4844 238.292 72.8594 238.034C73.2344 237.771 73.6855 237.571 74.2129 237.437C74.7402 237.302 75.3291 237.234 75.9795 237.234H77.8691ZM85.7529 233.49V234.738H80.6113V233.49H85.7529ZM82.3516 231.179H83.9775V240.645C83.9775 240.967 84.0273 241.21 84.127 241.374C84.2266 241.538 84.3555 241.646 84.5137 241.699C84.6719 241.752 84.8418 241.778 85.0234 241.778C85.1582 241.778 85.2988 241.767 85.4453 241.743C85.5977 241.714 85.7119 241.69 85.7881 241.673L85.7969 243C85.668 243.041 85.498 243.079 85.2871 243.114C85.082 243.155 84.833 243.176 84.54 243.176C84.1416 243.176 83.7754 243.097 83.4414 242.938C83.1074 242.78 82.8408 242.517 82.6416 242.147C82.4482 241.772 82.3516 241.269 82.3516 240.636V231.179ZM93.2676 241.374V236.479C93.2676 236.104 93.1914 235.778 93.0391 235.503C92.8926 235.222 92.6699 235.005 92.3711 234.853C92.0723 234.7 91.7031 234.624 91.2637 234.624C90.8535 234.624 90.4932 234.694 90.1826 234.835C89.8779 234.976 89.6377 235.16 89.4619 235.389C89.292 235.617 89.207 235.863 89.207 236.127H87.5811C87.5811 235.787 87.6689 235.45 87.8447 235.116C88.0205 234.782 88.2725 234.48 88.6006 234.211C88.9346 233.936 89.333 233.719 89.7959 233.561C90.2646 233.396 90.7861 233.314 91.3604 233.314C92.0518 233.314 92.6611 233.432 93.1885 233.666C93.7217 233.9 94.1377 234.255 94.4365 234.729C94.7412 235.198 94.8936 235.787 94.8936 236.496V240.926C94.8936 241.242 94.9199 241.579 94.9727 241.937C95.0312 242.294 95.1162 242.602 95.2275 242.859V243H93.5312C93.4492 242.812 93.3848 242.563 93.3379 242.253C93.291 241.937 93.2676 241.644 93.2676 241.374ZM93.5488 237.234L93.5664 238.377H91.9229C91.46 238.377 91.0469 238.415 90.6836 238.491C90.3203 238.562 90.0156 238.67 89.7695 238.816C89.5234 238.963 89.3359 239.147 89.207 239.37C89.0781 239.587 89.0137 239.842 89.0137 240.135C89.0137 240.434 89.0811 240.706 89.2158 240.952C89.3506 241.198 89.5527 241.395 89.8223 241.541C90.0977 241.682 90.4346 241.752 90.833 241.752C91.3311 241.752 91.7705 241.646 92.1514 241.436C92.5322 241.225 92.834 240.967 93.0566 240.662C93.2852 240.357 93.4082 240.062 93.4258 239.774L94.1201 240.557C94.0791 240.803 93.9678 241.075 93.7861 241.374C93.6045 241.673 93.3613 241.96 93.0566 242.235C92.7578 242.505 92.4004 242.73 91.9844 242.912C91.5742 243.088 91.1113 243.176 90.5957 243.176C89.9512 243.176 89.3857 243.05 88.8994 242.798C88.4189 242.546 88.0439 242.209 87.7744 241.787C87.5107 241.359 87.3789 240.882 87.3789 240.354C87.3789 239.845 87.4785 239.396 87.6777 239.01C87.877 238.617 88.1641 238.292 88.5391 238.034C88.9141 237.771 89.3652 237.571 89.8926 237.437C90.4199 237.302 91.0088 237.234 91.6592 237.234H93.5488ZM108.982 239.766C108.982 239.467 108.936 239.203 108.842 238.975C108.754 238.74 108.596 238.529 108.367 238.342C108.145 238.154 107.834 237.976 107.436 237.806C107.043 237.636 106.545 237.463 105.941 237.287C105.309 237.1 104.737 236.892 104.228 236.663C103.718 236.429 103.281 236.162 102.918 235.863C102.555 235.564 102.276 235.222 102.083 234.835C101.89 234.448 101.793 234.006 101.793 233.508C101.793 233.01 101.896 232.55 102.101 232.128C102.306 231.706 102.599 231.34 102.979 231.029C103.366 230.713 103.826 230.467 104.359 230.291C104.893 230.115 105.487 230.027 106.144 230.027C107.104 230.027 107.919 230.212 108.587 230.581C109.261 230.944 109.773 231.422 110.125 232.014C110.477 232.6 110.652 233.227 110.652 233.895H108.965C108.965 233.414 108.862 232.989 108.657 232.62C108.452 232.245 108.142 231.952 107.726 231.741C107.31 231.524 106.782 231.416 106.144 231.416C105.54 231.416 105.042 231.507 104.649 231.688C104.257 231.87 103.964 232.116 103.771 232.427C103.583 232.737 103.489 233.092 103.489 233.49C103.489 233.76 103.545 234.006 103.656 234.229C103.773 234.445 103.952 234.647 104.192 234.835C104.438 235.022 104.749 235.195 105.124 235.354C105.505 235.512 105.959 235.664 106.486 235.811C107.213 236.016 107.84 236.244 108.367 236.496C108.895 236.748 109.328 237.032 109.668 237.349C110.014 237.659 110.269 238.014 110.433 238.412C110.603 238.805 110.688 239.25 110.688 239.748C110.688 240.27 110.582 240.741 110.371 241.163C110.16 241.585 109.858 241.945 109.466 242.244C109.073 242.543 108.602 242.774 108.051 242.938C107.506 243.097 106.896 243.176 106.223 243.176C105.631 243.176 105.048 243.094 104.474 242.93C103.905 242.766 103.387 242.52 102.918 242.191C102.455 241.863 102.083 241.459 101.802 240.979C101.526 240.492 101.389 239.93 101.389 239.291H103.076C103.076 239.73 103.161 240.108 103.331 240.425C103.501 240.735 103.732 240.993 104.025 241.198C104.324 241.403 104.661 241.556 105.036 241.655C105.417 241.749 105.812 241.796 106.223 241.796C106.814 241.796 107.315 241.714 107.726 241.55C108.136 241.386 108.446 241.151 108.657 240.847C108.874 240.542 108.982 240.182 108.982 239.766ZM116.409 241.84C116.796 241.84 117.153 241.761 117.481 241.603C117.81 241.444 118.079 241.228 118.29 240.952C118.501 240.671 118.621 240.352 118.65 239.994H120.197C120.168 240.557 119.978 241.081 119.626 241.567C119.28 242.048 118.826 242.438 118.264 242.736C117.701 243.029 117.083 243.176 116.409 243.176C115.694 243.176 115.07 243.05 114.537 242.798C114.01 242.546 113.57 242.2 113.219 241.761C112.873 241.321 112.612 240.817 112.437 240.249C112.267 239.675 112.182 239.068 112.182 238.43V238.061C112.182 237.422 112.267 236.818 112.437 236.25C112.612 235.676 112.873 235.169 113.219 234.729C113.57 234.29 114.01 233.944 114.537 233.692C115.07 233.44 115.694 233.314 116.409 233.314C117.153 233.314 117.804 233.467 118.36 233.771C118.917 234.07 119.354 234.48 119.67 235.002C119.992 235.518 120.168 236.104 120.197 236.76H118.65C118.621 236.367 118.51 236.013 118.316 235.696C118.129 235.38 117.871 235.128 117.543 234.94C117.221 234.747 116.843 234.65 116.409 234.65C115.911 234.65 115.492 234.75 115.152 234.949C114.818 235.143 114.552 235.406 114.353 235.74C114.159 236.068 114.019 236.435 113.931 236.839C113.849 237.237 113.808 237.645 113.808 238.061V238.43C113.808 238.846 113.849 239.256 113.931 239.66C114.013 240.064 114.15 240.431 114.344 240.759C114.543 241.087 114.81 241.351 115.144 241.55C115.483 241.743 115.905 241.84 116.409 241.84ZM123.792 233.49V243H122.157V233.49H123.792ZM122.034 230.968C122.034 230.704 122.113 230.481 122.271 230.3C122.436 230.118 122.676 230.027 122.992 230.027C123.303 230.027 123.54 230.118 123.704 230.3C123.874 230.481 123.959 230.704 123.959 230.968C123.959 231.22 123.874 231.437 123.704 231.618C123.54 231.794 123.303 231.882 122.992 231.882C122.676 231.882 122.436 231.794 122.271 231.618C122.113 231.437 122.034 231.22 122.034 230.968ZM130.349 243.176C129.687 243.176 129.086 243.064 128.547 242.842C128.014 242.613 127.554 242.294 127.167 241.884C126.786 241.474 126.493 240.987 126.288 240.425C126.083 239.862 125.98 239.247 125.98 238.579V238.21C125.98 237.437 126.095 236.748 126.323 236.145C126.552 235.535 126.862 235.02 127.255 234.598C127.647 234.176 128.093 233.856 128.591 233.64C129.089 233.423 129.604 233.314 130.138 233.314C130.817 233.314 131.403 233.432 131.896 233.666C132.394 233.9 132.801 234.229 133.117 234.65C133.434 235.066 133.668 235.559 133.82 236.127C133.973 236.689 134.049 237.305 134.049 237.973V238.702H126.947V237.375H132.423V237.252C132.399 236.83 132.312 236.42 132.159 236.021C132.013 235.623 131.778 235.295 131.456 235.037C131.134 234.779 130.694 234.65 130.138 234.65C129.769 234.65 129.429 234.729 129.118 234.888C128.808 235.04 128.541 235.269 128.318 235.573C128.096 235.878 127.923 236.25 127.8 236.689C127.677 237.129 127.615 237.636 127.615 238.21V238.579C127.615 239.03 127.677 239.455 127.8 239.854C127.929 240.246 128.113 240.592 128.354 240.891C128.6 241.189 128.896 241.424 129.241 241.594C129.593 241.764 129.991 241.849 130.437 241.849C131.011 241.849 131.497 241.731 131.896 241.497C132.294 241.263 132.643 240.949 132.941 240.557L133.926 241.339C133.721 241.649 133.46 241.945 133.144 242.227C132.827 242.508 132.438 242.736 131.975 242.912C131.518 243.088 130.976 243.176 130.349 243.176ZM137.573 235.521V243H135.947V233.49H137.485L137.573 235.521ZM137.187 237.885L136.51 237.858C136.516 237.208 136.612 236.607 136.8 236.057C136.987 235.5 137.251 235.017 137.591 234.606C137.931 234.196 138.335 233.88 138.804 233.657C139.278 233.429 139.803 233.314 140.377 233.314C140.846 233.314 141.268 233.379 141.643 233.508C142.018 233.631 142.337 233.83 142.601 234.105C142.87 234.381 143.075 234.738 143.216 235.178C143.356 235.611 143.427 236.142 143.427 236.769V243H141.792V236.751C141.792 236.253 141.719 235.854 141.572 235.556C141.426 235.251 141.212 235.031 140.931 234.896C140.649 234.756 140.304 234.686 139.894 234.686C139.489 234.686 139.12 234.771 138.786 234.94C138.458 235.11 138.174 235.345 137.934 235.644C137.699 235.942 137.515 236.285 137.38 236.672C137.251 237.053 137.187 237.457 137.187 237.885ZM149.702 241.84C150.089 241.84 150.446 241.761 150.774 241.603C151.103 241.444 151.372 241.228 151.583 240.952C151.794 240.671 151.914 240.352 151.943 239.994H153.49C153.461 240.557 153.271 241.081 152.919 241.567C152.573 242.048 152.119 242.438 151.557 242.736C150.994 243.029 150.376 243.176 149.702 243.176C148.987 243.176 148.363 243.05 147.83 242.798C147.303 242.546 146.863 242.2 146.512 241.761C146.166 241.321 145.905 240.817 145.729 240.249C145.56 239.675 145.475 239.068 145.475 238.43V238.061C145.475 237.422 145.56 236.818 145.729 236.25C145.905 235.676 146.166 235.169 146.512 234.729C146.863 234.29 147.303 233.944 147.83 233.692C148.363 233.44 148.987 233.314 149.702 233.314C150.446 233.314 151.097 233.467 151.653 233.771C152.21 234.07 152.646 234.48 152.963 235.002C153.285 235.518 153.461 236.104 153.49 236.76H151.943C151.914 236.367 151.803 236.013 151.609 235.696C151.422 235.38 151.164 235.128 150.836 234.94C150.514 234.747 150.136 234.65 149.702 234.65C149.204 234.65 148.785 234.75 148.445 234.949C148.111 235.143 147.845 235.406 147.646 235.74C147.452 236.068 147.312 236.435 147.224 236.839C147.142 237.237 147.101 237.645 147.101 238.061V238.43C147.101 238.846 147.142 239.256 147.224 239.66C147.306 240.064 147.443 240.431 147.637 240.759C147.836 241.087 148.103 241.351 148.437 241.55C148.776 241.743 149.198 241.84 149.702 241.84ZM159.265 243.176C158.603 243.176 158.002 243.064 157.463 242.842C156.93 242.613 156.47 242.294 156.083 241.884C155.702 241.474 155.409 240.987 155.204 240.425C154.999 239.862 154.896 239.247 154.896 238.579V238.21C154.896 237.437 155.011 236.748 155.239 236.145C155.468 235.535 155.778 235.02 156.171 234.598C156.563 234.176 157.009 233.856 157.507 233.64C158.005 233.423 158.521 233.314 159.054 233.314C159.733 233.314 160.319 233.432 160.812 233.666C161.31 233.9 161.717 234.229 162.033 234.65C162.35 235.066 162.584 235.559 162.736 236.127C162.889 236.689 162.965 237.305 162.965 237.973V238.702H155.863V237.375H161.339V237.252C161.315 236.83 161.228 236.42 161.075 236.021C160.929 235.623 160.694 235.295 160.372 235.037C160.05 234.779 159.61 234.65 159.054 234.65C158.685 234.65 158.345 234.729 158.034 234.888C157.724 235.04 157.457 235.269 157.234 235.573C157.012 235.878 156.839 236.25 156.716 236.689C156.593 237.129 156.531 237.636 156.531 238.21V238.579C156.531 239.03 156.593 239.455 156.716 239.854C156.845 240.246 157.029 240.592 157.27 240.891C157.516 241.189 157.812 241.424 158.157 241.594C158.509 241.764 158.907 241.849 159.353 241.849C159.927 241.849 160.413 241.731 160.812 241.497C161.21 241.263 161.559 240.949 161.857 240.557L162.842 241.339C162.637 241.649 162.376 241.945 162.06 242.227C161.743 242.508 161.354 242.736 160.891 242.912C160.434 243.088 159.892 243.176 159.265 243.176ZM164.529 241.655L166.823 238.122L168.37 238.131V238.245L165.777 241.655H164.529ZM164.529 234.659H165.777L168.37 238.078V238.192L166.823 238.201L164.529 234.659ZM167.597 241.655L169.891 238.122L171.438 238.131V238.245L168.845 241.655H167.597ZM167.597 234.659H168.845L171.438 238.078V238.192L169.891 238.201L167.597 234.659Z" fill="#272727"/>
</svg>
