<svg width="196" height="246" viewBox="0 0 196 246" fill="none" xmlns="http://www.w3.org/2000/svg">
<rect x="2" y="1" width="194" height="194" rx="97" fill="#368EF5"/>
<path d="M55.1319 97.5C55.1319 96.2476 55.6396 95.0465 56.5433 94.1609C57.447 93.2753 58.6726 92.7778 59.9506 92.7778H69.588V83.3333C69.588 82.0809 70.0956 80.8798 70.9993 79.9942C71.903 79.1086 73.1286 78.6111 74.4066 78.6111C75.6846 78.6111 76.9103 79.1086 77.8139 79.9942C78.7176 80.8798 79.2253 82.0809 79.2253 83.3333V92.7778H88.8627C90.1406 92.7778 91.3663 93.2753 92.27 94.1609C93.1736 95.0465 93.6813 96.2476 93.6813 97.5C93.6813 98.7524 93.1736 99.9535 92.27 100.839C91.3663 101.725 90.1406 102.222 88.8627 102.222H79.2253V111.667C79.2253 112.919 78.7176 114.12 77.8139 115.006C76.9103 115.891 75.6846 116.389 74.4066 116.389C73.1286 116.389 71.903 115.891 70.9993 115.006C70.0956 114.12 69.588 112.919 69.588 111.667V102.222H59.9506C58.6726 102.222 57.447 101.725 56.5433 100.839C55.6396 99.9535 55.1319 98.7524 55.1319 97.5ZM127.364 111.667C127.364 114.171 126.348 116.574 124.541 118.345C122.734 120.116 120.282 121.111 117.727 121.111C115.171 121.111 112.719 120.116 110.912 118.345C109.105 116.574 108.089 114.171 108.089 111.667C108.089 109.162 109.105 106.76 110.912 104.988C112.719 103.217 115.171 102.222 117.727 102.222C120.282 102.222 122.734 103.217 124.541 104.988C126.348 106.76 127.364 109.162 127.364 111.667ZM127.364 92.7778C129.92 92.7778 132.371 91.7827 134.178 90.0116C135.986 88.2404 137.001 85.8382 137.001 83.3333C137.001 80.8285 135.986 78.4263 134.178 76.6551C132.371 74.8839 129.92 73.8889 127.364 73.8889C124.808 73.8889 122.357 74.8839 120.549 76.6551C118.742 78.4263 117.727 80.8285 117.727 83.3333C117.727 85.8382 118.742 88.2404 120.549 90.0116C122.357 91.7827 124.808 92.7778 127.364 92.7778ZM31 97.5C31 86.2283 35.5691 75.4183 43.7022 67.448C51.8353 59.4777 62.8661 55 74.3681 55H122.632C134.134 55 145.165 59.4777 153.298 67.448C161.431 75.4183 166 86.2283 166 97.5C166 108.772 161.431 119.582 153.298 127.552C145.165 135.522 134.134 140 122.632 140H74.3681C62.8661 140 51.8353 135.522 43.7022 127.552C35.5691 119.582 31 108.772 31 97.5ZM74.3681 64.4444C65.4221 64.4444 56.8426 67.9271 50.5169 74.1262C44.1911 80.3253 40.6373 88.7331 40.6373 97.5C40.6373 106.267 44.1911 114.675 50.5169 120.874C56.8426 127.073 65.4221 130.556 74.3681 130.556H122.632C131.578 130.556 140.157 127.073 146.483 120.874C152.809 114.675 156.363 106.267 156.363 97.5C156.363 88.7331 152.809 80.3253 146.483 74.1262C140.157 67.9271 131.578 64.4444 122.632 64.4444H74.3681Z" fill="white"/>
<path d="M36.5977 208.203V221H34.9014V208.203H36.5977ZM44.4814 208.203L38.9268 215.243H35.9209L35.6572 213.837H37.916L42.3809 208.203H44.4814ZM42.7764 221L37.9688 215.023L38.918 213.538L44.8506 221H42.7764ZM45.4658 216.351V216.148C45.4658 215.463 45.5654 214.827 45.7646 214.241C45.9639 213.649 46.251 213.137 46.626 212.703C47.001 212.264 47.4551 211.924 47.9883 211.684C48.5215 211.438 49.1191 211.314 49.7812 211.314C50.4492 211.314 51.0498 211.438 51.583 211.684C52.1221 211.924 52.5791 212.264 52.9541 212.703C53.335 213.137 53.625 213.649 53.8242 214.241C54.0234 214.827 54.123 215.463 54.123 216.148V216.351C54.123 217.036 54.0234 217.672 53.8242 218.258C53.625 218.844 53.335 219.356 52.9541 219.796C52.5791 220.229 52.125 220.569 51.5918 220.815C51.0645 221.056 50.4668 221.176 49.7988 221.176C49.1309 221.176 48.5303 221.056 47.9971 220.815C47.4639 220.569 47.0068 220.229 46.626 219.796C46.251 219.356 45.9639 218.844 45.7646 218.258C45.5654 217.672 45.4658 217.036 45.4658 216.351ZM47.0918 216.148V216.351C47.0918 216.825 47.1475 217.273 47.2588 217.695C47.3701 218.111 47.5371 218.48 47.7598 218.803C47.9883 219.125 48.2725 219.38 48.6123 219.567C48.9521 219.749 49.3477 219.84 49.7988 219.84C50.2441 219.84 50.6338 219.749 50.9678 219.567C51.3076 219.38 51.5889 219.125 51.8115 218.803C52.0342 218.48 52.2012 218.111 52.3125 217.695C52.4297 217.273 52.4883 216.825 52.4883 216.351V216.148C52.4883 215.68 52.4297 215.237 52.3125 214.821C52.2012 214.399 52.0312 214.027 51.8027 213.705C51.5801 213.377 51.2988 213.119 50.959 212.932C50.625 212.744 50.2324 212.65 49.7812 212.65C49.3359 212.65 48.9434 212.744 48.6035 212.932C48.2695 213.119 47.9883 213.377 47.7598 213.705C47.5371 214.027 47.3701 214.399 47.2588 214.821C47.1475 215.237 47.0918 215.68 47.0918 216.148ZM61.6289 218.838L64.8633 211.49H66.4277L62.1914 221H61.0664L56.8477 211.49H58.4121L61.6289 218.838ZM57.9375 211.49V221H56.3115V211.49H57.9375ZM65.2676 221V211.49H66.9023V221H65.2676ZM75.8584 211.49V212.835H71.0508V211.49H75.8584ZM71.2881 211.49V221H69.6621V211.49H71.2881ZM77.2998 211.49V221H75.665V211.49H77.2998ZM81.2461 214.76H84.1025C84.8701 214.76 85.5176 214.895 86.0449 215.164C86.5723 215.428 86.9707 215.794 87.2402 216.263C87.5156 216.726 87.6533 217.253 87.6533 217.845C87.6533 218.284 87.5771 218.697 87.4248 219.084C87.2725 219.465 87.0439 219.799 86.7393 220.086C86.4404 220.373 86.0684 220.599 85.623 220.763C85.1836 220.921 84.6768 221 84.1025 221H80.0596V211.49H81.6855V219.664H84.1025C84.5713 219.664 84.9463 219.579 85.2275 219.409C85.5088 219.239 85.7109 219.02 85.834 218.75C85.957 218.48 86.0186 218.199 86.0186 217.906C86.0186 217.619 85.957 217.338 85.834 217.062C85.7109 216.787 85.5088 216.559 85.2275 216.377C84.9463 216.189 84.5713 216.096 84.1025 216.096H81.2461V214.76ZM95.0977 215.524V216.852H90.0439V215.524H95.0977ZM91.459 211.49V221H89.833V211.49H91.459ZM93.709 216.351V216.148C93.709 215.463 93.8086 214.827 94.0078 214.241C94.207 213.649 94.4941 213.137 94.8691 212.703C95.25 212.264 95.7041 211.924 96.2314 211.684C96.7646 211.438 97.3623 211.314 98.0244 211.314C98.6982 211.314 99.3018 211.438 99.835 211.684C100.368 211.924 100.822 212.264 101.197 212.703C101.578 213.137 101.868 213.649 102.067 214.241C102.267 214.827 102.366 215.463 102.366 216.148V216.351C102.366 217.036 102.267 217.672 102.067 218.258C101.868 218.844 101.581 219.356 101.206 219.796C100.831 220.229 100.377 220.569 99.8438 220.815C99.3105 221.056 98.71 221.176 98.042 221.176C97.374 221.176 96.7734 221.056 96.2402 220.815C95.707 220.569 95.25 220.229 94.8691 219.796C94.4941 219.356 94.207 218.844 94.0078 218.258C93.8086 217.672 93.709 217.036 93.709 216.351ZM95.3438 216.148V216.351C95.3438 216.825 95.3994 217.273 95.5107 217.695C95.6221 218.111 95.7891 218.48 96.0117 218.803C96.2402 219.125 96.5215 219.38 96.8555 219.567C97.1953 219.749 97.5908 219.84 98.042 219.84C98.4932 219.84 98.8857 219.749 99.2197 219.567C99.5596 219.38 99.8408 219.125 100.063 218.803C100.286 218.48 100.453 218.111 100.564 217.695C100.682 217.273 100.74 216.825 100.74 216.351V216.148C100.74 215.68 100.682 215.237 100.564 214.821C100.453 214.399 100.283 214.027 100.055 213.705C99.832 213.377 99.5508 213.119 99.2109 212.932C98.8711 212.744 98.4756 212.65 98.0244 212.65C97.5791 212.65 97.1895 212.744 96.8555 212.932C96.5215 213.119 96.2402 213.377 96.0117 213.705C95.7891 214.027 95.6221 214.399 95.5107 214.821C95.3994 215.237 95.3438 215.68 95.3438 216.148ZM108.255 211.49V221H106.62V211.49H108.255ZM111.445 211.49V212.809H103.491V211.49H111.445ZM116.288 221.176C115.626 221.176 115.025 221.064 114.486 220.842C113.953 220.613 113.493 220.294 113.106 219.884C112.726 219.474 112.433 218.987 112.228 218.425C112.022 217.862 111.92 217.247 111.92 216.579V216.21C111.92 215.437 112.034 214.748 112.263 214.145C112.491 213.535 112.802 213.02 113.194 212.598C113.587 212.176 114.032 211.856 114.53 211.64C115.028 211.423 115.544 211.314 116.077 211.314C116.757 211.314 117.343 211.432 117.835 211.666C118.333 211.9 118.74 212.229 119.057 212.65C119.373 213.066 119.607 213.559 119.76 214.127C119.912 214.689 119.988 215.305 119.988 215.973V216.702H112.887V215.375H118.362V215.252C118.339 214.83 118.251 214.42 118.099 214.021C117.952 213.623 117.718 213.295 117.396 213.037C117.073 212.779 116.634 212.65 116.077 212.65C115.708 212.65 115.368 212.729 115.058 212.888C114.747 213.04 114.48 213.269 114.258 213.573C114.035 213.878 113.862 214.25 113.739 214.689C113.616 215.129 113.555 215.636 113.555 216.21V216.579C113.555 217.03 113.616 217.455 113.739 217.854C113.868 218.246 114.053 218.592 114.293 218.891C114.539 219.189 114.835 219.424 115.181 219.594C115.532 219.764 115.931 219.849 116.376 219.849C116.95 219.849 117.437 219.731 117.835 219.497C118.233 219.263 118.582 218.949 118.881 218.557L119.865 219.339C119.66 219.649 119.399 219.945 119.083 220.227C118.767 220.508 118.377 220.736 117.914 220.912C117.457 221.088 116.915 221.176 116.288 221.176ZM123.513 213.318V224.656H121.878V211.49H123.372L123.513 213.318ZM129.92 216.166V216.351C129.92 217.042 129.838 217.684 129.674 218.275C129.51 218.861 129.27 219.371 128.953 219.805C128.643 220.238 128.259 220.575 127.802 220.815C127.345 221.056 126.82 221.176 126.229 221.176C125.625 221.176 125.092 221.076 124.629 220.877C124.166 220.678 123.773 220.388 123.451 220.007C123.129 219.626 122.871 219.169 122.678 218.636C122.49 218.103 122.361 217.502 122.291 216.834V215.85C122.361 215.146 122.493 214.517 122.687 213.96C122.88 213.403 123.135 212.929 123.451 212.536C123.773 212.138 124.163 211.836 124.62 211.631C125.077 211.42 125.604 211.314 126.202 211.314C126.8 211.314 127.33 211.432 127.793 211.666C128.256 211.895 128.646 212.223 128.962 212.65C129.278 213.078 129.516 213.591 129.674 214.188C129.838 214.78 129.92 215.439 129.92 216.166ZM128.285 216.351V216.166C128.285 215.691 128.235 215.246 128.136 214.83C128.036 214.408 127.881 214.039 127.67 213.723C127.465 213.4 127.201 213.148 126.879 212.967C126.557 212.779 126.173 212.686 125.728 212.686C125.317 212.686 124.96 212.756 124.655 212.896C124.356 213.037 124.102 213.228 123.891 213.468C123.68 213.702 123.507 213.972 123.372 214.276C123.243 214.575 123.146 214.886 123.082 215.208V217.484C123.199 217.895 123.363 218.281 123.574 218.645C123.785 219.002 124.066 219.292 124.418 219.515C124.77 219.731 125.212 219.84 125.745 219.84C126.185 219.84 126.562 219.749 126.879 219.567C127.201 219.38 127.465 219.125 127.67 218.803C127.881 218.48 128.036 218.111 128.136 217.695C128.235 217.273 128.285 216.825 128.285 216.351ZM138.445 215.612V216.931H133.418V215.612H138.445ZM133.761 211.49V221H132.135V211.49H133.761ZM139.764 211.49V221H138.129V211.49H139.764ZM143.719 214.76H146.575C147.343 214.76 147.99 214.895 148.518 215.164C149.045 215.428 149.443 215.794 149.713 216.263C149.988 216.726 150.126 217.253 150.126 217.845C150.126 218.284 150.05 218.697 149.897 219.084C149.745 219.465 149.517 219.799 149.212 220.086C148.913 220.373 148.541 220.599 148.096 220.763C147.656 220.921 147.149 221 146.575 221H142.532V211.49H144.158V219.664H146.575C147.044 219.664 147.419 219.579 147.7 219.409C147.981 219.239 148.184 219.02 148.307 218.75C148.43 218.48 148.491 218.199 148.491 217.906C148.491 217.619 148.43 217.338 148.307 217.062C148.184 216.787 147.981 216.559 147.7 216.377C147.419 216.189 147.044 216.096 146.575 216.096H143.719V214.76ZM153.51 211.49V221H151.884V211.49H153.51ZM160.304 221.176C159.642 221.176 159.041 221.064 158.502 220.842C157.969 220.613 157.509 220.294 157.122 219.884C156.741 219.474 156.448 218.987 156.243 218.425C156.038 217.862 155.936 217.247 155.936 216.579V216.21C155.936 215.437 156.05 214.748 156.278 214.145C156.507 213.535 156.817 213.02 157.21 212.598C157.603 212.176 158.048 211.856 158.546 211.64C159.044 211.423 159.56 211.314 160.093 211.314C160.772 211.314 161.358 211.432 161.851 211.666C162.349 211.9 162.756 212.229 163.072 212.65C163.389 213.066 163.623 213.559 163.775 214.127C163.928 214.689 164.004 215.305 164.004 215.973V216.702H156.902V215.375H162.378V215.252C162.354 214.83 162.267 214.42 162.114 214.021C161.968 213.623 161.733 213.295 161.411 213.037C161.089 212.779 160.649 212.65 160.093 212.65C159.724 212.65 159.384 212.729 159.073 212.888C158.763 213.04 158.496 213.269 158.273 213.573C158.051 213.878 157.878 214.25 157.755 214.689C157.632 215.129 157.57 215.636 157.57 216.21V216.579C157.57 217.03 157.632 217.455 157.755 217.854C157.884 218.246 158.068 218.592 158.309 218.891C158.555 219.189 158.851 219.424 159.196 219.594C159.548 219.764 159.946 219.849 160.392 219.849C160.966 219.849 161.452 219.731 161.851 219.497C162.249 219.263 162.598 218.949 162.896 218.557L163.881 219.339C163.676 219.649 163.415 219.945 163.099 220.227C162.782 220.508 162.393 220.736 161.93 220.912C161.473 221.088 160.931 221.176 160.304 221.176ZM80.9824 239.425L85.3682 232.49H87.0029V242H85.3682V235.065L80.9824 242H79.3652V232.49H80.9824V239.425ZM95.7568 232.49V233.835H91.3623V242H89.7363V232.49H95.7568ZM98.7979 234.318V245.656H97.1631V232.49H98.6572L98.7979 234.318ZM105.205 237.166V237.351C105.205 238.042 105.123 238.684 104.959 239.275C104.795 239.861 104.555 240.371 104.238 240.805C103.928 241.238 103.544 241.575 103.087 241.815C102.63 242.056 102.105 242.176 101.514 242.176C100.91 242.176 100.377 242.076 99.9141 241.877C99.4512 241.678 99.0586 241.388 98.7363 241.007C98.4141 240.626 98.1562 240.169 97.9629 239.636C97.7754 239.103 97.6465 238.502 97.5762 237.834V236.85C97.6465 236.146 97.7783 235.517 97.9717 234.96C98.165 234.403 98.4199 233.929 98.7363 233.536C99.0586 233.138 99.4482 232.836 99.9053 232.631C100.362 232.42 100.89 232.314 101.487 232.314C102.085 232.314 102.615 232.432 103.078 232.666C103.541 232.895 103.931 233.223 104.247 233.65C104.563 234.078 104.801 234.591 104.959 235.188C105.123 235.78 105.205 236.439 105.205 237.166ZM103.57 237.351V237.166C103.57 236.691 103.521 236.246 103.421 235.83C103.321 235.408 103.166 235.039 102.955 234.723C102.75 234.4 102.486 234.148 102.164 233.967C101.842 233.779 101.458 233.686 101.013 233.686C100.603 233.686 100.245 233.756 99.9404 233.896C99.6416 234.037 99.3867 234.228 99.1758 234.468C98.9648 234.702 98.792 234.972 98.6572 235.276C98.5283 235.575 98.4316 235.886 98.3672 236.208V238.484C98.4844 238.895 98.6484 239.281 98.8594 239.645C99.0703 240.002 99.3516 240.292 99.7031 240.515C100.055 240.731 100.497 240.84 101.03 240.84C101.47 240.84 101.848 240.749 102.164 240.567C102.486 240.38 102.75 240.125 102.955 239.803C103.166 239.48 103.321 239.111 103.421 238.695C103.521 238.273 103.57 237.825 103.57 237.351ZM108.615 235.76H111.472C112.239 235.76 112.887 235.895 113.414 236.164C113.941 236.428 114.34 236.794 114.609 237.263C114.885 237.726 115.022 238.253 115.022 238.845C115.022 239.284 114.946 239.697 114.794 240.084C114.642 240.465 114.413 240.799 114.108 241.086C113.81 241.373 113.438 241.599 112.992 241.763C112.553 241.921 112.046 242 111.472 242H107.429V232.49H109.055V240.664H111.472C111.94 240.664 112.315 240.579 112.597 240.409C112.878 240.239 113.08 240.02 113.203 239.75C113.326 239.48 113.388 239.199 113.388 238.906C113.388 238.619 113.326 238.338 113.203 238.062C113.08 237.787 112.878 237.559 112.597 237.377C112.315 237.189 111.94 237.096 111.472 237.096H108.615V235.76ZM118.406 232.49V242H116.78V232.49H118.406Z" fill="#272727"/>
</svg>
