<svg width="194" height="249" viewBox="0 0 194 249" fill="none" xmlns="http://www.w3.org/2000/svg">
<rect width="194" height="194" rx="97" fill="#368EF5"/>
<path d="M117.625 69.5H117.694" stroke="white" stroke-width="8" stroke-linecap="round" stroke-linejoin="round"/>
<path d="M131.375 42H62.625C51.2341 42 42 51.2341 42 62.625V131.375C42 142.766 51.2341 152 62.625 152H131.375C142.766 152 152 142.766 152 131.375V62.625C152 51.2341 142.766 42 131.375 42Z" stroke="white" stroke-width="8" stroke-linecap="round" stroke-linejoin="round"/>
<path d="M42 117.625L69.5 90.1249C72.6354 87.1079 76.1921 85.5195 79.8125 85.5195C83.4329 85.5195 86.9896 87.1079 90.125 90.1249L124.5 124.5" stroke="white" stroke-width="8" stroke-linecap="round" stroke-linejoin="round"/>
<path d="M110.75 110.75L117.625 103.875C120.76 100.858 124.317 99.2695 127.937 99.2695C131.558 99.2695 135.115 100.858 138.25 103.875L152 117.625" stroke="white" stroke-width="8" stroke-linecap="round" stroke-linejoin="round"/>
<path d="M14.9023 222.62V224H5.2168V222.62H14.9023ZM5.48926 222.62V227.146H3.81055L3.80176 222.62H5.48926ZM16.3789 222.62L16.3613 227.138H14.6826V222.62H16.3789ZM13.2412 211.203V212.592H7.63379V211.203H13.2412ZM14.7002 211.203V224H13.0127V211.203H14.7002ZM7.05371 211.203H8.75L8.48633 216.354C8.45117 217.127 8.37793 217.842 8.2666 218.498C8.15527 219.148 8.01758 219.743 7.85352 220.282C7.68945 220.821 7.50195 221.305 7.29102 221.732C7.08008 222.154 6.85449 222.521 6.61426 222.831C6.37402 223.136 6.12207 223.388 5.8584 223.587C5.60059 223.78 5.33984 223.918 5.07617 224H4.30273V222.62H4.84766C5 222.456 5.17285 222.219 5.36621 221.908C5.56543 221.598 5.76172 221.196 5.95508 220.704C6.1543 220.206 6.32715 219.6 6.47363 218.885C6.62598 218.17 6.72852 217.326 6.78125 216.354L7.05371 211.203ZM22.5928 219.816H19.4727L19.4551 218.516H22.0039C22.5078 218.516 22.9268 218.466 23.2607 218.366C23.6006 218.267 23.8555 218.117 24.0254 217.918C24.1953 217.719 24.2803 217.473 24.2803 217.18C24.2803 216.951 24.2305 216.752 24.1309 216.582C24.0371 216.406 23.8936 216.263 23.7002 216.151C23.5068 216.034 23.2666 215.949 22.9795 215.896C22.6982 215.838 22.3672 215.809 21.9863 215.809H19.9033V224H18.2773V214.49H21.9863C22.5898 214.49 23.1318 214.543 23.6123 214.648C24.0986 214.754 24.5117 214.915 24.8516 215.132C25.1973 215.343 25.4609 215.612 25.6426 215.94C25.8242 216.269 25.915 216.655 25.915 217.101C25.915 217.388 25.8564 217.66 25.7393 217.918C25.6221 218.176 25.4492 218.404 25.2207 218.604C24.9922 218.803 24.7109 218.967 24.377 219.096C24.043 219.219 23.6592 219.298 23.2256 219.333L22.5928 219.816ZM22.5928 224H18.8838L19.6924 222.682H22.5928C23.0439 222.682 23.4189 222.626 23.7178 222.515C24.0166 222.397 24.2393 222.233 24.3857 222.022C24.5381 221.806 24.6143 221.548 24.6143 221.249C24.6143 220.95 24.5381 220.695 24.3857 220.484C24.2393 220.268 24.0166 220.104 23.7178 219.992C23.4189 219.875 23.0439 219.816 22.5928 219.816H20.123L20.1406 218.516H23.2256L23.8145 219.008C24.3359 219.049 24.7783 219.178 25.1416 219.395C25.5049 219.611 25.7803 219.887 25.9678 220.221C26.1553 220.549 26.249 220.906 26.249 221.293C26.249 221.738 26.1641 222.131 25.9941 222.471C25.8301 222.811 25.5898 223.095 25.2734 223.323C24.957 223.546 24.5732 223.716 24.1221 223.833C23.6709 223.944 23.1611 224 22.5928 224ZM30.9951 223.016L33.6406 214.49H35.3809L31.5664 225.468C31.4785 225.702 31.3613 225.954 31.2148 226.224C31.0742 226.499 30.8926 226.76 30.6699 227.006C30.4473 227.252 30.1777 227.451 29.8613 227.604C29.5508 227.762 29.1787 227.841 28.7451 227.841C28.6162 227.841 28.4521 227.823 28.2529 227.788C28.0537 227.753 27.9131 227.724 27.8311 227.7L27.8223 226.382C27.8691 226.388 27.9424 226.394 28.042 226.399C28.1475 226.411 28.2207 226.417 28.2617 226.417C28.6309 226.417 28.9443 226.367 29.2021 226.268C29.46 226.174 29.6768 226.013 29.8525 225.784C30.0342 225.562 30.1895 225.254 30.3184 224.861L30.9951 223.016ZM29.0527 214.49L31.5225 221.873L31.9443 223.587L30.7754 224.185L27.2773 214.49H29.0527ZM42.3154 221.838L45.5498 214.49H47.1143L42.8779 224H41.7529L37.5342 214.49H39.0986L42.3154 221.838ZM38.624 214.49V224H36.998V214.49H38.624ZM45.9541 224V214.49H47.5889V224H45.9541ZM54.1543 224.176C53.4922 224.176 52.8916 224.064 52.3525 223.842C51.8193 223.613 51.3594 223.294 50.9727 222.884C50.5918 222.474 50.2988 221.987 50.0938 221.425C49.8887 220.862 49.7861 220.247 49.7861 219.579V219.21C49.7861 218.437 49.9004 217.748 50.1289 217.145C50.3574 216.535 50.668 216.02 51.0605 215.598C51.4531 215.176 51.8984 214.856 52.3965 214.64C52.8945 214.423 53.4102 214.314 53.9434 214.314C54.623 214.314 55.209 214.432 55.7012 214.666C56.1992 214.9 56.6064 215.229 56.9229 215.65C57.2393 216.066 57.4736 216.559 57.626 217.127C57.7783 217.689 57.8545 218.305 57.8545 218.973V219.702H50.7529V218.375H56.2285V218.252C56.2051 217.83 56.1172 217.42 55.9648 217.021C55.8184 216.623 55.584 216.295 55.2617 216.037C54.9395 215.779 54.5 215.65 53.9434 215.65C53.5742 215.65 53.2344 215.729 52.9238 215.888C52.6133 216.04 52.3467 216.269 52.124 216.573C51.9014 216.878 51.7285 217.25 51.6055 217.689C51.4824 218.129 51.4209 218.636 51.4209 219.21V219.579C51.4209 220.03 51.4824 220.455 51.6055 220.854C51.7344 221.246 51.9189 221.592 52.1592 221.891C52.4053 222.189 52.7012 222.424 53.0469 222.594C53.3984 222.764 53.7969 222.849 54.2422 222.849C54.8164 222.849 55.3027 222.731 55.7012 222.497C56.0996 222.263 56.4482 221.949 56.7471 221.557L57.7314 222.339C57.5264 222.649 57.2656 222.945 56.9492 223.227C56.6328 223.508 56.2432 223.736 55.7803 223.912C55.3232 224.088 54.7812 224.176 54.1543 224.176ZM61.3789 216.318V227.656H59.7441V214.49H61.2383L61.3789 216.318ZM67.7861 219.166V219.351C67.7861 220.042 67.7041 220.684 67.54 221.275C67.376 221.861 67.1357 222.371 66.8193 222.805C66.5088 223.238 66.125 223.575 65.668 223.815C65.2109 224.056 64.6865 224.176 64.0947 224.176C63.4912 224.176 62.958 224.076 62.4951 223.877C62.0322 223.678 61.6396 223.388 61.3174 223.007C60.9951 222.626 60.7373 222.169 60.5439 221.636C60.3564 221.103 60.2275 220.502 60.1572 219.834V218.85C60.2275 218.146 60.3594 217.517 60.5527 216.96C60.7461 216.403 61.001 215.929 61.3174 215.536C61.6396 215.138 62.0293 214.836 62.4863 214.631C62.9434 214.42 63.4707 214.314 64.0684 214.314C64.666 214.314 65.1963 214.432 65.6592 214.666C66.1221 214.895 66.5117 215.223 66.8281 215.65C67.1445 216.078 67.3818 216.591 67.54 217.188C67.7041 217.78 67.7861 218.439 67.7861 219.166ZM66.1514 219.351V219.166C66.1514 218.691 66.1016 218.246 66.002 217.83C65.9023 217.408 65.7471 217.039 65.5361 216.723C65.3311 216.4 65.0674 216.148 64.7451 215.967C64.4229 215.779 64.0391 215.686 63.5938 215.686C63.1836 215.686 62.8262 215.756 62.5215 215.896C62.2227 216.037 61.9678 216.228 61.7568 216.468C61.5459 216.702 61.373 216.972 61.2383 217.276C61.1094 217.575 61.0127 217.886 60.9482 218.208V220.484C61.0654 220.895 61.2295 221.281 61.4404 221.645C61.6514 222.002 61.9326 222.292 62.2842 222.515C62.6357 222.731 63.0781 222.84 63.6113 222.84C64.0508 222.84 64.4287 222.749 64.7451 222.567C65.0674 222.38 65.3311 222.125 65.5361 221.803C65.7471 221.48 65.9023 221.111 66.002 220.695C66.1016 220.273 66.1514 219.825 66.1514 219.351ZM76.3115 218.612V219.931H71.2842V218.612H76.3115ZM71.627 214.49V224H70.001V214.49H71.627ZM77.6299 214.49V224H75.9951V214.49H77.6299ZM85.8564 222.374V217.479C85.8564 217.104 85.7803 216.778 85.6279 216.503C85.4814 216.222 85.2588 216.005 84.96 215.853C84.6611 215.7 84.292 215.624 83.8525 215.624C83.4424 215.624 83.082 215.694 82.7715 215.835C82.4668 215.976 82.2266 216.16 82.0508 216.389C81.8809 216.617 81.7959 216.863 81.7959 217.127H80.1699C80.1699 216.787 80.2578 216.45 80.4336 216.116C80.6094 215.782 80.8613 215.48 81.1895 215.211C81.5234 214.936 81.9219 214.719 82.3848 214.561C82.8535 214.396 83.375 214.314 83.9492 214.314C84.6406 214.314 85.25 214.432 85.7773 214.666C86.3105 214.9 86.7266 215.255 87.0254 215.729C87.3301 216.198 87.4824 216.787 87.4824 217.496V221.926C87.4824 222.242 87.5088 222.579 87.5615 222.937C87.6201 223.294 87.7051 223.602 87.8164 223.859V224H86.1201C86.0381 223.812 85.9736 223.563 85.9268 223.253C85.8799 222.937 85.8564 222.644 85.8564 222.374ZM86.1377 218.234L86.1553 219.377H84.5117C84.0488 219.377 83.6357 219.415 83.2725 219.491C82.9092 219.562 82.6045 219.67 82.3584 219.816C82.1123 219.963 81.9248 220.147 81.7959 220.37C81.667 220.587 81.6025 220.842 81.6025 221.135C81.6025 221.434 81.6699 221.706 81.8047 221.952C81.9395 222.198 82.1416 222.395 82.4111 222.541C82.6865 222.682 83.0234 222.752 83.4219 222.752C83.9199 222.752 84.3594 222.646 84.7402 222.436C85.1211 222.225 85.4229 221.967 85.6455 221.662C85.874 221.357 85.9971 221.062 86.0146 220.774L86.709 221.557C86.668 221.803 86.5566 222.075 86.375 222.374C86.1934 222.673 85.9502 222.96 85.6455 223.235C85.3467 223.505 84.9893 223.73 84.5732 223.912C84.1631 224.088 83.7002 224.176 83.1846 224.176C82.54 224.176 81.9746 224.05 81.4883 223.798C81.0078 223.546 80.6328 223.209 80.3633 222.787C80.0996 222.359 79.9678 221.882 79.9678 221.354C79.9678 220.845 80.0674 220.396 80.2666 220.01C80.4658 219.617 80.7529 219.292 81.1279 219.034C81.5029 218.771 81.9541 218.571 82.4814 218.437C83.0088 218.302 83.5977 218.234 84.248 218.234H86.1377ZM91.9648 219.465H93.7227L90.9717 224H89.2139L91.9648 219.465ZM93.3271 214.49H97.2998V224H95.6738V215.809H93.3271C92.8643 215.809 92.4863 215.888 92.1934 216.046C91.9004 216.198 91.6865 216.397 91.5518 216.644C91.417 216.89 91.3496 217.145 91.3496 217.408C91.3496 217.666 91.4111 217.915 91.5342 218.155C91.6572 218.39 91.8506 218.583 92.1143 218.735C92.3779 218.888 92.7178 218.964 93.1338 218.964H96.1133V220.3H93.1338C92.5889 220.3 92.1055 220.227 91.6836 220.08C91.2617 219.934 90.9043 219.731 90.6113 219.474C90.3184 219.21 90.0957 218.902 89.9434 218.551C89.791 218.193 89.7148 217.807 89.7148 217.391C89.7148 216.975 89.7939 216.591 89.9521 216.239C90.1162 215.888 90.3506 215.58 90.6553 215.316C90.9658 215.053 91.3438 214.851 91.7891 214.71C92.2402 214.563 92.7529 214.49 93.3271 214.49ZM108.189 222.84C108.576 222.84 108.934 222.761 109.262 222.603C109.59 222.444 109.859 222.228 110.07 221.952C110.281 221.671 110.401 221.352 110.431 220.994H111.978C111.948 221.557 111.758 222.081 111.406 222.567C111.061 223.048 110.606 223.438 110.044 223.736C109.481 224.029 108.863 224.176 108.189 224.176C107.475 224.176 106.851 224.05 106.317 223.798C105.79 223.546 105.351 223.2 104.999 222.761C104.653 222.321 104.393 221.817 104.217 221.249C104.047 220.675 103.962 220.068 103.962 219.43V219.061C103.962 218.422 104.047 217.818 104.217 217.25C104.393 216.676 104.653 216.169 104.999 215.729C105.351 215.29 105.79 214.944 106.317 214.692C106.851 214.44 107.475 214.314 108.189 214.314C108.934 214.314 109.584 214.467 110.141 214.771C110.697 215.07 111.134 215.48 111.45 216.002C111.772 216.518 111.948 217.104 111.978 217.76H110.431C110.401 217.367 110.29 217.013 110.097 216.696C109.909 216.38 109.651 216.128 109.323 215.94C109.001 215.747 108.623 215.65 108.189 215.65C107.691 215.65 107.272 215.75 106.933 215.949C106.599 216.143 106.332 216.406 106.133 216.74C105.939 217.068 105.799 217.435 105.711 217.839C105.629 218.237 105.588 218.645 105.588 219.061V219.43C105.588 219.846 105.629 220.256 105.711 220.66C105.793 221.064 105.931 221.431 106.124 221.759C106.323 222.087 106.59 222.351 106.924 222.55C107.264 222.743 107.686 222.84 108.189 222.84ZM117.682 214.49V224H116.047V214.49H117.682ZM120.872 214.49V215.809H112.918V214.49H120.872ZM127.938 222.374V217.479C127.938 217.104 127.862 216.778 127.71 216.503C127.563 216.222 127.341 216.005 127.042 215.853C126.743 215.7 126.374 215.624 125.935 215.624C125.524 215.624 125.164 215.694 124.854 215.835C124.549 215.976 124.309 216.16 124.133 216.389C123.963 216.617 123.878 216.863 123.878 217.127H122.252C122.252 216.787 122.34 216.45 122.516 216.116C122.691 215.782 122.943 215.48 123.271 215.211C123.605 214.936 124.004 214.719 124.467 214.561C124.936 214.396 125.457 214.314 126.031 214.314C126.723 214.314 127.332 214.432 127.859 214.666C128.393 214.9 128.809 215.255 129.107 215.729C129.412 216.198 129.564 216.787 129.564 217.496V221.926C129.564 222.242 129.591 222.579 129.644 222.937C129.702 223.294 129.787 223.602 129.898 223.859V224H128.202C128.12 223.812 128.056 223.563 128.009 223.253C127.962 222.937 127.938 222.644 127.938 222.374ZM128.22 218.234L128.237 219.377H126.594C126.131 219.377 125.718 219.415 125.354 219.491C124.991 219.562 124.687 219.67 124.44 219.816C124.194 219.963 124.007 220.147 123.878 220.37C123.749 220.587 123.685 220.842 123.685 221.135C123.685 221.434 123.752 221.706 123.887 221.952C124.021 222.198 124.224 222.395 124.493 222.541C124.769 222.682 125.105 222.752 125.504 222.752C126.002 222.752 126.441 222.646 126.822 222.436C127.203 222.225 127.505 221.967 127.728 221.662C127.956 221.357 128.079 221.062 128.097 220.774L128.791 221.557C128.75 221.803 128.639 222.075 128.457 222.374C128.275 222.673 128.032 222.96 127.728 223.235C127.429 223.505 127.071 223.73 126.655 223.912C126.245 224.088 125.782 224.176 125.267 224.176C124.622 224.176 124.057 224.05 123.57 223.798C123.09 223.546 122.715 223.209 122.445 222.787C122.182 222.359 122.05 221.882 122.05 221.354C122.05 220.845 122.149 220.396 122.349 220.01C122.548 219.617 122.835 219.292 123.21 219.034C123.585 218.771 124.036 218.571 124.563 218.437C125.091 218.302 125.68 218.234 126.33 218.234H128.22ZM135.857 214.49V224H134.223V214.49H135.857ZM139.048 214.49V215.809H131.094V214.49H139.048ZM142.405 221.425L146.791 214.49H148.426V224H146.791V217.065L142.405 224H140.788V214.49H142.405V221.425ZM158.208 214.49V224H156.582V214.49H158.208ZM157.654 218.858V220.194C157.326 220.317 156.992 220.429 156.652 220.528C156.318 220.622 155.964 220.698 155.589 220.757C155.22 220.81 154.818 220.836 154.385 220.836C153.635 220.836 152.984 220.707 152.434 220.449C151.883 220.186 151.458 219.79 151.159 219.263C150.86 218.729 150.711 218.059 150.711 217.25V214.473H152.337V217.25C152.337 217.777 152.416 218.205 152.574 218.533C152.732 218.861 152.964 219.104 153.269 219.263C153.573 219.415 153.945 219.491 154.385 219.491C154.807 219.491 155.202 219.465 155.571 219.412C155.946 219.354 156.304 219.277 156.644 219.184C156.989 219.09 157.326 218.981 157.654 218.858ZM167.278 218.612V219.931H162.251V218.612H167.278ZM162.594 214.49V224H160.968V214.49H162.594ZM168.597 214.49V224H166.962V214.49H168.597ZM176.823 222.374V217.479C176.823 217.104 176.747 216.778 176.595 216.503C176.448 216.222 176.226 216.005 175.927 215.853C175.628 215.7 175.259 215.624 174.819 215.624C174.409 215.624 174.049 215.694 173.738 215.835C173.434 215.976 173.193 216.16 173.018 216.389C172.848 216.617 172.763 216.863 172.763 217.127H171.137C171.137 216.787 171.225 216.45 171.4 216.116C171.576 215.782 171.828 215.48 172.156 215.211C172.49 214.936 172.889 214.719 173.352 214.561C173.82 214.396 174.342 214.314 174.916 214.314C175.607 214.314 176.217 214.432 176.744 214.666C177.277 214.9 177.693 215.255 177.992 215.729C178.297 216.198 178.449 216.787 178.449 217.496V221.926C178.449 222.242 178.476 222.579 178.528 222.937C178.587 223.294 178.672 223.602 178.783 223.859V224H177.087C177.005 223.812 176.94 223.563 176.894 223.253C176.847 222.937 176.823 222.644 176.823 222.374ZM177.104 218.234L177.122 219.377H175.479C175.016 219.377 174.603 219.415 174.239 219.491C173.876 219.562 173.571 219.67 173.325 219.816C173.079 219.963 172.892 220.147 172.763 220.37C172.634 220.587 172.569 220.842 172.569 221.135C172.569 221.434 172.637 221.706 172.771 221.952C172.906 222.198 173.108 222.395 173.378 222.541C173.653 222.682 173.99 222.752 174.389 222.752C174.887 222.752 175.326 222.646 175.707 222.436C176.088 222.225 176.39 221.967 176.612 221.662C176.841 221.357 176.964 221.062 176.981 220.774L177.676 221.557C177.635 221.803 177.523 222.075 177.342 222.374C177.16 222.673 176.917 222.96 176.612 223.235C176.313 223.505 175.956 223.73 175.54 223.912C175.13 224.088 174.667 224.176 174.151 224.176C173.507 224.176 172.941 224.05 172.455 223.798C171.975 223.546 171.6 223.209 171.33 222.787C171.066 222.359 170.935 221.882 170.935 221.354C170.935 220.845 171.034 220.396 171.233 220.01C171.433 219.617 171.72 219.292 172.095 219.034C172.47 218.771 172.921 218.571 173.448 218.437C173.976 218.302 174.564 218.234 175.215 218.234H177.104ZM182.932 219.465H184.689L181.938 224H180.181L182.932 219.465ZM184.294 214.49H188.267V224H186.641V215.809H184.294C183.831 215.809 183.453 215.888 183.16 216.046C182.867 216.198 182.653 216.397 182.519 216.644C182.384 216.89 182.316 217.145 182.316 217.408C182.316 217.666 182.378 217.915 182.501 218.155C182.624 218.39 182.817 218.583 183.081 218.735C183.345 218.888 183.685 218.964 184.101 218.964H187.08V220.3H184.101C183.556 220.3 183.072 220.227 182.65 220.08C182.229 219.934 181.871 219.731 181.578 219.474C181.285 219.21 181.062 218.902 180.91 218.551C180.758 218.193 180.682 217.807 180.682 217.391C180.682 216.975 180.761 216.591 180.919 216.239C181.083 215.888 181.317 215.58 181.622 215.316C181.933 215.053 182.311 214.851 182.756 214.71C183.207 214.563 183.72 214.49 184.294 214.49ZM66.4326 235.49V236.835H62.0381V245H60.4121V235.49H66.4326ZM69.4736 237.318V248.656H67.8389V235.49H69.333L69.4736 237.318ZM75.8809 240.166V240.351C75.8809 241.042 75.7988 241.684 75.6348 242.275C75.4707 242.861 75.2305 243.371 74.9141 243.805C74.6035 244.238 74.2197 244.575 73.7627 244.815C73.3057 245.056 72.7812 245.176 72.1895 245.176C71.5859 245.176 71.0527 245.076 70.5898 244.877C70.127 244.678 69.7344 244.388 69.4121 244.007C69.0898 243.626 68.832 243.169 68.6387 242.636C68.4512 242.103 68.3223 241.502 68.252 240.834V239.85C68.3223 239.146 68.4541 238.517 68.6475 237.96C68.8408 237.403 69.0957 236.929 69.4121 236.536C69.7344 236.138 70.124 235.836 70.5811 235.631C71.0381 235.42 71.5654 235.314 72.1631 235.314C72.7607 235.314 73.291 235.432 73.7539 235.666C74.2168 235.895 74.6064 236.223 74.9229 236.65C75.2393 237.078 75.4766 237.591 75.6348 238.188C75.7988 238.78 75.8809 239.439 75.8809 240.166ZM74.2461 240.351V240.166C74.2461 239.691 74.1963 239.246 74.0967 238.83C73.9971 238.408 73.8418 238.039 73.6309 237.723C73.4258 237.4 73.1621 237.148 72.8398 236.967C72.5176 236.779 72.1338 236.686 71.6885 236.686C71.2783 236.686 70.9209 236.756 70.6162 236.896C70.3174 237.037 70.0625 237.228 69.8516 237.468C69.6406 237.702 69.4678 237.972 69.333 238.276C69.2041 238.575 69.1074 238.886 69.043 239.208V241.484C69.1602 241.895 69.3242 242.281 69.5352 242.645C69.7461 243.002 70.0273 243.292 70.3789 243.515C70.7305 243.731 71.1729 243.84 71.7061 243.84C72.1455 243.84 72.5234 243.749 72.8398 243.567C73.1621 243.38 73.4258 243.125 73.6309 242.803C73.8418 242.48 73.9971 242.111 74.0967 241.695C74.1963 241.273 74.2461 240.825 74.2461 240.351ZM83.5625 243.374V238.479C83.5625 238.104 83.4863 237.778 83.334 237.503C83.1875 237.222 82.9648 237.005 82.666 236.853C82.3672 236.7 81.998 236.624 81.5586 236.624C81.1484 236.624 80.7881 236.694 80.4775 236.835C80.1729 236.976 79.9326 237.16 79.7568 237.389C79.5869 237.617 79.502 237.863 79.502 238.127H77.876C77.876 237.787 77.9639 237.45 78.1396 237.116C78.3154 236.782 78.5674 236.48 78.8955 236.211C79.2295 235.936 79.6279 235.719 80.0908 235.561C80.5596 235.396 81.0811 235.314 81.6553 235.314C82.3467 235.314 82.9561 235.432 83.4834 235.666C84.0166 235.9 84.4326 236.255 84.7314 236.729C85.0361 237.198 85.1885 237.787 85.1885 238.496V242.926C85.1885 243.242 85.2148 243.579 85.2676 243.937C85.3262 244.294 85.4111 244.602 85.5225 244.859V245H83.8262C83.7441 244.812 83.6797 244.563 83.6328 244.253C83.5859 243.937 83.5625 243.644 83.5625 243.374ZM83.8438 239.234L83.8613 240.377H82.2178C81.7549 240.377 81.3418 240.415 80.9785 240.491C80.6152 240.562 80.3105 240.67 80.0645 240.816C79.8184 240.963 79.6309 241.147 79.502 241.37C79.373 241.587 79.3086 241.842 79.3086 242.135C79.3086 242.434 79.376 242.706 79.5107 242.952C79.6455 243.198 79.8477 243.395 80.1172 243.541C80.3926 243.682 80.7295 243.752 81.1279 243.752C81.626 243.752 82.0654 243.646 82.4463 243.436C82.8271 243.225 83.1289 242.967 83.3516 242.662C83.5801 242.357 83.7031 242.062 83.7207 241.774L84.415 242.557C84.374 242.803 84.2627 243.075 84.0811 243.374C83.8994 243.673 83.6562 243.96 83.3516 244.235C83.0527 244.505 82.6953 244.73 82.2793 244.912C81.8691 245.088 81.4062 245.176 80.8906 245.176C80.2461 245.176 79.6807 245.05 79.1943 244.798C78.7139 244.546 78.3389 244.209 78.0693 243.787C77.8057 243.359 77.6738 242.882 77.6738 242.354C77.6738 241.845 77.7734 241.396 77.9727 241.01C78.1719 240.617 78.459 240.292 78.834 240.034C79.209 239.771 79.6602 239.571 80.1875 239.437C80.7148 239.302 81.3037 239.234 81.9541 239.234H83.8438ZM98.6797 240.412V240.597C98.6797 241.265 98.6064 241.88 98.46 242.442C98.3135 242.999 98.0938 243.482 97.8008 243.893C97.5137 244.303 97.1562 244.622 96.7285 244.851C96.3008 245.073 95.8057 245.185 95.2432 245.185C94.7803 245.185 94.373 245.123 94.0215 245C93.6699 244.871 93.3711 244.687 93.125 244.446C92.8848 244.206 92.6914 243.919 92.5449 243.585C92.4043 243.245 92.3076 242.864 92.2549 242.442V238.224C92.3076 237.772 92.4043 237.368 92.5449 237.011C92.6914 236.653 92.8848 236.349 93.125 236.097C93.3711 235.845 93.667 235.651 94.0127 235.517C94.3584 235.382 94.7627 235.314 95.2256 235.314C95.6826 235.314 96.0928 235.396 96.4561 235.561C96.8252 235.719 97.1475 235.947 97.4229 236.246C97.7041 236.545 97.9355 236.905 98.1172 237.327C98.3047 237.743 98.4453 238.212 98.5391 238.733C98.6328 239.255 98.6797 239.814 98.6797 240.412ZM97.0537 240.597V240.412C97.0537 240.002 97.0244 239.612 96.9658 239.243C96.9131 238.868 96.8281 238.525 96.7109 238.215C96.5996 237.898 96.4531 237.623 96.2715 237.389C96.0898 237.154 95.8701 236.973 95.6123 236.844C95.3604 236.715 95.0703 236.65 94.7422 236.65C94.3906 236.65 94.0977 236.694 93.8633 236.782C93.6348 236.87 93.4561 236.987 93.3271 237.134C93.1982 237.274 93.1045 237.424 93.0459 237.582V243.093C93.1162 243.222 93.2188 243.345 93.3535 243.462C93.4883 243.573 93.6699 243.667 93.8984 243.743C94.127 243.813 94.4141 243.849 94.7598 243.849C95.1699 243.849 95.5186 243.767 95.8057 243.603C96.0986 243.433 96.3359 243.198 96.5176 242.899C96.7051 242.601 96.8398 242.255 96.9219 241.862C97.0098 241.47 97.0537 241.048 97.0537 240.597ZM87.3857 240.597V240.412C87.3857 239.814 87.4326 239.255 87.5264 238.733C87.6201 238.212 87.7607 237.743 87.9482 237.327C88.1357 236.905 88.3672 236.545 88.6426 236.246C88.9238 235.947 89.2461 235.719 89.6094 235.561C89.9785 235.396 90.3916 235.314 90.8486 235.314C91.2998 235.314 91.6924 235.382 92.0264 235.517C92.3662 235.651 92.6533 235.845 92.8877 236.097C93.1221 236.349 93.3096 236.653 93.4502 237.011C93.5908 237.368 93.6904 237.772 93.749 238.224V242.275C93.6963 242.721 93.5996 243.122 93.459 243.479C93.3184 243.837 93.1309 244.145 92.8965 244.402C92.6621 244.654 92.3721 244.848 92.0264 244.982C91.6865 245.117 91.2881 245.185 90.8311 245.185C90.2686 245.185 89.7734 245.073 89.3457 244.851C88.918 244.622 88.5576 244.303 88.2646 243.893C87.9775 243.482 87.7578 242.999 87.6055 242.442C87.459 241.88 87.3857 241.265 87.3857 240.597ZM89.0205 240.412V240.597C89.0205 241.048 89.0586 241.47 89.1348 241.862C89.2168 242.255 89.3428 242.601 89.5127 242.899C89.6885 243.198 89.917 243.433 90.1982 243.603C90.4795 243.767 90.8252 243.849 91.2354 243.849C91.5869 243.849 91.877 243.805 92.1055 243.717C92.334 243.629 92.5156 243.515 92.6504 243.374C92.7852 243.233 92.8877 243.087 92.958 242.935V237.582C92.8994 237.424 92.8027 237.274 92.668 237.134C92.5391 236.987 92.3604 236.87 92.1318 236.782C91.9033 236.694 91.6104 236.65 91.2529 236.65C90.8428 236.65 90.4941 236.75 90.207 236.949C89.9199 237.148 89.6885 237.421 89.5127 237.767C89.3428 238.112 89.2168 238.514 89.1348 238.971C89.0586 239.422 89.0205 239.902 89.0205 240.412ZM92.1494 248.656V231.5H93.7842V248.656H92.1494ZM102.564 242.425L106.95 235.49H108.585V245H106.95V238.065L102.564 245H100.947V235.49H102.564V242.425ZM112.962 235.49V245H111.336V235.49H112.962ZM119.202 235.49L114.693 240.939H112.417L112.171 239.516H114.034L117.225 235.49H119.202ZM117.453 245L113.955 240.693L115.001 239.516L119.519 245H117.453ZM126.541 243.374V238.479C126.541 238.104 126.465 237.778 126.312 237.503C126.166 237.222 125.943 237.005 125.645 236.853C125.346 236.7 124.977 236.624 124.537 236.624C124.127 236.624 123.767 236.694 123.456 236.835C123.151 236.976 122.911 237.16 122.735 237.389C122.565 237.617 122.48 237.863 122.48 238.127H120.854C120.854 237.787 120.942 237.45 121.118 237.116C121.294 236.782 121.546 236.48 121.874 236.211C122.208 235.936 122.606 235.719 123.069 235.561C123.538 235.396 124.06 235.314 124.634 235.314C125.325 235.314 125.935 235.432 126.462 235.666C126.995 235.9 127.411 236.255 127.71 236.729C128.015 237.198 128.167 237.787 128.167 238.496V242.926C128.167 243.242 128.193 243.579 128.246 243.937C128.305 244.294 128.39 244.602 128.501 244.859V245H126.805C126.723 244.812 126.658 244.563 126.611 244.253C126.564 243.937 126.541 243.644 126.541 243.374ZM126.822 239.234L126.84 240.377H125.196C124.733 240.377 124.32 240.415 123.957 240.491C123.594 240.562 123.289 240.67 123.043 240.816C122.797 240.963 122.609 241.147 122.48 241.37C122.352 241.587 122.287 241.842 122.287 242.135C122.287 242.434 122.354 242.706 122.489 242.952C122.624 243.198 122.826 243.395 123.096 243.541C123.371 243.682 123.708 243.752 124.106 243.752C124.604 243.752 125.044 243.646 125.425 243.436C125.806 243.225 126.107 242.967 126.33 242.662C126.559 242.357 126.682 242.062 126.699 241.774L127.394 242.557C127.353 242.803 127.241 243.075 127.06 243.374C126.878 243.673 126.635 243.96 126.33 244.235C126.031 244.505 125.674 244.73 125.258 244.912C124.848 245.088 124.385 245.176 123.869 245.176C123.225 245.176 122.659 245.05 122.173 244.798C121.692 244.546 121.317 244.209 121.048 243.787C120.784 243.359 120.652 242.882 120.652 242.354C120.652 241.845 120.752 241.396 120.951 241.01C121.15 240.617 121.438 240.292 121.812 240.034C122.188 239.771 122.639 239.571 123.166 239.437C123.693 239.302 124.282 239.234 124.933 239.234H126.822Z" fill="#272727"/>
</svg>
