<svg width="194" height="240" viewBox="0 0 194 240" fill="none" xmlns="http://www.w3.org/2000/svg">
<path d="M59.8857 213.62V215H50.2002V213.62H59.8857ZM50.4727 213.62V218.146H48.7939L48.7852 213.62H50.4727ZM61.3623 213.62L61.3447 218.138H59.666V213.62H61.3623ZM58.2246 202.203V203.592H52.6172V202.203H58.2246ZM59.6836 202.203V215H57.9961V202.203H59.6836ZM52.0371 202.203H53.7334L53.4697 207.354C53.4346 208.127 53.3613 208.842 53.25 209.498C53.1387 210.148 53.001 210.743 52.8369 211.282C52.6729 211.821 52.4854 212.305 52.2744 212.732C52.0635 213.154 51.8379 213.521 51.5977 213.831C51.3574 214.136 51.1055 214.388 50.8418 214.587C50.584 214.78 50.3232 214.918 50.0596 215H49.2861V213.62H49.8311C49.9834 213.456 50.1562 213.219 50.3496 212.908C50.5488 212.598 50.7451 212.196 50.9385 211.704C51.1377 211.206 51.3105 210.6 51.457 209.885C51.6094 209.17 51.7119 208.326 51.7646 207.354L52.0371 202.203ZM67.5762 210.816H64.4561L64.4385 209.516H66.9873C67.4912 209.516 67.9102 209.466 68.2441 209.366C68.584 209.267 68.8389 209.117 69.0088 208.918C69.1787 208.719 69.2637 208.473 69.2637 208.18C69.2637 207.951 69.2139 207.752 69.1143 207.582C69.0205 207.406 68.877 207.263 68.6836 207.151C68.4902 207.034 68.25 206.949 67.9629 206.896C67.6816 206.838 67.3506 206.809 66.9697 206.809H64.8867V215H63.2607V205.49H66.9697C67.5732 205.49 68.1152 205.543 68.5957 205.648C69.082 205.754 69.4951 205.915 69.835 206.132C70.1807 206.343 70.4443 206.612 70.626 206.94C70.8076 207.269 70.8984 207.655 70.8984 208.101C70.8984 208.388 70.8398 208.66 70.7227 208.918C70.6055 209.176 70.4326 209.404 70.2041 209.604C69.9756 209.803 69.6943 209.967 69.3604 210.096C69.0264 210.219 68.6426 210.298 68.209 210.333L67.5762 210.816ZM67.5762 215H63.8672L64.6758 213.682H67.5762C68.0273 213.682 68.4023 213.626 68.7012 213.515C69 213.397 69.2227 213.233 69.3691 213.022C69.5215 212.806 69.5977 212.548 69.5977 212.249C69.5977 211.95 69.5215 211.695 69.3691 211.484C69.2227 211.268 69 211.104 68.7012 210.992C68.4023 210.875 68.0273 210.816 67.5762 210.816H65.1064L65.124 209.516H68.209L68.7979 210.008C69.3193 210.049 69.7617 210.178 70.125 210.395C70.4883 210.611 70.7637 210.887 70.9512 211.221C71.1387 211.549 71.2324 211.906 71.2324 212.293C71.2324 212.738 71.1475 213.131 70.9775 213.471C70.8135 213.811 70.5732 214.095 70.2568 214.323C69.9404 214.546 69.5566 214.716 69.1055 214.833C68.6543 214.944 68.1445 215 67.5762 215ZM75.9785 214.016L78.624 205.49H80.3643L76.5498 216.468C76.4619 216.702 76.3447 216.954 76.1982 217.224C76.0576 217.499 75.876 217.76 75.6533 218.006C75.4307 218.252 75.1611 218.451 74.8447 218.604C74.5342 218.762 74.1621 218.841 73.7285 218.841C73.5996 218.841 73.4355 218.823 73.2363 218.788C73.0371 218.753 72.8965 218.724 72.8145 218.7L72.8057 217.382C72.8525 217.388 72.9258 217.394 73.0254 217.399C73.1309 217.411 73.2041 217.417 73.2451 217.417C73.6143 217.417 73.9277 217.367 74.1855 217.268C74.4434 217.174 74.6602 217.013 74.8359 216.784C75.0176 216.562 75.1729 216.254 75.3018 215.861L75.9785 214.016ZM74.0361 205.49L76.5059 212.873L76.9277 214.587L75.7588 215.185L72.2607 205.49H74.0361ZM87.2988 212.838L90.5332 205.49H92.0977L87.8613 215H86.7363L82.5176 205.49H84.082L87.2988 212.838ZM83.6074 205.49V215H81.9814V205.49H83.6074ZM90.9375 215V205.49H92.5723V215H90.9375ZM99.1377 215.176C98.4756 215.176 97.875 215.064 97.3359 214.842C96.8027 214.613 96.3428 214.294 95.9561 213.884C95.5752 213.474 95.2822 212.987 95.0771 212.425C94.8721 211.862 94.7695 211.247 94.7695 210.579V210.21C94.7695 209.437 94.8838 208.748 95.1123 208.145C95.3408 207.535 95.6514 207.02 96.0439 206.598C96.4365 206.176 96.8818 205.856 97.3799 205.64C97.8779 205.423 98.3936 205.314 98.9268 205.314C99.6064 205.314 100.192 205.432 100.685 205.666C101.183 205.9 101.59 206.229 101.906 206.65C102.223 207.066 102.457 207.559 102.609 208.127C102.762 208.689 102.838 209.305 102.838 209.973V210.702H95.7363V209.375H101.212V209.252C101.188 208.83 101.101 208.42 100.948 208.021C100.802 207.623 100.567 207.295 100.245 207.037C99.9229 206.779 99.4834 206.65 98.9268 206.65C98.5576 206.65 98.2178 206.729 97.9072 206.888C97.5967 207.04 97.3301 207.269 97.1074 207.573C96.8848 207.878 96.7119 208.25 96.5889 208.689C96.4658 209.129 96.4043 209.636 96.4043 210.21V210.579C96.4043 211.03 96.4658 211.455 96.5889 211.854C96.7178 212.246 96.9023 212.592 97.1426 212.891C97.3887 213.189 97.6846 213.424 98.0303 213.594C98.3818 213.764 98.7803 213.849 99.2256 213.849C99.7998 213.849 100.286 213.731 100.685 213.497C101.083 213.263 101.432 212.949 101.73 212.557L102.715 213.339C102.51 213.649 102.249 213.945 101.933 214.227C101.616 214.508 101.227 214.736 100.764 214.912C100.307 215.088 99.7646 215.176 99.1377 215.176ZM106.362 207.318V218.656H104.728V205.49H106.222L106.362 207.318ZM112.77 210.166V210.351C112.77 211.042 112.688 211.684 112.523 212.275C112.359 212.861 112.119 213.371 111.803 213.805C111.492 214.238 111.108 214.575 110.651 214.815C110.194 215.056 109.67 215.176 109.078 215.176C108.475 215.176 107.941 215.076 107.479 214.877C107.016 214.678 106.623 214.388 106.301 214.007C105.979 213.626 105.721 213.169 105.527 212.636C105.34 212.103 105.211 211.502 105.141 210.834V209.85C105.211 209.146 105.343 208.517 105.536 207.96C105.729 207.403 105.984 206.929 106.301 206.536C106.623 206.138 107.013 205.836 107.47 205.631C107.927 205.42 108.454 205.314 109.052 205.314C109.649 205.314 110.18 205.432 110.643 205.666C111.105 205.895 111.495 206.223 111.812 206.65C112.128 207.078 112.365 207.591 112.523 208.188C112.688 208.78 112.77 209.439 112.77 210.166ZM111.135 210.351V210.166C111.135 209.691 111.085 209.246 110.985 208.83C110.886 208.408 110.73 208.039 110.52 207.723C110.314 207.4 110.051 207.148 109.729 206.967C109.406 206.779 109.022 206.686 108.577 206.686C108.167 206.686 107.81 206.756 107.505 206.896C107.206 207.037 106.951 207.228 106.74 207.468C106.529 207.702 106.356 207.972 106.222 208.276C106.093 208.575 105.996 208.886 105.932 209.208V211.484C106.049 211.895 106.213 212.281 106.424 212.645C106.635 213.002 106.916 213.292 107.268 213.515C107.619 213.731 108.062 213.84 108.595 213.84C109.034 213.84 109.412 213.749 109.729 213.567C110.051 213.38 110.314 213.125 110.52 212.803C110.73 212.48 110.886 212.111 110.985 211.695C111.085 211.273 111.135 210.825 111.135 210.351ZM121.295 209.612V210.931H116.268V209.612H121.295ZM116.61 205.49V215H114.984V205.49H116.61ZM122.613 205.49V215H120.979V205.49H122.613ZM130.84 213.374V208.479C130.84 208.104 130.764 207.778 130.611 207.503C130.465 207.222 130.242 207.005 129.943 206.853C129.645 206.7 129.275 206.624 128.836 206.624C128.426 206.624 128.065 206.694 127.755 206.835C127.45 206.976 127.21 207.16 127.034 207.389C126.864 207.617 126.779 207.863 126.779 208.127H125.153C125.153 207.787 125.241 207.45 125.417 207.116C125.593 206.782 125.845 206.48 126.173 206.211C126.507 205.936 126.905 205.719 127.368 205.561C127.837 205.396 128.358 205.314 128.933 205.314C129.624 205.314 130.233 205.432 130.761 205.666C131.294 205.9 131.71 206.255 132.009 206.729C132.313 207.198 132.466 207.787 132.466 208.496V212.926C132.466 213.242 132.492 213.579 132.545 213.937C132.604 214.294 132.688 214.602 132.8 214.859V215H131.104C131.021 214.812 130.957 214.563 130.91 214.253C130.863 213.937 130.84 213.644 130.84 213.374ZM131.121 209.234L131.139 210.377H129.495C129.032 210.377 128.619 210.415 128.256 210.491C127.893 210.562 127.588 210.67 127.342 210.816C127.096 210.963 126.908 211.147 126.779 211.37C126.65 211.587 126.586 211.842 126.586 212.135C126.586 212.434 126.653 212.706 126.788 212.952C126.923 213.198 127.125 213.395 127.395 213.541C127.67 213.682 128.007 213.752 128.405 213.752C128.903 213.752 129.343 213.646 129.724 213.436C130.104 213.225 130.406 212.967 130.629 212.662C130.857 212.357 130.98 212.062 130.998 211.774L131.692 212.557C131.651 212.803 131.54 213.075 131.358 213.374C131.177 213.673 130.934 213.96 130.629 214.235C130.33 214.505 129.973 214.73 129.557 214.912C129.146 215.088 128.684 215.176 128.168 215.176C127.523 215.176 126.958 215.05 126.472 214.798C125.991 214.546 125.616 214.209 125.347 213.787C125.083 213.359 124.951 212.882 124.951 212.354C124.951 211.845 125.051 211.396 125.25 211.01C125.449 210.617 125.736 210.292 126.111 210.034C126.486 209.771 126.938 209.571 127.465 209.437C127.992 209.302 128.581 209.234 129.231 209.234H131.121ZM136.948 210.465H138.706L135.955 215H134.197L136.948 210.465ZM138.311 205.49H142.283V215H140.657V206.809H138.311C137.848 206.809 137.47 206.888 137.177 207.046C136.884 207.198 136.67 207.397 136.535 207.644C136.4 207.89 136.333 208.145 136.333 208.408C136.333 208.666 136.395 208.915 136.518 209.155C136.641 209.39 136.834 209.583 137.098 209.735C137.361 209.888 137.701 209.964 138.117 209.964H141.097V211.3H138.117C137.572 211.3 137.089 211.227 136.667 211.08C136.245 210.934 135.888 210.731 135.595 210.474C135.302 210.21 135.079 209.902 134.927 209.551C134.774 209.193 134.698 208.807 134.698 208.391C134.698 207.975 134.777 207.591 134.936 207.239C135.1 206.888 135.334 206.58 135.639 206.316C135.949 206.053 136.327 205.851 136.772 205.71C137.224 205.563 137.736 205.49 138.311 205.49ZM60.5186 234.374V229.479C60.5186 229.104 60.4424 228.778 60.29 228.503C60.1436 228.222 59.9209 228.005 59.6221 227.853C59.3232 227.7 58.9541 227.624 58.5146 227.624C58.1045 227.624 57.7441 227.694 57.4336 227.835C57.1289 227.976 56.8887 228.16 56.7129 228.389C56.543 228.617 56.458 228.863 56.458 229.127H54.832C54.832 228.787 54.9199 228.45 55.0957 228.116C55.2715 227.782 55.5234 227.48 55.8516 227.211C56.1855 226.936 56.584 226.719 57.0469 226.561C57.5156 226.396 58.0371 226.314 58.6113 226.314C59.3027 226.314 59.9121 226.432 60.4395 226.666C60.9727 226.9 61.3887 227.255 61.6875 227.729C61.9922 228.198 62.1445 228.787 62.1445 229.496V233.926C62.1445 234.242 62.1709 234.579 62.2236 234.937C62.2822 235.294 62.3672 235.602 62.4785 235.859V236H60.7822C60.7002 235.812 60.6357 235.563 60.5889 235.253C60.542 234.937 60.5186 234.644 60.5186 234.374ZM60.7998 230.234L60.8174 231.377H59.1738C58.7109 231.377 58.2979 231.415 57.9346 231.491C57.5713 231.562 57.2666 231.67 57.0205 231.816C56.7744 231.963 56.5869 232.147 56.458 232.37C56.3291 232.587 56.2646 232.842 56.2646 233.135C56.2646 233.434 56.332 233.706 56.4668 233.952C56.6016 234.198 56.8037 234.395 57.0732 234.541C57.3486 234.682 57.6855 234.752 58.084 234.752C58.582 234.752 59.0215 234.646 59.4023 234.436C59.7832 234.225 60.085 233.967 60.3076 233.662C60.5361 233.357 60.6592 233.062 60.6768 232.774L61.3711 233.557C61.3301 233.803 61.2188 234.075 61.0371 234.374C60.8555 234.673 60.6123 234.96 60.3076 235.235C60.0088 235.505 59.6514 235.73 59.2354 235.912C58.8252 236.088 58.3623 236.176 57.8467 236.176C57.2021 236.176 56.6367 236.05 56.1504 235.798C55.6699 235.546 55.2949 235.209 55.0254 234.787C54.7617 234.359 54.6299 233.882 54.6299 233.354C54.6299 232.845 54.7295 232.396 54.9287 232.01C55.1279 231.617 55.415 231.292 55.79 231.034C56.165 230.771 56.6162 230.571 57.1436 230.437C57.6709 230.302 58.2598 230.234 58.9102 230.234H60.7998ZM71.1533 230.612V231.931H66.126V230.612H71.1533ZM66.4688 226.49V236H64.8428V226.49H66.4688ZM72.4717 226.49V236H70.8369V226.49H72.4717ZM76.8486 233.425L81.2344 226.49H82.8691V236H81.2344V229.065L76.8486 236H75.2314V226.49H76.8486V233.425ZM90.9463 233.838L94.1807 226.49H95.7451L91.5088 236H90.3838L86.165 226.49H87.7295L90.9463 233.838ZM87.2549 226.49V236H85.6289V226.49H87.2549ZM94.585 236V226.49H96.2197V236H94.585ZM104.446 234.374V229.479C104.446 229.104 104.37 228.778 104.218 228.503C104.071 228.222 103.849 228.005 103.55 227.853C103.251 227.7 102.882 227.624 102.442 227.624C102.032 227.624 101.672 227.694 101.361 227.835C101.057 227.976 100.816 228.16 100.641 228.389C100.471 228.617 100.386 228.863 100.386 229.127H98.7598C98.7598 228.787 98.8477 228.45 99.0234 228.116C99.1992 227.782 99.4512 227.48 99.7793 227.211C100.113 226.936 100.512 226.719 100.975 226.561C101.443 226.396 101.965 226.314 102.539 226.314C103.23 226.314 103.84 226.432 104.367 226.666C104.9 226.9 105.316 227.255 105.615 227.729C105.92 228.198 106.072 228.787 106.072 229.496V233.926C106.072 234.242 106.099 234.579 106.151 234.937C106.21 235.294 106.295 235.602 106.406 235.859V236H104.71C104.628 235.812 104.563 235.563 104.517 235.253C104.47 234.937 104.446 234.644 104.446 234.374ZM104.728 230.234L104.745 231.377H103.102C102.639 231.377 102.226 231.415 101.862 231.491C101.499 231.562 101.194 231.67 100.948 231.816C100.702 231.963 100.515 232.147 100.386 232.37C100.257 232.587 100.192 232.842 100.192 233.135C100.192 233.434 100.26 233.706 100.395 233.952C100.529 234.198 100.731 234.395 101.001 234.541C101.276 234.682 101.613 234.752 102.012 234.752C102.51 234.752 102.949 234.646 103.33 234.436C103.711 234.225 104.013 233.967 104.235 233.662C104.464 233.357 104.587 233.062 104.604 232.774L105.299 233.557C105.258 233.803 105.146 234.075 104.965 234.374C104.783 234.673 104.54 234.96 104.235 235.235C103.937 235.505 103.579 235.73 103.163 235.912C102.753 236.088 102.29 236.176 101.774 236.176C101.13 236.176 100.564 236.05 100.078 235.798C99.5977 235.546 99.2227 235.209 98.9531 234.787C98.6895 234.359 98.5576 233.882 98.5576 233.354C98.5576 232.845 98.6572 232.396 98.8564 232.01C99.0557 231.617 99.3428 231.292 99.7178 231.034C100.093 230.771 100.544 230.571 101.071 230.437C101.599 230.302 102.188 230.234 102.838 230.234H104.728ZM108.771 236V226.49H110.396V234.664H114.773V226.49H116.408V236H108.771ZM117.533 234.664L117.375 238.821H115.925V236H114.686V234.664H117.533ZM121.058 233.425L125.443 226.49H127.078V236H125.443V229.065L121.058 236H119.44V226.49H121.058V233.425ZM131.613 231.465H133.371L130.62 236H128.862L131.613 231.465ZM132.976 226.49H136.948V236H135.322V227.809H132.976C132.513 227.809 132.135 227.888 131.842 228.046C131.549 228.198 131.335 228.397 131.2 228.644C131.065 228.89 130.998 229.145 130.998 229.408C130.998 229.666 131.06 229.915 131.183 230.155C131.306 230.39 131.499 230.583 131.763 230.735C132.026 230.888 132.366 230.964 132.782 230.964H135.762V232.3H132.782C132.237 232.3 131.754 232.227 131.332 232.08C130.91 231.934 130.553 231.731 130.26 231.474C129.967 231.21 129.744 230.902 129.592 230.551C129.439 230.193 129.363 229.807 129.363 229.391C129.363 228.975 129.442 228.591 129.601 228.239C129.765 227.888 129.999 227.58 130.304 227.316C130.614 227.053 130.992 226.851 131.438 226.71C131.889 226.563 132.401 226.49 132.976 226.49Z" fill="#272727"/>
<rect width="194" height="194" rx="97" fill="#368EF5"/>
<path fill-rule="evenodd" clip-rule="evenodd" d="M125.572 54.2387C117.115 48.5877 107.172 45.5714 97 45.5714C83.3603 45.5714 70.2793 50.9898 60.6345 60.6345C50.9898 70.2792 45.5715 83.3603 45.5715 97C45.5715 107.172 48.5877 117.115 54.2387 125.572C59.8898 134.03 67.9218 140.621 77.3192 144.514C86.7165 148.406 97.0571 149.425 107.033 147.44C117.009 145.456 126.173 140.558 133.365 133.365C140.558 126.173 145.456 117.009 147.44 107.033C149.425 97.057 148.406 86.7165 144.514 77.3191C140.621 67.9218 134.03 59.8897 125.572 54.2387ZM63.6658 47.1118C73.5327 40.5189 85.1331 37 97 37C112.913 37 128.174 43.3214 139.426 54.5736C150.679 65.8258 157 81.087 157 97C157 108.867 153.481 120.467 146.888 130.334C140.295 140.201 130.925 147.891 119.961 152.433C108.997 156.974 96.9334 158.162 85.2946 155.847C73.6557 153.532 62.9648 147.818 54.5736 139.426C46.1825 131.035 40.468 120.344 38.1529 108.705C35.8378 97.0665 37.026 85.0025 41.5673 74.039C46.1085 63.0754 53.7989 53.7047 63.6658 47.1118ZM72.5408 125.745C73.3445 126.549 74.4346 127 75.5712 127C76.2364 126.999 76.8922 126.844 77.4869 126.546L128.915 100.831C129.626 100.475 130.224 99.9281 130.642 99.2514C131.06 98.5748 131.281 97.7953 131.281 97C131.281 96.2048 131.06 95.4253 130.642 94.7486C130.224 94.072 129.626 93.5249 128.915 93.1686L77.4869 67.4543C76.8337 67.1279 76.1079 66.9738 75.3784 67.0067C74.6489 67.0395 73.9399 67.2583 73.3186 67.6421C72.6974 68.0259 72.1845 68.5621 71.8287 69.1998C71.4729 69.8375 71.2859 70.5555 71.2855 71.2858V122.714C71.2855 123.851 71.737 124.941 72.5408 125.745ZM117.417 97L79.8569 115.78V78.22L117.417 97Z" fill="white"/>
</svg>
