<svg width="213" height="247" viewBox="0 0 213 247" fill="none" xmlns="http://www.w3.org/2000/svg">
<rect x="10" width="194" height="194" rx="97" fill="#368EF5"/>
<path d="M130.171 59.5984V63.0984H133.671H155.407C157.566 63.0984 159.629 63.9469 161.143 65.4449C162.657 66.9416 163.5 68.9633 163.5 71.063V130.535C163.5 132.635 162.657 134.657 161.143 136.154C159.629 137.652 157.566 138.5 155.407 138.5H112.986C131.187 135.44 145.135 119.735 145.135 100.802C145.135 79.6752 127.765 62.553 106.497 62.553C85.2278 62.553 67.8709 79.6767 67.8709 100.802C67.8709 119.709 81.7742 135.411 99.9422 138.5H57.5928C55.434 138.5 53.3713 137.652 51.8565 136.154C50.3431 134.657 49.5 132.635 49.5 130.535V71.063C49.5 68.9633 50.3431 66.9416 51.8565 65.4449C53.3713 63.9469 55.434 63.0984 57.5928 63.0984H79.3293H82.8293V59.5984V54.5H130.171V59.5984ZM106.498 81.0118L106.981 81.0118C112.137 81.1336 117.049 83.2122 120.694 86.8162C124.452 90.5313 126.556 95.5621 126.557 100.8C126.557 106.037 124.454 111.069 120.698 114.785C116.94 118.502 111.834 120.597 106.502 120.598C103.864 120.598 101.251 120.085 98.8154 119.087C96.3794 118.09 94.1685 116.628 92.3078 114.789C90.4473 112.949 88.9734 110.767 87.9684 108.369C86.9635 105.971 86.4466 103.401 86.4463 100.807C86.446 98.2135 86.9622 95.6441 87.9665 93.2454C88.9709 90.8467 90.4442 88.6645 92.3043 86.8245C94.1645 84.9845 96.3751 83.5227 98.8108 82.5246C101.247 81.5265 103.859 81.0121 106.498 81.0118Z" stroke="white" stroke-width="7"/>
<path d="M9.3457 217.931H11.0332C10.9453 218.739 10.7139 219.463 10.3389 220.102C9.96387 220.74 9.43359 221.247 8.74805 221.622C8.0625 221.991 7.20703 222.176 6.18164 222.176C5.43164 222.176 4.74902 222.035 4.13379 221.754C3.52441 221.473 3 221.074 2.56055 220.559C2.12109 220.037 1.78125 219.413 1.54102 218.687C1.30664 217.954 1.18945 217.14 1.18945 216.243V214.969C1.18945 214.072 1.30664 213.261 1.54102 212.534C1.78125 211.802 2.12402 211.175 2.56934 210.653C3.02051 210.132 3.5625 209.73 4.19531 209.449C4.82812 209.168 5.54004 209.027 6.33105 209.027C7.29785 209.027 8.11523 209.209 8.7832 209.572C9.45117 209.936 9.96973 210.439 10.3389 211.084C10.7139 211.723 10.9453 212.464 11.0332 213.308H9.3457C9.26367 212.71 9.11133 212.197 8.88867 211.77C8.66602 211.336 8.34961 211.002 7.93945 210.768C7.5293 210.533 6.99316 210.416 6.33105 210.416C5.7627 210.416 5.26172 210.524 4.82812 210.741C4.40039 210.958 4.04004 211.266 3.74707 211.664C3.45996 212.062 3.24316 212.54 3.09668 213.097C2.9502 213.653 2.87695 214.271 2.87695 214.951V216.243C2.87695 216.87 2.94141 217.459 3.07031 218.01C3.20508 218.561 3.40723 219.044 3.67676 219.46C3.94629 219.876 4.28906 220.204 4.70508 220.444C5.12109 220.679 5.61328 220.796 6.18164 220.796C6.90234 220.796 7.47656 220.682 7.9043 220.453C8.33203 220.225 8.6543 219.896 8.87109 219.469C9.09375 219.041 9.25195 218.528 9.3457 217.931ZM19.4355 212.49V213.835H14.6279V212.49H19.4355ZM14.8652 212.49V222H13.2393V212.49H14.8652ZM20.877 212.49V222H19.2422V212.49H20.877ZM27.4336 222.176C26.7715 222.176 26.1709 222.064 25.6318 221.842C25.0986 221.613 24.6387 221.294 24.252 220.884C23.8711 220.474 23.5781 219.987 23.373 219.425C23.168 218.862 23.0654 218.247 23.0654 217.579V217.21C23.0654 216.437 23.1797 215.748 23.4082 215.145C23.6367 214.535 23.9473 214.02 24.3398 213.598C24.7324 213.176 25.1777 212.856 25.6758 212.64C26.1738 212.423 26.6895 212.314 27.2227 212.314C27.9023 212.314 28.4883 212.432 28.9805 212.666C29.4785 212.9 29.8857 213.229 30.2021 213.65C30.5186 214.066 30.7529 214.559 30.9053 215.127C31.0576 215.689 31.1338 216.305 31.1338 216.973V217.702H24.0322V216.375H29.5078V216.252C29.4844 215.83 29.3965 215.42 29.2441 215.021C29.0977 214.623 28.8633 214.295 28.541 214.037C28.2188 213.779 27.7793 213.65 27.2227 213.65C26.8535 213.65 26.5137 213.729 26.2031 213.888C25.8926 214.04 25.626 214.269 25.4033 214.573C25.1807 214.878 25.0078 215.25 24.8848 215.689C24.7617 216.129 24.7002 216.636 24.7002 217.21V217.579C24.7002 218.03 24.7617 218.455 24.8848 218.854C25.0137 219.246 25.1982 219.592 25.4385 219.891C25.6846 220.189 25.9805 220.424 26.3262 220.594C26.6777 220.764 27.0762 220.849 27.5215 220.849C28.0957 220.849 28.582 220.731 28.9805 220.497C29.3789 220.263 29.7275 219.949 30.0264 219.557L31.0107 220.339C30.8057 220.649 30.5449 220.945 30.2285 221.227C29.9121 221.508 29.5225 221.736 29.0596 221.912C28.6025 222.088 28.0605 222.176 27.4336 222.176ZM33.1729 222V212.49H34.7988V220.664H39.1758V212.49H40.8105V222H33.1729ZM41.9355 220.664L41.7773 224.821H40.3271V222H39.0879V220.664H41.9355ZM45.46 219.425L49.8457 212.49H51.4805V222H49.8457V215.065L45.46 222H43.8428V212.49H45.46V219.425ZM59.6982 220.374V215.479C59.6982 215.104 59.6221 214.778 59.4697 214.503C59.3232 214.222 59.1006 214.005 58.8018 213.853C58.5029 213.7 58.1338 213.624 57.6943 213.624C57.2842 213.624 56.9238 213.694 56.6133 213.835C56.3086 213.976 56.0684 214.16 55.8926 214.389C55.7227 214.617 55.6377 214.863 55.6377 215.127H54.0117C54.0117 214.787 54.0996 214.45 54.2754 214.116C54.4512 213.782 54.7031 213.48 55.0312 213.211C55.3652 212.936 55.7637 212.719 56.2266 212.561C56.6953 212.396 57.2168 212.314 57.791 212.314C58.4824 212.314 59.0918 212.432 59.6191 212.666C60.1523 212.9 60.5684 213.255 60.8672 213.729C61.1719 214.198 61.3242 214.787 61.3242 215.496V219.926C61.3242 220.242 61.3506 220.579 61.4033 220.937C61.4619 221.294 61.5469 221.602 61.6582 221.859V222H59.9619C59.8799 221.812 59.8154 221.563 59.7686 221.253C59.7217 220.937 59.6982 220.644 59.6982 220.374ZM59.9795 216.234L59.9971 217.377H58.3535C57.8906 217.377 57.4775 217.415 57.1143 217.491C56.751 217.562 56.4463 217.67 56.2002 217.816C55.9541 217.963 55.7666 218.147 55.6377 218.37C55.5088 218.587 55.4443 218.842 55.4443 219.135C55.4443 219.434 55.5117 219.706 55.6465 219.952C55.7812 220.198 55.9834 220.395 56.2529 220.541C56.5283 220.682 56.8652 220.752 57.2637 220.752C57.7617 220.752 58.2012 220.646 58.582 220.436C58.9629 220.225 59.2646 219.967 59.4873 219.662C59.7158 219.357 59.8389 219.062 59.8564 218.774L60.5508 219.557C60.5098 219.803 60.3984 220.075 60.2168 220.374C60.0352 220.673 59.792 220.96 59.4873 221.235C59.1885 221.505 58.8311 221.73 58.415 221.912C58.0049 222.088 57.542 222.176 57.0264 222.176C56.3818 222.176 55.8164 222.05 55.3301 221.798C54.8496 221.546 54.4746 221.209 54.2051 220.787C53.9414 220.359 53.8096 219.882 53.8096 219.354C53.8096 218.845 53.9092 218.396 54.1084 218.01C54.3076 217.617 54.5947 217.292 54.9697 217.034C55.3447 216.771 55.7959 216.571 56.3232 216.437C56.8506 216.302 57.4395 216.234 58.0898 216.234H59.9795ZM70.2363 212.49V213.835H65.6396V212.49H70.2363ZM71.6689 212.49V222H70.043V212.49H71.6689ZM65.2441 212.49H66.8789L66.6328 217.078C66.5918 217.787 66.5244 218.414 66.4307 218.959C66.3428 219.498 66.2197 219.961 66.0615 220.348C65.9092 220.734 65.7158 221.051 65.4814 221.297C65.2529 221.537 64.9775 221.716 64.6553 221.833C64.333 221.944 63.9609 222 63.5391 222H63.0293V220.567L63.3809 220.541C63.6328 220.523 63.8467 220.465 64.0225 220.365C64.2041 220.266 64.3564 220.119 64.4795 219.926C64.6025 219.727 64.7021 219.472 64.7783 219.161C64.8604 218.851 64.9219 218.481 64.9629 218.054C65.0098 217.626 65.0449 217.128 65.0684 216.56L65.2441 212.49ZM75.624 215.76H78.4805C79.248 215.76 79.8955 215.895 80.4229 216.164C80.9502 216.428 81.3486 216.794 81.6182 217.263C81.8936 217.726 82.0312 218.253 82.0312 218.845C82.0312 219.284 81.9551 219.697 81.8027 220.084C81.6504 220.465 81.4219 220.799 81.1172 221.086C80.8184 221.373 80.4463 221.599 80.001 221.763C79.5615 221.921 79.0547 222 78.4805 222H74.4375V212.49H76.0635V220.664H78.4805C78.9492 220.664 79.3242 220.579 79.6055 220.409C79.8867 220.239 80.0889 220.02 80.2119 219.75C80.335 219.48 80.3965 219.199 80.3965 218.906C80.3965 218.619 80.335 218.338 80.2119 218.062C80.0889 217.787 79.8867 217.559 79.6055 217.377C79.3242 217.189 78.9492 217.096 78.4805 217.096H75.624V215.76ZM90.5127 216.612V217.931H85.4854V216.612H90.5127ZM85.8281 212.49V222H84.2021V212.49H85.8281ZM91.8311 212.49V222H90.1963V212.49H91.8311ZM100.058 220.374V215.479C100.058 215.104 99.9814 214.778 99.8291 214.503C99.6826 214.222 99.46 214.005 99.1611 213.853C98.8623 213.7 98.4932 213.624 98.0537 213.624C97.6436 213.624 97.2832 213.694 96.9727 213.835C96.668 213.976 96.4277 214.16 96.252 214.389C96.082 214.617 95.9971 214.863 95.9971 215.127H94.3711C94.3711 214.787 94.459 214.45 94.6348 214.116C94.8105 213.782 95.0625 213.48 95.3906 213.211C95.7246 212.936 96.123 212.719 96.5859 212.561C97.0547 212.396 97.5762 212.314 98.1504 212.314C98.8418 212.314 99.4512 212.432 99.9785 212.666C100.512 212.9 100.928 213.255 101.227 213.729C101.531 214.198 101.684 214.787 101.684 215.496V219.926C101.684 220.242 101.71 220.579 101.763 220.937C101.821 221.294 101.906 221.602 102.018 221.859V222H100.321C100.239 221.812 100.175 221.563 100.128 221.253C100.081 220.937 100.058 220.644 100.058 220.374ZM100.339 216.234L100.356 217.377H98.7129C98.25 217.377 97.8369 217.415 97.4736 217.491C97.1104 217.562 96.8057 217.67 96.5596 217.816C96.3135 217.963 96.126 218.147 95.9971 218.37C95.8682 218.587 95.8037 218.842 95.8037 219.135C95.8037 219.434 95.8711 219.706 96.0059 219.952C96.1406 220.198 96.3428 220.395 96.6123 220.541C96.8877 220.682 97.2246 220.752 97.623 220.752C98.1211 220.752 98.5605 220.646 98.9414 220.436C99.3223 220.225 99.624 219.967 99.8467 219.662C100.075 219.357 100.198 219.062 100.216 218.774L100.91 219.557C100.869 219.803 100.758 220.075 100.576 220.374C100.395 220.673 100.151 220.96 99.8467 221.235C99.5479 221.505 99.1904 221.73 98.7744 221.912C98.3643 222.088 97.9014 222.176 97.3857 222.176C96.7412 222.176 96.1758 222.05 95.6895 221.798C95.209 221.546 94.834 221.209 94.5645 220.787C94.3008 220.359 94.1689 219.882 94.1689 219.354C94.1689 218.845 94.2686 218.396 94.4678 218.01C94.667 217.617 94.9541 217.292 95.3291 217.034C95.7041 216.771 96.1553 216.571 96.6826 216.437C97.21 216.302 97.7988 216.234 98.4492 216.234H100.339ZM106.166 217.465H107.924L105.173 222H103.415L106.166 217.465ZM107.528 212.49H111.501V222H109.875V213.809H107.528C107.065 213.809 106.688 213.888 106.395 214.046C106.102 214.198 105.888 214.397 105.753 214.644C105.618 214.89 105.551 215.145 105.551 215.408C105.551 215.666 105.612 215.915 105.735 216.155C105.858 216.39 106.052 216.583 106.315 216.735C106.579 216.888 106.919 216.964 107.335 216.964H110.314V218.3H107.335C106.79 218.3 106.307 218.227 105.885 218.08C105.463 217.934 105.105 217.731 104.812 217.474C104.52 217.21 104.297 216.902 104.145 216.551C103.992 216.193 103.916 215.807 103.916 215.391C103.916 214.975 103.995 214.591 104.153 214.239C104.317 213.888 104.552 213.58 104.856 213.316C105.167 213.053 105.545 212.851 105.99 212.71C106.441 212.563 106.954 212.49 107.528 212.49ZM125.036 216.612V217.931H120.009V216.612H125.036ZM120.352 212.49V222H118.726V212.49H120.352ZM126.354 212.49V222H124.72V212.49H126.354ZM128.543 217.351V217.148C128.543 216.463 128.643 215.827 128.842 215.241C129.041 214.649 129.328 214.137 129.703 213.703C130.078 213.264 130.532 212.924 131.065 212.684C131.599 212.438 132.196 212.314 132.858 212.314C133.526 212.314 134.127 212.438 134.66 212.684C135.199 212.924 135.656 213.264 136.031 213.703C136.412 214.137 136.702 214.649 136.901 215.241C137.101 215.827 137.2 216.463 137.2 217.148V217.351C137.2 218.036 137.101 218.672 136.901 219.258C136.702 219.844 136.412 220.356 136.031 220.796C135.656 221.229 135.202 221.569 134.669 221.815C134.142 222.056 133.544 222.176 132.876 222.176C132.208 222.176 131.607 222.056 131.074 221.815C130.541 221.569 130.084 221.229 129.703 220.796C129.328 220.356 129.041 219.844 128.842 219.258C128.643 218.672 128.543 218.036 128.543 217.351ZM130.169 217.148V217.351C130.169 217.825 130.225 218.273 130.336 218.695C130.447 219.111 130.614 219.48 130.837 219.803C131.065 220.125 131.35 220.38 131.689 220.567C132.029 220.749 132.425 220.84 132.876 220.84C133.321 220.84 133.711 220.749 134.045 220.567C134.385 220.38 134.666 220.125 134.889 219.803C135.111 219.48 135.278 219.111 135.39 218.695C135.507 218.273 135.565 217.825 135.565 217.351V217.148C135.565 216.68 135.507 216.237 135.39 215.821C135.278 215.399 135.108 215.027 134.88 214.705C134.657 214.377 134.376 214.119 134.036 213.932C133.702 213.744 133.31 213.65 132.858 213.65C132.413 213.65 132.021 213.744 131.681 213.932C131.347 214.119 131.065 214.377 130.837 214.705C130.614 215.027 130.447 215.399 130.336 215.821C130.225 216.237 130.169 216.68 130.169 217.148ZM144.706 219.838L147.94 212.49H149.505L145.269 222H144.144L139.925 212.49H141.489L144.706 219.838ZM141.015 212.49V222H139.389V212.49H141.015ZM148.345 222V212.49H149.979V222H148.345ZM154.356 219.425L158.742 212.49H160.377V222H158.742V215.065L154.356 222H152.739V212.49H154.356V219.425ZM169.438 216.612V217.931H164.411V216.612H169.438ZM164.754 212.49V222H163.128V212.49H164.754ZM170.757 212.49V222H169.122V212.49H170.757ZM178.983 220.374V215.479C178.983 215.104 178.907 214.778 178.755 214.503C178.608 214.222 178.386 214.005 178.087 213.853C177.788 213.7 177.419 213.624 176.979 213.624C176.569 213.624 176.209 213.694 175.898 213.835C175.594 213.976 175.354 214.16 175.178 214.389C175.008 214.617 174.923 214.863 174.923 215.127H173.297C173.297 214.787 173.385 214.45 173.561 214.116C173.736 213.782 173.988 213.48 174.316 213.211C174.65 212.936 175.049 212.719 175.512 212.561C175.98 212.396 176.502 212.314 177.076 212.314C177.768 212.314 178.377 212.432 178.904 212.666C179.438 212.9 179.854 213.255 180.152 213.729C180.457 214.198 180.609 214.787 180.609 215.496V219.926C180.609 220.242 180.636 220.579 180.688 220.937C180.747 221.294 180.832 221.602 180.943 221.859V222H179.247C179.165 221.812 179.101 221.563 179.054 221.253C179.007 220.937 178.983 220.644 178.983 220.374ZM179.265 216.234L179.282 217.377H177.639C177.176 217.377 176.763 217.415 176.399 217.491C176.036 217.562 175.731 217.67 175.485 217.816C175.239 217.963 175.052 218.147 174.923 218.37C174.794 218.587 174.729 218.842 174.729 219.135C174.729 219.434 174.797 219.706 174.932 219.952C175.066 220.198 175.269 220.395 175.538 220.541C175.813 220.682 176.15 220.752 176.549 220.752C177.047 220.752 177.486 220.646 177.867 220.436C178.248 220.225 178.55 219.967 178.772 219.662C179.001 219.357 179.124 219.062 179.142 218.774L179.836 219.557C179.795 219.803 179.684 220.075 179.502 220.374C179.32 220.673 179.077 220.96 178.772 221.235C178.474 221.505 178.116 221.73 177.7 221.912C177.29 222.088 176.827 222.176 176.312 222.176C175.667 222.176 175.102 222.05 174.615 221.798C174.135 221.546 173.76 221.209 173.49 220.787C173.227 220.359 173.095 219.882 173.095 219.354C173.095 218.845 173.194 218.396 173.394 218.01C173.593 217.617 173.88 217.292 174.255 217.034C174.63 216.771 175.081 216.571 175.608 216.437C176.136 216.302 176.725 216.234 177.375 216.234H179.265ZM183.308 222V212.49H184.934V220.664H189.311V212.49H190.945V222H183.308ZM192.07 220.664L191.912 224.821H190.462V222H189.223V220.664H192.07ZM195.595 219.425L199.98 212.49H201.615V222H199.98V215.065L195.595 222H193.978V212.49H195.595V219.425ZM206.15 217.465H207.908L205.157 222H203.399L206.15 217.465ZM207.513 212.49H211.485V222H209.859V213.809H207.513C207.05 213.809 206.672 213.888 206.379 214.046C206.086 214.198 205.872 214.397 205.737 214.644C205.603 214.89 205.535 215.145 205.535 215.408C205.535 215.666 205.597 215.915 205.72 216.155C205.843 216.39 206.036 216.583 206.3 216.735C206.563 216.888 206.903 216.964 207.319 216.964H210.299V218.3H207.319C206.774 218.3 206.291 218.227 205.869 218.08C205.447 217.934 205.09 217.731 204.797 217.474C204.504 217.21 204.281 216.902 204.129 216.551C203.977 216.193 203.9 215.807 203.9 215.391C203.9 214.975 203.979 214.591 204.138 214.239C204.302 213.888 204.536 213.58 204.841 213.316C205.151 213.053 205.529 212.851 205.975 212.71C206.426 212.563 206.938 212.49 207.513 212.49ZM38.3408 234.686L36.0469 238.219L34.5 238.21V238.096L37.0928 234.686H38.3408ZM36.0469 238.14L38.3408 241.682H37.0928L34.5 238.263V238.148L36.0469 238.14ZM41.25 234.686L38.9561 238.219L37.4092 238.21V238.096L40.002 234.686H41.25ZM38.9561 238.14L41.25 241.682H40.002L37.4092 238.263V238.148L38.9561 238.14ZM47.9912 231.478H50.1094C50.8477 231.478 51.5303 231.604 52.1572 231.855C52.79 232.102 53.3408 232.453 53.8096 232.91C54.2842 233.367 54.6533 233.912 54.917 234.545C55.1807 235.172 55.3125 235.866 55.3125 236.628C55.3125 237.39 55.1807 238.087 54.917 238.72C54.6533 239.353 54.2842 239.9 53.8096 240.363C53.3408 240.82 52.79 241.175 52.1572 241.427C51.5303 241.673 50.8477 241.796 50.1094 241.796H47.9912C47.2529 241.796 46.5703 241.673 45.9434 241.427C45.3164 241.175 44.7656 240.82 44.291 240.363C43.8223 239.906 43.4561 239.364 43.1924 238.737C42.9346 238.104 42.8057 237.407 42.8057 236.646C42.8057 235.884 42.9346 235.189 43.1924 234.562C43.4561 233.93 43.8223 233.385 44.291 232.928C44.7656 232.465 45.3164 232.107 45.9434 231.855C46.5703 231.604 47.2529 231.478 47.9912 231.478ZM47.9912 232.813C47.2236 232.813 46.5732 232.975 46.04 233.297C45.5068 233.613 45.1025 234.059 44.8271 234.633C44.5518 235.207 44.4141 235.878 44.4141 236.646C44.4141 237.226 44.4902 237.75 44.6426 238.219C44.8008 238.688 45.0322 239.089 45.3369 239.423C45.6416 239.757 46.0166 240.015 46.4619 240.196C46.9072 240.378 47.417 240.469 47.9912 240.469H50.127C50.8887 240.469 51.5332 240.311 52.0605 239.994C52.5938 239.672 52.998 239.224 53.2734 238.649C53.5547 238.069 53.6953 237.396 53.6953 236.628C53.6953 236.054 53.6162 235.532 53.458 235.063C53.2998 234.595 53.0684 234.193 52.7637 233.859C52.4648 233.525 52.0928 233.268 51.6475 233.086C51.208 232.904 50.7012 232.813 50.127 232.813H47.9912ZM49.8721 229.676V243.527H48.2461V229.676H49.8721ZM56.7803 238.351V238.148C56.7803 237.463 56.8799 236.827 57.0791 236.241C57.2783 235.649 57.5654 235.137 57.9404 234.703C58.3154 234.264 58.7695 233.924 59.3027 233.684C59.8359 233.438 60.4336 233.314 61.0957 233.314C61.7637 233.314 62.3643 233.438 62.8975 233.684C63.4365 233.924 63.8936 234.264 64.2686 234.703C64.6494 235.137 64.9395 235.649 65.1387 236.241C65.3379 236.827 65.4375 237.463 65.4375 238.148V238.351C65.4375 239.036 65.3379 239.672 65.1387 240.258C64.9395 240.844 64.6494 241.356 64.2686 241.796C63.8936 242.229 63.4395 242.569 62.9062 242.815C62.3789 243.056 61.7812 243.176 61.1133 243.176C60.4453 243.176 59.8447 243.056 59.3115 242.815C58.7783 242.569 58.3213 242.229 57.9404 241.796C57.5654 241.356 57.2783 240.844 57.0791 240.258C56.8799 239.672 56.7803 239.036 56.7803 238.351ZM58.4062 238.148V238.351C58.4062 238.825 58.4619 239.273 58.5732 239.695C58.6846 240.111 58.8516 240.48 59.0742 240.803C59.3027 241.125 59.5869 241.38 59.9268 241.567C60.2666 241.749 60.6621 241.84 61.1133 241.84C61.5586 241.84 61.9482 241.749 62.2822 241.567C62.6221 241.38 62.9033 241.125 63.126 240.803C63.3486 240.48 63.5156 240.111 63.627 239.695C63.7441 239.273 63.8027 238.825 63.8027 238.351V238.148C63.8027 237.68 63.7441 237.237 63.627 236.821C63.5156 236.399 63.3457 236.027 63.1172 235.705C62.8945 235.377 62.6133 235.119 62.2734 234.932C61.9395 234.744 61.5469 234.65 61.0957 234.65C60.6504 234.65 60.2578 234.744 59.918 234.932C59.584 235.119 59.3027 235.377 59.0742 235.705C58.8516 236.027 58.6846 236.399 58.5732 236.821C58.4619 237.237 58.4062 237.68 58.4062 238.148ZM71.1592 233.49V243H69.5244V233.49H71.1592ZM74.3496 233.49V234.809H66.3955V233.49H74.3496ZM75.1494 238.351V238.148C75.1494 237.463 75.249 236.827 75.4482 236.241C75.6475 235.649 75.9346 235.137 76.3096 234.703C76.6846 234.264 77.1387 233.924 77.6719 233.684C78.2051 233.438 78.8027 233.314 79.4648 233.314C80.1328 233.314 80.7334 233.438 81.2666 233.684C81.8057 233.924 82.2627 234.264 82.6377 234.703C83.0186 235.137 83.3086 235.649 83.5078 236.241C83.707 236.827 83.8066 237.463 83.8066 238.148V238.351C83.8066 239.036 83.707 239.672 83.5078 240.258C83.3086 240.844 83.0186 241.356 82.6377 241.796C82.2627 242.229 81.8086 242.569 81.2754 242.815C80.748 243.056 80.1504 243.176 79.4824 243.176C78.8145 243.176 78.2139 243.056 77.6807 242.815C77.1475 242.569 76.6904 242.229 76.3096 241.796C75.9346 241.356 75.6475 240.844 75.4482 240.258C75.249 239.672 75.1494 239.036 75.1494 238.351ZM76.7754 238.148V238.351C76.7754 238.825 76.8311 239.273 76.9424 239.695C77.0537 240.111 77.2207 240.48 77.4434 240.803C77.6719 241.125 77.9561 241.38 78.2959 241.567C78.6357 241.749 79.0312 241.84 79.4824 241.84C79.9277 241.84 80.3174 241.749 80.6514 241.567C80.9912 241.38 81.2725 241.125 81.4951 240.803C81.7178 240.48 81.8848 240.111 81.9961 239.695C82.1133 239.273 82.1719 238.825 82.1719 238.351V238.148C82.1719 237.68 82.1133 237.237 81.9961 236.821C81.8848 236.399 81.7148 236.027 81.4863 235.705C81.2637 235.377 80.9824 235.119 80.6426 234.932C80.3086 234.744 79.916 234.65 79.4648 234.65C79.0195 234.65 78.627 234.744 78.2871 234.932C77.9531 235.119 77.6719 235.377 77.4434 235.705C77.2207 236.027 77.0537 236.399 76.9424 236.821C76.8311 237.237 76.7754 237.68 76.7754 238.148ZM89.3965 238.456H87.6475V237.454H89.2646C89.7158 237.454 90.0732 237.398 90.3369 237.287C90.6006 237.17 90.7881 237.009 90.8994 236.804C91.0107 236.599 91.0664 236.358 91.0664 236.083C91.0664 235.837 91.002 235.605 90.873 235.389C90.75 235.166 90.5508 234.987 90.2754 234.853C90 234.712 89.6309 234.642 89.168 234.642C88.793 234.642 88.4531 234.709 88.1484 234.844C87.8438 234.973 87.6006 235.151 87.4189 235.38C87.2432 235.603 87.1553 235.854 87.1553 236.136H85.5293C85.5293 235.556 85.6934 235.058 86.0215 234.642C86.3555 234.22 86.7979 233.895 87.3486 233.666C87.9053 233.438 88.5117 233.323 89.168 233.323C89.7188 233.323 90.2109 233.385 90.6445 233.508C91.084 233.625 91.4561 233.801 91.7607 234.035C92.0654 234.264 92.2969 234.551 92.4551 234.896C92.6191 235.236 92.7012 235.632 92.7012 236.083C92.7012 236.405 92.625 236.71 92.4727 236.997C92.3203 237.284 92.1006 237.539 91.8135 237.762C91.5264 237.979 91.1777 238.148 90.7676 238.271C90.3633 238.395 89.9062 238.456 89.3965 238.456ZM87.6475 237.841H89.3965C89.9648 237.841 90.4658 237.896 90.8994 238.008C91.333 238.113 91.6963 238.271 91.9893 238.482C92.2822 238.693 92.502 238.954 92.6484 239.265C92.8008 239.569 92.877 239.921 92.877 240.319C92.877 240.765 92.7861 241.166 92.6045 241.523C92.4287 241.875 92.1768 242.174 91.8486 242.42C91.5205 242.666 91.1279 242.854 90.6709 242.982C90.2197 243.111 89.7188 243.176 89.168 243.176C88.5527 243.176 87.9551 243.07 87.375 242.859C86.7949 242.648 86.3174 242.323 85.9424 241.884C85.5674 241.438 85.3799 240.873 85.3799 240.188H87.0059C87.0059 240.475 87.0967 240.747 87.2783 241.005C87.46 241.263 87.7119 241.471 88.0342 241.629C88.3623 241.787 88.7402 241.866 89.168 241.866C89.625 241.866 90.0059 241.796 90.3105 241.655C90.6152 241.515 90.8438 241.327 90.9961 241.093C91.1543 240.858 91.2334 240.604 91.2334 240.328C91.2334 239.971 91.1631 239.684 91.0225 239.467C90.8818 239.25 90.665 239.092 90.3721 238.992C90.085 238.887 89.7158 238.834 89.2646 238.834H87.6475V237.841ZM100.594 241.374V236.479C100.594 236.104 100.518 235.778 100.365 235.503C100.219 235.222 99.9961 235.005 99.6973 234.853C99.3984 234.7 99.0293 234.624 98.5898 234.624C98.1797 234.624 97.8193 234.694 97.5088 234.835C97.2041 234.976 96.9639 235.16 96.7881 235.389C96.6182 235.617 96.5332 235.863 96.5332 236.127H94.9072C94.9072 235.787 94.9951 235.45 95.1709 235.116C95.3467 234.782 95.5986 234.48 95.9268 234.211C96.2607 233.936 96.6592 233.719 97.1221 233.561C97.5908 233.396 98.1123 233.314 98.6865 233.314C99.3779 233.314 99.9873 233.432 100.515 233.666C101.048 233.9 101.464 234.255 101.763 234.729C102.067 235.198 102.22 235.787 102.22 236.496V240.926C102.22 241.242 102.246 241.579 102.299 241.937C102.357 242.294 102.442 242.602 102.554 242.859V243H100.857C100.775 242.812 100.711 242.563 100.664 242.253C100.617 241.937 100.594 241.644 100.594 241.374ZM100.875 237.234L100.893 238.377H99.249C98.7861 238.377 98.373 238.415 98.0098 238.491C97.6465 238.562 97.3418 238.67 97.0957 238.816C96.8496 238.963 96.6621 239.147 96.5332 239.37C96.4043 239.587 96.3398 239.842 96.3398 240.135C96.3398 240.434 96.4072 240.706 96.542 240.952C96.6768 241.198 96.8789 241.395 97.1484 241.541C97.4238 241.682 97.7607 241.752 98.1592 241.752C98.6572 241.752 99.0967 241.646 99.4775 241.436C99.8584 241.225 100.16 240.967 100.383 240.662C100.611 240.357 100.734 240.062 100.752 239.774L101.446 240.557C101.405 240.803 101.294 241.075 101.112 241.374C100.931 241.673 100.688 241.96 100.383 242.235C100.084 242.505 99.7266 242.73 99.3105 242.912C98.9004 243.088 98.4375 243.176 97.9219 243.176C97.2773 243.176 96.7119 243.05 96.2256 242.798C95.7451 242.546 95.3701 242.209 95.1006 241.787C94.8369 241.359 94.7051 240.882 94.7051 240.354C94.7051 239.845 94.8047 239.396 95.0039 239.01C95.2031 238.617 95.4902 238.292 95.8652 238.034C96.2402 237.771 96.6914 237.571 97.2188 237.437C97.7461 237.302 98.335 237.234 98.9854 237.234H100.875ZM106.403 235.318V246.656H104.769V233.49H106.263L106.403 235.318ZM112.811 238.166V238.351C112.811 239.042 112.729 239.684 112.564 240.275C112.4 240.861 112.16 241.371 111.844 241.805C111.533 242.238 111.149 242.575 110.692 242.815C110.235 243.056 109.711 243.176 109.119 243.176C108.516 243.176 107.982 243.076 107.52 242.877C107.057 242.678 106.664 242.388 106.342 242.007C106.02 241.626 105.762 241.169 105.568 240.636C105.381 240.103 105.252 239.502 105.182 238.834V237.85C105.252 237.146 105.384 236.517 105.577 235.96C105.771 235.403 106.025 234.929 106.342 234.536C106.664 234.138 107.054 233.836 107.511 233.631C107.968 233.42 108.495 233.314 109.093 233.314C109.69 233.314 110.221 233.432 110.684 233.666C111.146 233.895 111.536 234.223 111.853 234.65C112.169 235.078 112.406 235.591 112.564 236.188C112.729 236.78 112.811 237.439 112.811 238.166ZM111.176 238.351V238.166C111.176 237.691 111.126 237.246 111.026 236.83C110.927 236.408 110.771 236.039 110.561 235.723C110.355 235.4 110.092 235.148 109.77 234.967C109.447 234.779 109.063 234.686 108.618 234.686C108.208 234.686 107.851 234.756 107.546 234.896C107.247 235.037 106.992 235.228 106.781 235.468C106.57 235.702 106.397 235.972 106.263 236.276C106.134 236.575 106.037 236.886 105.973 237.208V239.484C106.09 239.895 106.254 240.281 106.465 240.645C106.676 241.002 106.957 241.292 107.309 241.515C107.66 241.731 108.103 241.84 108.636 241.84C109.075 241.84 109.453 241.749 109.77 241.567C110.092 241.38 110.355 241.125 110.561 240.803C110.771 240.48 110.927 240.111 111.026 239.695C111.126 239.273 111.176 238.825 111.176 238.351ZM116.643 240.425L121.028 233.49H122.663V243H121.028V236.065L116.643 243H115.025V233.49H116.643V240.425ZM129.079 241.84C129.466 241.84 129.823 241.761 130.151 241.603C130.479 241.444 130.749 241.228 130.96 240.952C131.171 240.671 131.291 240.352 131.32 239.994H132.867C132.838 240.557 132.647 241.081 132.296 241.567C131.95 242.048 131.496 242.438 130.934 242.736C130.371 243.029 129.753 243.176 129.079 243.176C128.364 243.176 127.74 243.05 127.207 242.798C126.68 242.546 126.24 242.2 125.889 241.761C125.543 241.321 125.282 240.817 125.106 240.249C124.937 239.675 124.852 239.068 124.852 238.43V238.061C124.852 237.422 124.937 236.818 125.106 236.25C125.282 235.676 125.543 235.169 125.889 234.729C126.24 234.29 126.68 233.944 127.207 233.692C127.74 233.44 128.364 233.314 129.079 233.314C129.823 233.314 130.474 233.467 131.03 233.771C131.587 234.07 132.023 234.48 132.34 235.002C132.662 235.518 132.838 236.104 132.867 236.76H131.32C131.291 236.367 131.18 236.013 130.986 235.696C130.799 235.38 130.541 235.128 130.213 234.94C129.891 234.747 129.513 234.65 129.079 234.65C128.581 234.65 128.162 234.75 127.822 234.949C127.488 235.143 127.222 235.406 127.022 235.74C126.829 236.068 126.688 236.435 126.601 236.839C126.519 237.237 126.478 237.645 126.478 238.061V238.43C126.478 238.846 126.519 239.256 126.601 239.66C126.683 240.064 126.82 240.431 127.014 240.759C127.213 241.087 127.479 241.351 127.813 241.55C128.153 241.743 128.575 241.84 129.079 241.84ZM134.265 238.351V238.148C134.265 237.463 134.364 236.827 134.563 236.241C134.763 235.649 135.05 235.137 135.425 234.703C135.8 234.264 136.254 233.924 136.787 233.684C137.32 233.438 137.918 233.314 138.58 233.314C139.248 233.314 139.849 233.438 140.382 233.684C140.921 233.924 141.378 234.264 141.753 234.703C142.134 235.137 142.424 235.649 142.623 236.241C142.822 236.827 142.922 237.463 142.922 238.148V238.351C142.922 239.036 142.822 239.672 142.623 240.258C142.424 240.844 142.134 241.356 141.753 241.796C141.378 242.229 140.924 242.569 140.391 242.815C139.863 243.056 139.266 243.176 138.598 243.176C137.93 243.176 137.329 243.056 136.796 242.815C136.263 242.569 135.806 242.229 135.425 241.796C135.05 241.356 134.763 240.844 134.563 240.258C134.364 239.672 134.265 239.036 134.265 238.351ZM135.891 238.148V238.351C135.891 238.825 135.946 239.273 136.058 239.695C136.169 240.111 136.336 240.48 136.559 240.803C136.787 241.125 137.071 241.38 137.411 241.567C137.751 241.749 138.146 241.84 138.598 241.84C139.043 241.84 139.433 241.749 139.767 241.567C140.106 241.38 140.388 241.125 140.61 240.803C140.833 240.48 141 240.111 141.111 239.695C141.229 239.273 141.287 238.825 141.287 238.351V238.148C141.287 237.68 141.229 237.237 141.111 236.821C141 236.399 140.83 236.027 140.602 235.705C140.379 235.377 140.098 235.119 139.758 234.932C139.424 234.744 139.031 234.65 138.58 234.65C138.135 234.65 137.742 234.744 137.402 234.932C137.068 235.119 136.787 235.377 136.559 235.705C136.336 236.027 136.169 236.399 136.058 236.821C135.946 237.237 135.891 237.68 135.891 238.148ZM149.426 238.816H146.306L146.288 237.516H148.837C149.341 237.516 149.76 237.466 150.094 237.366C150.434 237.267 150.688 237.117 150.858 236.918C151.028 236.719 151.113 236.473 151.113 236.18C151.113 235.951 151.063 235.752 150.964 235.582C150.87 235.406 150.727 235.263 150.533 235.151C150.34 235.034 150.1 234.949 149.812 234.896C149.531 234.838 149.2 234.809 148.819 234.809H146.736V243H145.11V233.49H148.819C149.423 233.49 149.965 233.543 150.445 233.648C150.932 233.754 151.345 233.915 151.685 234.132C152.03 234.343 152.294 234.612 152.476 234.94C152.657 235.269 152.748 235.655 152.748 236.101C152.748 236.388 152.689 236.66 152.572 236.918C152.455 237.176 152.282 237.404 152.054 237.604C151.825 237.803 151.544 237.967 151.21 238.096C150.876 238.219 150.492 238.298 150.059 238.333L149.426 238.816ZM149.426 243H145.717L146.525 241.682H149.426C149.877 241.682 150.252 241.626 150.551 241.515C150.85 241.397 151.072 241.233 151.219 241.022C151.371 240.806 151.447 240.548 151.447 240.249C151.447 239.95 151.371 239.695 151.219 239.484C151.072 239.268 150.85 239.104 150.551 238.992C150.252 238.875 149.877 238.816 149.426 238.816H146.956L146.974 237.516H150.059L150.647 238.008C151.169 238.049 151.611 238.178 151.975 238.395C152.338 238.611 152.613 238.887 152.801 239.221C152.988 239.549 153.082 239.906 153.082 240.293C153.082 240.738 152.997 241.131 152.827 241.471C152.663 241.811 152.423 242.095 152.106 242.323C151.79 242.546 151.406 242.716 150.955 242.833C150.504 242.944 149.994 243 149.426 243ZM157.028 233.49V243H155.402V233.49H157.028ZM163.269 233.49L158.76 238.939H156.483L156.237 237.516H158.101L161.291 233.49H163.269ZM161.52 243L158.021 238.693L159.067 237.516L163.585 243H161.52ZM170.607 241.374V236.479C170.607 236.104 170.531 235.778 170.379 235.503C170.232 235.222 170.01 235.005 169.711 234.853C169.412 234.7 169.043 234.624 168.604 234.624C168.193 234.624 167.833 234.694 167.522 234.835C167.218 234.976 166.978 235.16 166.802 235.389C166.632 235.617 166.547 235.863 166.547 236.127H164.921C164.921 235.787 165.009 235.45 165.185 235.116C165.36 234.782 165.612 234.48 165.94 234.211C166.274 233.936 166.673 233.719 167.136 233.561C167.604 233.396 168.126 233.314 168.7 233.314C169.392 233.314 170.001 233.432 170.528 233.666C171.062 233.9 171.478 234.255 171.776 234.729C172.081 235.198 172.233 235.787 172.233 236.496V240.926C172.233 241.242 172.26 241.579 172.312 241.937C172.371 242.294 172.456 242.602 172.567 242.859V243H170.871C170.789 242.812 170.725 242.563 170.678 242.253C170.631 241.937 170.607 241.644 170.607 241.374ZM170.889 237.234L170.906 238.377H169.263C168.8 238.377 168.387 238.415 168.023 238.491C167.66 238.562 167.355 238.67 167.109 238.816C166.863 238.963 166.676 239.147 166.547 239.37C166.418 239.587 166.354 239.842 166.354 240.135C166.354 240.434 166.421 240.706 166.556 240.952C166.69 241.198 166.893 241.395 167.162 241.541C167.438 241.682 167.774 241.752 168.173 241.752C168.671 241.752 169.11 241.646 169.491 241.436C169.872 241.225 170.174 240.967 170.396 240.662C170.625 240.357 170.748 240.062 170.766 239.774L171.46 240.557C171.419 240.803 171.308 241.075 171.126 241.374C170.944 241.673 170.701 241.96 170.396 242.235C170.098 242.505 169.74 242.73 169.324 242.912C168.914 243.088 168.451 243.176 167.936 243.176C167.291 243.176 166.726 243.05 166.239 242.798C165.759 242.546 165.384 242.209 165.114 241.787C164.851 241.359 164.719 240.882 164.719 240.354C164.719 239.845 164.818 239.396 165.018 239.01C165.217 238.617 165.504 238.292 165.879 238.034C166.254 237.771 166.705 237.571 167.232 237.437C167.76 237.302 168.349 237.234 168.999 237.234H170.889ZM175.942 229.5V230.625C175.942 230.977 175.881 231.349 175.758 231.741C175.641 232.128 175.468 232.503 175.239 232.866C175.011 233.224 174.735 233.537 174.413 233.807L173.481 233.165C173.757 232.778 173.965 232.383 174.105 231.979C174.252 231.568 174.325 231.126 174.325 230.651V229.5H175.942ZM178.641 229.5V230.625C178.641 230.977 178.579 231.349 178.456 231.741C178.339 232.128 178.166 232.503 177.938 232.866C177.709 233.224 177.434 233.537 177.111 233.807L176.18 233.165C176.455 232.778 176.663 232.383 176.804 231.979C176.95 231.568 177.023 231.126 177.023 230.651V229.5H178.641Z" fill="#272727"/>
</svg>
