<svg width="194" height="194" viewBox="0 0 194 194" fill="none" xmlns="http://www.w3.org/2000/svg">
<rect width="194" height="194" rx="97" fill="#FB8A05"/>
<path d="M76.2965 99.4568H80.3065C84.2077 99.4568 86.6777 101.74 86.7079 104.892C86.7562 108.135 84.1292 110.442 80.1495 110.442C76.5381 110.418 73.8869 108.479 73.6997 105.876H67.1171C67.2983 111.396 71.894 116.07 80.1193 116.07C87.6077 116.07 93.9186 112.085 93.8401 105.212C93.7616 99.4568 89.3289 96.8782 86.0376 96.5641V96.1897C88.6948 95.767 92.8316 93.0071 92.7289 87.886C92.6504 82.4145 87.8976 78.4046 80.3306 78.4348C72.4194 78.465 67.9928 82.8675 67.8056 88.5201H74.4667C74.5996 86.1588 76.7797 83.9847 80.1193 83.9847C83.3321 83.9847 85.7236 85.9776 85.7236 88.8945C85.7477 91.7872 83.4106 93.9371 80.1193 93.9371H76.3026V99.4568H76.2965ZM98.0735 79.1232V115.352H111.293C122.224 115.352 127.508 108.666 127.508 97.1439C127.508 85.7058 122.308 79.1232 111.293 79.1232H98.0735ZM105.242 84.963H110.339C117.054 84.963 120.128 89.1059 120.128 97.2828C120.128 105.454 117.078 109.482 110.339 109.482H105.242V84.963Z" fill="white"/>
<path d="M133.547 67.0391C135.149 67.0391 136.685 67.6753 137.817 68.8079C138.95 69.9404 139.586 71.4765 139.586 73.0782V121.391C139.586 122.993 138.95 124.529 137.817 125.661C136.685 126.794 135.149 127.43 133.547 127.43H61.0782C59.4765 127.43 57.9404 126.794 56.8079 125.661C55.6753 124.529 55.0391 122.993 55.0391 121.391V73.0782C55.0391 71.4765 55.6753 69.9404 56.8079 68.8079C57.9404 67.6753 59.4765 67.0391 61.0782 67.0391H133.547ZM61.0782 61C57.8748 61 54.8027 62.2725 52.5376 64.5376C50.2725 66.8027 49 69.8748 49 73.0782V121.391C49 124.594 50.2725 127.666 52.5376 129.931C54.8027 132.197 57.8748 133.469 61.0782 133.469H133.547C136.751 133.469 139.823 132.197 142.088 129.931C144.353 127.666 145.625 124.594 145.625 121.391V73.0782C145.625 69.8748 144.353 66.8027 142.088 64.5376C139.823 62.2725 136.751 61 133.547 61H61.0782Z" fill="white"/>
</svg>
