<svg width="194" height="248" viewBox="0 0 194 248" fill="none" xmlns="http://www.w3.org/2000/svg">
<rect width="194" height="194" rx="97" fill="#FB8A05"/>
<path fill-rule="evenodd" clip-rule="evenodd" d="M121.024 60.7966C113.765 55.9461 105.231 53.3571 96.5 53.3571C84.7926 53.3571 73.5647 58.0079 65.2863 66.2863C57.0079 74.5647 52.3572 85.7926 52.3572 97.5C52.3572 106.231 54.9461 114.765 59.7966 122.024C64.6471 129.284 71.5412 134.942 79.6073 138.283C87.6733 141.624 96.549 142.498 105.112 140.795C113.675 139.091 121.54 134.887 127.714 128.714C133.887 122.54 138.091 114.675 139.795 106.112C141.498 97.549 140.624 88.6733 137.283 80.6073C133.942 72.5412 128.284 65.647 121.024 60.7966ZM67.8881 54.6793C76.3573 49.0204 86.3143 46 96.5 46C110.159 46 123.258 51.4259 132.916 61.084C142.574 70.7421 148 83.8413 148 97.5C148 107.686 144.98 117.643 139.321 126.112C133.662 134.581 125.619 141.182 116.208 145.08C106.798 148.978 96.4429 149.998 86.4529 148.01C76.4628 146.023 67.2864 141.118 60.084 133.916C52.8816 126.714 47.9767 117.537 45.9896 107.547C44.0024 97.5571 45.0223 87.2022 48.9202 77.7918C52.8181 68.3814 59.419 60.3382 67.8881 54.6793ZM75.5058 122.172C76.1957 122.862 77.1313 123.25 78.107 123.25C78.6779 123.249 79.2408 123.116 79.7513 122.86L123.894 100.789C124.504 100.483 125.017 100.013 125.376 99.4323C125.735 98.8515 125.924 98.1824 125.924 97.4999C125.924 96.8173 125.735 96.1482 125.376 95.5674C125.017 94.9867 124.504 94.5171 123.894 94.2112L79.7513 72.1398C79.1906 71.8596 78.5676 71.7274 77.9415 71.7556C77.3153 71.7838 76.7067 71.9715 76.1735 72.301C75.6403 72.6304 75.2 73.0907 74.8946 73.638C74.5892 74.1854 74.4287 74.8017 74.4284 75.4285V119.571C74.4284 120.547 74.816 121.483 75.5058 122.172ZM81.7855 113.619V81.3804L114.025 97.4999L81.7855 113.619Z" fill="white"/>
<path d="M59.8857 222.62V224H50.2002V222.62H59.8857ZM50.4727 222.62V227.146H48.7939L48.7852 222.62H50.4727ZM61.3623 222.62L61.3447 227.138H59.666V222.62H61.3623ZM58.2246 211.203V212.592H52.6172V211.203H58.2246ZM59.6836 211.203V224H57.9961V211.203H59.6836ZM52.0371 211.203H53.7334L53.4697 216.354C53.4346 217.127 53.3613 217.842 53.25 218.498C53.1387 219.148 53.001 219.743 52.8369 220.282C52.6729 220.821 52.4854 221.305 52.2744 221.732C52.0635 222.154 51.8379 222.521 51.5977 222.831C51.3574 223.136 51.1055 223.388 50.8418 223.587C50.584 223.78 50.3232 223.918 50.0596 224H49.2861V222.62H49.8311C49.9834 222.456 50.1562 222.219 50.3496 221.908C50.5488 221.598 50.7451 221.196 50.9385 220.704C51.1377 220.206 51.3105 219.6 51.457 218.885C51.6094 218.17 51.7119 217.326 51.7646 216.354L52.0371 211.203ZM67.5762 219.816H64.4561L64.4385 218.516H66.9873C67.4912 218.516 67.9102 218.466 68.2441 218.366C68.584 218.267 68.8389 218.117 69.0088 217.918C69.1787 217.719 69.2637 217.473 69.2637 217.18C69.2637 216.951 69.2139 216.752 69.1143 216.582C69.0205 216.406 68.877 216.263 68.6836 216.151C68.4902 216.034 68.25 215.949 67.9629 215.896C67.6816 215.838 67.3506 215.809 66.9697 215.809H64.8867V224H63.2607V214.49H66.9697C67.5732 214.49 68.1152 214.543 68.5957 214.648C69.082 214.754 69.4951 214.915 69.835 215.132C70.1807 215.343 70.4443 215.612 70.626 215.94C70.8076 216.269 70.8984 216.655 70.8984 217.101C70.8984 217.388 70.8398 217.66 70.7227 217.918C70.6055 218.176 70.4326 218.404 70.2041 218.604C69.9756 218.803 69.6943 218.967 69.3604 219.096C69.0264 219.219 68.6426 219.298 68.209 219.333L67.5762 219.816ZM67.5762 224H63.8672L64.6758 222.682H67.5762C68.0273 222.682 68.4023 222.626 68.7012 222.515C69 222.397 69.2227 222.233 69.3691 222.022C69.5215 221.806 69.5977 221.548 69.5977 221.249C69.5977 220.95 69.5215 220.695 69.3691 220.484C69.2227 220.268 69 220.104 68.7012 219.992C68.4023 219.875 68.0273 219.816 67.5762 219.816H65.1064L65.124 218.516H68.209L68.7979 219.008C69.3193 219.049 69.7617 219.178 70.125 219.395C70.4883 219.611 70.7637 219.887 70.9512 220.221C71.1387 220.549 71.2324 220.906 71.2324 221.293C71.2324 221.738 71.1475 222.131 70.9775 222.471C70.8135 222.811 70.5732 223.095 70.2568 223.323C69.9404 223.546 69.5566 223.716 69.1055 223.833C68.6543 223.944 68.1445 224 67.5762 224ZM75.9785 223.016L78.624 214.49H80.3643L76.5498 225.468C76.4619 225.702 76.3447 225.954 76.1982 226.224C76.0576 226.499 75.876 226.76 75.6533 227.006C75.4307 227.252 75.1611 227.451 74.8447 227.604C74.5342 227.762 74.1621 227.841 73.7285 227.841C73.5996 227.841 73.4355 227.823 73.2363 227.788C73.0371 227.753 72.8965 227.724 72.8145 227.7L72.8057 226.382C72.8525 226.388 72.9258 226.394 73.0254 226.399C73.1309 226.411 73.2041 226.417 73.2451 226.417C73.6143 226.417 73.9277 226.367 74.1855 226.268C74.4434 226.174 74.6602 226.013 74.8359 225.784C75.0176 225.562 75.1729 225.254 75.3018 224.861L75.9785 223.016ZM74.0361 214.49L76.5059 221.873L76.9277 223.587L75.7588 224.185L72.2607 214.49H74.0361ZM87.2988 221.838L90.5332 214.49H92.0977L87.8613 224H86.7363L82.5176 214.49H84.082L87.2988 221.838ZM83.6074 214.49V224H81.9814V214.49H83.6074ZM90.9375 224V214.49H92.5723V224H90.9375ZM99.1377 224.176C98.4756 224.176 97.875 224.064 97.3359 223.842C96.8027 223.613 96.3428 223.294 95.9561 222.884C95.5752 222.474 95.2822 221.987 95.0771 221.425C94.8721 220.862 94.7695 220.247 94.7695 219.579V219.21C94.7695 218.437 94.8838 217.748 95.1123 217.145C95.3408 216.535 95.6514 216.02 96.0439 215.598C96.4365 215.176 96.8818 214.856 97.3799 214.64C97.8779 214.423 98.3936 214.314 98.9268 214.314C99.6064 214.314 100.192 214.432 100.685 214.666C101.183 214.9 101.59 215.229 101.906 215.65C102.223 216.066 102.457 216.559 102.609 217.127C102.762 217.689 102.838 218.305 102.838 218.973V219.702H95.7363V218.375H101.212V218.252C101.188 217.83 101.101 217.42 100.948 217.021C100.802 216.623 100.567 216.295 100.245 216.037C99.9229 215.779 99.4834 215.65 98.9268 215.65C98.5576 215.65 98.2178 215.729 97.9072 215.888C97.5967 216.04 97.3301 216.269 97.1074 216.573C96.8848 216.878 96.7119 217.25 96.5889 217.689C96.4658 218.129 96.4043 218.636 96.4043 219.21V219.579C96.4043 220.03 96.4658 220.455 96.5889 220.854C96.7178 221.246 96.9023 221.592 97.1426 221.891C97.3887 222.189 97.6846 222.424 98.0303 222.594C98.3818 222.764 98.7803 222.849 99.2256 222.849C99.7998 222.849 100.286 222.731 100.685 222.497C101.083 222.263 101.432 221.949 101.73 221.557L102.715 222.339C102.51 222.649 102.249 222.945 101.933 223.227C101.616 223.508 101.227 223.736 100.764 223.912C100.307 224.088 99.7646 224.176 99.1377 224.176ZM106.362 216.318V227.656H104.728V214.49H106.222L106.362 216.318ZM112.77 219.166V219.351C112.77 220.042 112.688 220.684 112.523 221.275C112.359 221.861 112.119 222.371 111.803 222.805C111.492 223.238 111.108 223.575 110.651 223.815C110.194 224.056 109.67 224.176 109.078 224.176C108.475 224.176 107.941 224.076 107.479 223.877C107.016 223.678 106.623 223.388 106.301 223.007C105.979 222.626 105.721 222.169 105.527 221.636C105.34 221.103 105.211 220.502 105.141 219.834V218.85C105.211 218.146 105.343 217.517 105.536 216.96C105.729 216.403 105.984 215.929 106.301 215.536C106.623 215.138 107.013 214.836 107.47 214.631C107.927 214.42 108.454 214.314 109.052 214.314C109.649 214.314 110.18 214.432 110.643 214.666C111.105 214.895 111.495 215.223 111.812 215.65C112.128 216.078 112.365 216.591 112.523 217.188C112.688 217.78 112.77 218.439 112.77 219.166ZM111.135 219.351V219.166C111.135 218.691 111.085 218.246 110.985 217.83C110.886 217.408 110.73 217.039 110.52 216.723C110.314 216.4 110.051 216.148 109.729 215.967C109.406 215.779 109.022 215.686 108.577 215.686C108.167 215.686 107.81 215.756 107.505 215.896C107.206 216.037 106.951 216.228 106.74 216.468C106.529 216.702 106.356 216.972 106.222 217.276C106.093 217.575 105.996 217.886 105.932 218.208V220.484C106.049 220.895 106.213 221.281 106.424 221.645C106.635 222.002 106.916 222.292 107.268 222.515C107.619 222.731 108.062 222.84 108.595 222.84C109.034 222.84 109.412 222.749 109.729 222.567C110.051 222.38 110.314 222.125 110.52 221.803C110.73 221.48 110.886 221.111 110.985 220.695C111.085 220.273 111.135 219.825 111.135 219.351ZM121.295 218.612V219.931H116.268V218.612H121.295ZM116.61 214.49V224H114.984V214.49H116.61ZM122.613 214.49V224H120.979V214.49H122.613ZM130.84 222.374V217.479C130.84 217.104 130.764 216.778 130.611 216.503C130.465 216.222 130.242 216.005 129.943 215.853C129.645 215.7 129.275 215.624 128.836 215.624C128.426 215.624 128.065 215.694 127.755 215.835C127.45 215.976 127.21 216.16 127.034 216.389C126.864 216.617 126.779 216.863 126.779 217.127H125.153C125.153 216.787 125.241 216.45 125.417 216.116C125.593 215.782 125.845 215.48 126.173 215.211C126.507 214.936 126.905 214.719 127.368 214.561C127.837 214.396 128.358 214.314 128.933 214.314C129.624 214.314 130.233 214.432 130.761 214.666C131.294 214.9 131.71 215.255 132.009 215.729C132.313 216.198 132.466 216.787 132.466 217.496V221.926C132.466 222.242 132.492 222.579 132.545 222.937C132.604 223.294 132.688 223.602 132.8 223.859V224H131.104C131.021 223.812 130.957 223.563 130.91 223.253C130.863 222.937 130.84 222.644 130.84 222.374ZM131.121 218.234L131.139 219.377H129.495C129.032 219.377 128.619 219.415 128.256 219.491C127.893 219.562 127.588 219.67 127.342 219.816C127.096 219.963 126.908 220.147 126.779 220.37C126.65 220.587 126.586 220.842 126.586 221.135C126.586 221.434 126.653 221.706 126.788 221.952C126.923 222.198 127.125 222.395 127.395 222.541C127.67 222.682 128.007 222.752 128.405 222.752C128.903 222.752 129.343 222.646 129.724 222.436C130.104 222.225 130.406 221.967 130.629 221.662C130.857 221.357 130.98 221.062 130.998 220.774L131.692 221.557C131.651 221.803 131.54 222.075 131.358 222.374C131.177 222.673 130.934 222.96 130.629 223.235C130.33 223.505 129.973 223.73 129.557 223.912C129.146 224.088 128.684 224.176 128.168 224.176C127.523 224.176 126.958 224.05 126.472 223.798C125.991 223.546 125.616 223.209 125.347 222.787C125.083 222.359 124.951 221.882 124.951 221.354C124.951 220.845 125.051 220.396 125.25 220.01C125.449 219.617 125.736 219.292 126.111 219.034C126.486 218.771 126.938 218.571 127.465 218.437C127.992 218.302 128.581 218.234 129.231 218.234H131.121ZM136.948 219.465H138.706L135.955 224H134.197L136.948 219.465ZM138.311 214.49H142.283V224H140.657V215.809H138.311C137.848 215.809 137.47 215.888 137.177 216.046C136.884 216.198 136.67 216.397 136.535 216.644C136.4 216.89 136.333 217.145 136.333 217.408C136.333 217.666 136.395 217.915 136.518 218.155C136.641 218.39 136.834 218.583 137.098 218.735C137.361 218.888 137.701 218.964 138.117 218.964H141.097V220.3H138.117C137.572 220.3 137.089 220.227 136.667 220.08C136.245 219.934 135.888 219.731 135.595 219.474C135.302 219.21 135.079 218.902 134.927 218.551C134.774 218.193 134.698 217.807 134.698 217.391C134.698 216.975 134.777 216.591 134.936 216.239C135.1 215.888 135.334 215.58 135.639 215.316C135.949 215.053 136.327 214.851 136.772 214.71C137.224 214.563 137.736 214.49 138.311 214.49ZM60.5186 243.374V238.479C60.5186 238.104 60.4424 237.778 60.29 237.503C60.1436 237.222 59.9209 237.005 59.6221 236.853C59.3232 236.7 58.9541 236.624 58.5146 236.624C58.1045 236.624 57.7441 236.694 57.4336 236.835C57.1289 236.976 56.8887 237.16 56.7129 237.389C56.543 237.617 56.458 237.863 56.458 238.127H54.832C54.832 237.787 54.9199 237.45 55.0957 237.116C55.2715 236.782 55.5234 236.48 55.8516 236.211C56.1855 235.936 56.584 235.719 57.0469 235.561C57.5156 235.396 58.0371 235.314 58.6113 235.314C59.3027 235.314 59.9121 235.432 60.4395 235.666C60.9727 235.9 61.3887 236.255 61.6875 236.729C61.9922 237.198 62.1445 237.787 62.1445 238.496V242.926C62.1445 243.242 62.1709 243.579 62.2236 243.937C62.2822 244.294 62.3672 244.602 62.4785 244.859V245H60.7822C60.7002 244.812 60.6357 244.563 60.5889 244.253C60.542 243.937 60.5186 243.644 60.5186 243.374ZM60.7998 239.234L60.8174 240.377H59.1738C58.7109 240.377 58.2979 240.415 57.9346 240.491C57.5713 240.562 57.2666 240.67 57.0205 240.816C56.7744 240.963 56.5869 241.147 56.458 241.37C56.3291 241.587 56.2646 241.842 56.2646 242.135C56.2646 242.434 56.332 242.706 56.4668 242.952C56.6016 243.198 56.8037 243.395 57.0732 243.541C57.3486 243.682 57.6855 243.752 58.084 243.752C58.582 243.752 59.0215 243.646 59.4023 243.436C59.7832 243.225 60.085 242.967 60.3076 242.662C60.5361 242.357 60.6592 242.062 60.6768 241.774L61.3711 242.557C61.3301 242.803 61.2188 243.075 61.0371 243.374C60.8555 243.673 60.6123 243.96 60.3076 244.235C60.0088 244.505 59.6514 244.73 59.2354 244.912C58.8252 245.088 58.3623 245.176 57.8467 245.176C57.2021 245.176 56.6367 245.05 56.1504 244.798C55.6699 244.546 55.2949 244.209 55.0254 243.787C54.7617 243.359 54.6299 242.882 54.6299 242.354C54.6299 241.845 54.7295 241.396 54.9287 241.01C55.1279 240.617 55.415 240.292 55.79 240.034C56.165 239.771 56.6162 239.571 57.1436 239.437C57.6709 239.302 58.2598 239.234 58.9102 239.234H60.7998ZM71.1533 239.612V240.931H66.126V239.612H71.1533ZM66.4688 235.49V245H64.8428V235.49H66.4688ZM72.4717 235.49V245H70.8369V235.49H72.4717ZM76.8486 242.425L81.2344 235.49H82.8691V245H81.2344V238.065L76.8486 245H75.2314V235.49H76.8486V242.425ZM90.9463 242.838L94.1807 235.49H95.7451L91.5088 245H90.3838L86.165 235.49H87.7295L90.9463 242.838ZM87.2549 235.49V245H85.6289V235.49H87.2549ZM94.585 245V235.49H96.2197V245H94.585ZM104.446 243.374V238.479C104.446 238.104 104.37 237.778 104.218 237.503C104.071 237.222 103.849 237.005 103.55 236.853C103.251 236.7 102.882 236.624 102.442 236.624C102.032 236.624 101.672 236.694 101.361 236.835C101.057 236.976 100.816 237.16 100.641 237.389C100.471 237.617 100.386 237.863 100.386 238.127H98.7598C98.7598 237.787 98.8477 237.45 99.0234 237.116C99.1992 236.782 99.4512 236.48 99.7793 236.211C100.113 235.936 100.512 235.719 100.975 235.561C101.443 235.396 101.965 235.314 102.539 235.314C103.23 235.314 103.84 235.432 104.367 235.666C104.9 235.9 105.316 236.255 105.615 236.729C105.92 237.198 106.072 237.787 106.072 238.496V242.926C106.072 243.242 106.099 243.579 106.151 243.937C106.21 244.294 106.295 244.602 106.406 244.859V245H104.71C104.628 244.812 104.563 244.563 104.517 244.253C104.47 243.937 104.446 243.644 104.446 243.374ZM104.728 239.234L104.745 240.377H103.102C102.639 240.377 102.226 240.415 101.862 240.491C101.499 240.562 101.194 240.67 100.948 240.816C100.702 240.963 100.515 241.147 100.386 241.37C100.257 241.587 100.192 241.842 100.192 242.135C100.192 242.434 100.26 242.706 100.395 242.952C100.529 243.198 100.731 243.395 101.001 243.541C101.276 243.682 101.613 243.752 102.012 243.752C102.51 243.752 102.949 243.646 103.33 243.436C103.711 243.225 104.013 242.967 104.235 242.662C104.464 242.357 104.587 242.062 104.604 241.774L105.299 242.557C105.258 242.803 105.146 243.075 104.965 243.374C104.783 243.673 104.54 243.96 104.235 244.235C103.937 244.505 103.579 244.73 103.163 244.912C102.753 245.088 102.29 245.176 101.774 245.176C101.13 245.176 100.564 245.05 100.078 244.798C99.5977 244.546 99.2227 244.209 98.9531 243.787C98.6895 243.359 98.5576 242.882 98.5576 242.354C98.5576 241.845 98.6572 241.396 98.8564 241.01C99.0557 240.617 99.3428 240.292 99.7178 240.034C100.093 239.771 100.544 239.571 101.071 239.437C101.599 239.302 102.188 239.234 102.838 239.234H104.728ZM108.771 245V235.49H110.396V243.664H114.773V235.49H116.408V245H108.771ZM117.533 243.664L117.375 247.821H115.925V245H114.686V243.664H117.533ZM121.058 242.425L125.443 235.49H127.078V245H125.443V238.065L121.058 245H119.44V235.49H121.058V242.425ZM131.613 240.465H133.371L130.62 245H128.862L131.613 240.465ZM132.976 235.49H136.948V245H135.322V236.809H132.976C132.513 236.809 132.135 236.888 131.842 237.046C131.549 237.198 131.335 237.397 131.2 237.644C131.065 237.89 130.998 238.145 130.998 238.408C130.998 238.666 131.06 238.915 131.183 239.155C131.306 239.39 131.499 239.583 131.763 239.735C132.026 239.888 132.366 239.964 132.782 239.964H135.762V241.3H132.782C132.237 241.3 131.754 241.227 131.332 241.08C130.91 240.934 130.553 240.731 130.26 240.474C129.967 240.21 129.744 239.902 129.592 239.551C129.439 239.193 129.363 238.807 129.363 238.391C129.363 237.975 129.442 237.591 129.601 237.239C129.765 236.888 129.999 236.58 130.304 236.316C130.614 236.053 130.992 235.851 131.438 235.71C131.889 235.563 132.401 235.49 132.976 235.49Z" fill="white"/>
</svg>
