<svg width="194" height="194" viewBox="0 0 194 194" fill="none" xmlns="http://www.w3.org/2000/svg">
<rect width="194" height="194" rx="97" fill="#FB8A05"/>
<path d="M118.476 63.748V67.248H121.976H141.557C143.41 67.248 145.181 67.9768 146.48 69.2621C147.778 70.5461 148.5 72.2794 148.5 74.0787V127.669C148.5 129.469 147.778 131.202 146.48 132.486C145.181 133.771 143.41 134.5 141.557 134.5H106.582C121.557 130.53 132.65 116.989 132.65 100.877C132.65 81.6454 116.845 66.0642 97.4974 66.0642C78.1482 66.0642 62.3548 81.6469 62.3548 100.877C62.3548 116.974 73.4217 130.515 88.3773 134.5H53.4431C51.5895 134.5 49.8194 133.771 48.5202 132.486C47.2222 131.202 46.5 129.469 46.5 127.669V74.0787C46.5 72.2794 47.2222 70.5461 48.5202 69.2621C49.8194 67.9768 51.5895 67.248 53.4431 67.248H73.024H76.5239V63.748V59.5H118.476V63.748ZM97.4978 83.3898L97.9288 83.3897C102.484 83.4984 106.823 85.3357 110.042 88.5197C113.362 91.8027 115.22 96.2476 115.22 100.874C115.221 105.501 113.364 109.947 110.045 113.23C106.725 116.515 102.214 118.368 97.5022 118.369C95.1702 118.369 92.8619 117.915 90.7094 117.033C88.5569 116.151 86.6035 114.86 84.9597 113.234C83.3161 111.609 82.0142 109.681 81.1266 107.562C80.239 105.443 79.7825 103.173 79.7822 100.881C79.7819 98.5899 80.2378 96.3199 81.1249 94.2007C82.012 92.0813 83.3134 90.1532 84.9567 88.5272C86.6 86.9011 88.5531 85.6092 90.7053 84.727C92.8577 83.8447 95.1659 83.39 97.4978 83.3898Z" stroke="white" stroke-width="7"/>
</svg>
