<svg width="194" height="245" viewBox="0 0 194 245" fill="none" xmlns="http://www.w3.org/2000/svg">
<rect width="194" height="194" rx="97" fill="#368EF5"/>
<path d="M71.5699 99.8862H76.3546C81.0095 99.8862 83.9566 102.61 83.9927 106.371C84.0503 110.241 80.9158 112.993 76.1672 112.993C71.8582 112.965 68.6948 110.652 68.4715 107.546H60.6172C60.8334 114.132 66.3169 119.709 76.1312 119.709C85.0663 119.709 92.5963 114.953 92.5026 106.753C92.409 99.8862 87.1199 96.8093 83.1928 96.4346V95.9879C86.3633 95.4834 91.2993 92.1904 91.1768 86.0799C91.0831 79.5515 85.4122 74.7669 76.3834 74.8029C66.9438 74.839 61.662 80.092 61.4386 86.8365H69.3866C69.5451 84.0191 72.1464 81.425 76.1312 81.425C79.9646 81.425 82.8181 83.8029 82.8181 87.2833C82.8469 90.7349 80.0583 93.3001 76.1312 93.3001H71.5771V99.8862H71.5699ZM97.5539 75.6244V118.852H113.327C126.37 118.852 132.675 110.875 132.675 97.1264C132.675 83.4787 126.471 75.6244 113.327 75.6244H97.5539ZM106.107 82.5924H112.189C120.202 82.5924 123.869 87.5355 123.869 97.2921C123.869 107.041 120.23 111.848 112.189 111.848H106.107V82.5924V82.5924Z" fill="white"/>
<path d="M139.881 61.2058C141.792 61.2058 143.624 61.9649 144.976 63.3163C146.327 64.6676 147.086 66.5004 147.086 68.4115V126.058C147.086 127.969 146.327 129.801 144.976 131.153C143.624 132.504 141.792 133.263 139.881 133.263H53.4115C51.5004 133.263 49.6676 132.504 48.3163 131.153C46.9649 129.801 46.2058 127.969 46.2058 126.058V68.4115C46.2058 66.5004 46.9649 64.6676 48.3163 63.3163C49.6676 61.9649 51.5004 61.2058 53.4115 61.2058H139.881ZM53.4115 54C49.5893 54 45.9237 55.5183 43.221 58.221C40.5184 60.9237 39 64.5893 39 68.4115V126.058C39 129.88 40.5184 133.545 43.221 136.248C45.9237 138.951 49.5893 140.469 53.4115 140.469H139.881C143.703 140.469 147.368 138.951 150.071 136.248C152.774 133.545 154.292 129.88 154.292 126.058V68.4115C154.292 64.5893 152.774 60.9237 150.071 58.221C147.368 55.5183 143.703 54 139.881 54H53.4115Z" fill="white"/>
<path d="M6.51758 207.203V220H4.84766V207.203H6.51758ZM10.6309 207.203V208.592H0.743164V207.203H10.6309ZM12.9424 212.318V223.656H11.3076V210.49H12.8018L12.9424 212.318ZM19.3496 215.166V215.351C19.3496 216.042 19.2676 216.684 19.1035 217.275C18.9395 217.861 18.6992 218.371 18.3828 218.805C18.0723 219.238 17.6885 219.575 17.2314 219.815C16.7744 220.056 16.25 220.176 15.6582 220.176C15.0547 220.176 14.5215 220.076 14.0586 219.877C13.5957 219.678 13.2031 219.388 12.8809 219.007C12.5586 218.626 12.3008 218.169 12.1074 217.636C11.9199 217.103 11.791 216.502 11.7207 215.834V214.85C11.791 214.146 11.9229 213.517 12.1162 212.96C12.3096 212.403 12.5645 211.929 12.8809 211.536C13.2031 211.138 13.5928 210.836 14.0498 210.631C14.5068 210.42 15.0342 210.314 15.6318 210.314C16.2295 210.314 16.7598 210.432 17.2227 210.666C17.6855 210.895 18.0752 211.223 18.3916 211.65C18.708 212.078 18.9453 212.591 19.1035 213.188C19.2676 213.78 19.3496 214.439 19.3496 215.166ZM17.7148 215.351V215.166C17.7148 214.691 17.665 214.246 17.5654 213.83C17.4658 213.408 17.3105 213.039 17.0996 212.723C16.8945 212.4 16.6309 212.148 16.3086 211.967C15.9863 211.779 15.6025 211.686 15.1572 211.686C14.7471 211.686 14.3896 211.756 14.085 211.896C13.7861 212.037 13.5312 212.228 13.3203 212.468C13.1094 212.702 12.9365 212.972 12.8018 213.276C12.6729 213.575 12.5762 213.886 12.5117 214.208V216.484C12.6289 216.895 12.793 217.281 13.0039 217.645C13.2148 218.002 13.4961 218.292 13.8477 218.515C14.1992 218.731 14.6416 218.84 15.1748 218.84C15.6143 218.84 15.9922 218.749 16.3086 218.567C16.6309 218.38 16.8945 218.125 17.0996 217.803C17.3105 217.48 17.4658 217.111 17.5654 216.695C17.665 216.273 17.7148 215.825 17.7148 215.351ZM25.3701 220.176C24.708 220.176 24.1074 220.064 23.5684 219.842C23.0352 219.613 22.5752 219.294 22.1885 218.884C21.8076 218.474 21.5146 217.987 21.3096 217.425C21.1045 216.862 21.002 216.247 21.002 215.579V215.21C21.002 214.437 21.1162 213.748 21.3447 213.145C21.5732 212.535 21.8838 212.02 22.2764 211.598C22.6689 211.176 23.1143 210.856 23.6123 210.64C24.1104 210.423 24.626 210.314 25.1592 210.314C25.8389 210.314 26.4248 210.432 26.917 210.666C27.415 210.9 27.8223 211.229 28.1387 211.65C28.4551 212.066 28.6895 212.559 28.8418 213.127C28.9941 213.689 29.0703 214.305 29.0703 214.973V215.702H21.9688V214.375H27.4443V214.252C27.4209 213.83 27.333 213.42 27.1807 213.021C27.0342 212.623 26.7998 212.295 26.4775 212.037C26.1553 211.779 25.7158 211.65 25.1592 211.65C24.79 211.65 24.4502 211.729 24.1396 211.888C23.8291 212.04 23.5625 212.269 23.3398 212.573C23.1172 212.878 22.9443 213.25 22.8213 213.689C22.6982 214.129 22.6367 214.636 22.6367 215.21V215.579C22.6367 216.03 22.6982 216.455 22.8213 216.854C22.9502 217.246 23.1348 217.592 23.375 217.891C23.6211 218.189 23.917 218.424 24.2627 218.594C24.6143 218.764 25.0127 218.849 25.458 218.849C26.0322 218.849 26.5186 218.731 26.917 218.497C27.3154 218.263 27.6641 217.949 27.9629 217.557L28.9473 218.339C28.7422 218.649 28.4814 218.945 28.165 219.227C27.8486 219.508 27.459 219.736 26.9961 219.912C26.5391 220.088 25.9971 220.176 25.3701 220.176ZM32.0674 210.49L34.1504 213.953L36.2598 210.49H38.167L35.0557 215.184L38.2637 220H36.3828L34.1855 216.432L31.9883 220H30.0986L33.2979 215.184L30.1953 210.49H32.0674ZM45.3652 217.838L48.5996 210.49H50.1641L45.9277 220H44.8027L40.584 210.49H42.1484L45.3652 217.838ZM41.6738 210.49V220H40.0479V210.49H41.6738ZM49.0039 220V210.49H50.6387V220H49.0039ZM57.2041 220.176C56.542 220.176 55.9414 220.064 55.4023 219.842C54.8691 219.613 54.4092 219.294 54.0225 218.884C53.6416 218.474 53.3486 217.987 53.1436 217.425C52.9385 216.862 52.8359 216.247 52.8359 215.579V215.21C52.8359 214.437 52.9502 213.748 53.1787 213.145C53.4072 212.535 53.7178 212.02 54.1104 211.598C54.5029 211.176 54.9482 210.856 55.4463 210.64C55.9443 210.423 56.46 210.314 56.9932 210.314C57.6729 210.314 58.2588 210.432 58.751 210.666C59.249 210.9 59.6562 211.229 59.9727 211.65C60.2891 212.066 60.5234 212.559 60.6758 213.127C60.8281 213.689 60.9043 214.305 60.9043 214.973V215.702H53.8027V214.375H59.2783V214.252C59.2549 213.83 59.167 213.42 59.0146 213.021C58.8682 212.623 58.6338 212.295 58.3115 212.037C57.9893 211.779 57.5498 211.65 56.9932 211.65C56.624 211.65 56.2842 211.729 55.9736 211.888C55.6631 212.04 55.3965 212.269 55.1738 212.573C54.9512 212.878 54.7783 213.25 54.6553 213.689C54.5322 214.129 54.4707 214.636 54.4707 215.21V215.579C54.4707 216.03 54.5322 216.455 54.6553 216.854C54.7842 217.246 54.9688 217.592 55.209 217.891C55.4551 218.189 55.751 218.424 56.0967 218.594C56.4482 218.764 56.8467 218.849 57.292 218.849C57.8662 218.849 58.3525 218.731 58.751 218.497C59.1494 218.263 59.498 217.949 59.7969 217.557L60.7812 218.339C60.5762 218.649 60.3154 218.945 59.999 219.227C59.6826 219.508 59.293 219.736 58.8301 219.912C58.373 220.088 57.8311 220.176 57.2041 220.176ZM64.4287 212.318V223.656H62.7939V210.49H64.2881L64.4287 212.318ZM70.8359 215.166V215.351C70.8359 216.042 70.7539 216.684 70.5898 217.275C70.4258 217.861 70.1855 218.371 69.8691 218.805C69.5586 219.238 69.1748 219.575 68.7178 219.815C68.2607 220.056 67.7363 220.176 67.1445 220.176C66.541 220.176 66.0078 220.076 65.5449 219.877C65.082 219.678 64.6895 219.388 64.3672 219.007C64.0449 218.626 63.7871 218.169 63.5938 217.636C63.4062 217.103 63.2773 216.502 63.207 215.834V214.85C63.2773 214.146 63.4092 213.517 63.6025 212.96C63.7959 212.403 64.0508 211.929 64.3672 211.536C64.6895 211.138 65.0791 210.836 65.5361 210.631C65.9932 210.42 66.5205 210.314 67.1182 210.314C67.7158 210.314 68.2461 210.432 68.709 210.666C69.1719 210.895 69.5615 211.223 69.8779 211.65C70.1943 212.078 70.4316 212.591 70.5898 213.188C70.7539 213.78 70.8359 214.439 70.8359 215.166ZM69.2012 215.351V215.166C69.2012 214.691 69.1514 214.246 69.0518 213.83C68.9521 213.408 68.7969 213.039 68.5859 212.723C68.3809 212.4 68.1172 212.148 67.7949 211.967C67.4727 211.779 67.0889 211.686 66.6436 211.686C66.2334 211.686 65.876 211.756 65.5713 211.896C65.2725 212.037 65.0176 212.228 64.8066 212.468C64.5957 212.702 64.4229 212.972 64.2881 213.276C64.1592 213.575 64.0625 213.886 63.998 214.208V216.484C64.1152 216.895 64.2793 217.281 64.4902 217.645C64.7012 218.002 64.9824 218.292 65.334 218.515C65.6855 218.731 66.1279 218.84 66.6611 218.84C67.1006 218.84 67.4785 218.749 67.7949 218.567C68.1172 218.38 68.3809 218.125 68.5859 217.803C68.7969 217.48 68.9521 217.111 69.0518 216.695C69.1514 216.273 69.2012 215.825 69.2012 215.351ZM79.3613 214.612V215.931H74.334V214.612H79.3613ZM74.6768 210.49V220H73.0508V210.49H74.6768ZM80.6797 210.49V220H79.0449V210.49H80.6797ZM88.9062 218.374V213.479C88.9062 213.104 88.8301 212.778 88.6777 212.503C88.5312 212.222 88.3086 212.005 88.0098 211.853C87.7109 211.7 87.3418 211.624 86.9023 211.624C86.4922 211.624 86.1318 211.694 85.8213 211.835C85.5166 211.976 85.2764 212.16 85.1006 212.389C84.9307 212.617 84.8457 212.863 84.8457 213.127H83.2197C83.2197 212.787 83.3076 212.45 83.4834 212.116C83.6592 211.782 83.9111 211.48 84.2393 211.211C84.5732 210.936 84.9717 210.719 85.4346 210.561C85.9033 210.396 86.4248 210.314 86.999 210.314C87.6904 210.314 88.2998 210.432 88.8271 210.666C89.3604 210.9 89.7764 211.255 90.0752 211.729C90.3799 212.198 90.5322 212.787 90.5322 213.496V217.926C90.5322 218.242 90.5586 218.579 90.6113 218.937C90.6699 219.294 90.7549 219.602 90.8662 219.859V220H89.1699C89.0879 219.812 89.0234 219.563 88.9766 219.253C88.9297 218.937 88.9062 218.644 88.9062 218.374ZM89.1875 214.234L89.2051 215.377H87.5615C87.0986 215.377 86.6855 215.415 86.3223 215.491C85.959 215.562 85.6543 215.67 85.4082 215.816C85.1621 215.963 84.9746 216.147 84.8457 216.37C84.7168 216.587 84.6523 216.842 84.6523 217.135C84.6523 217.434 84.7197 217.706 84.8545 217.952C84.9893 218.198 85.1914 218.395 85.4609 218.541C85.7363 218.682 86.0732 218.752 86.4717 218.752C86.9697 218.752 87.4092 218.646 87.79 218.436C88.1709 218.225 88.4727 217.967 88.6953 217.662C88.9238 217.357 89.0469 217.062 89.0645 216.774L89.7588 217.557C89.7178 217.803 89.6064 218.075 89.4248 218.374C89.2432 218.673 89 218.96 88.6953 219.235C88.3965 219.505 88.0391 219.73 87.623 219.912C87.2129 220.088 86.75 220.176 86.2344 220.176C85.5898 220.176 85.0244 220.05 84.5381 219.798C84.0576 219.546 83.6826 219.209 83.4131 218.787C83.1494 218.359 83.0176 217.882 83.0176 217.354C83.0176 216.845 83.1172 216.396 83.3164 216.01C83.5156 215.617 83.8027 215.292 84.1777 215.034C84.5527 214.771 85.0039 214.571 85.5312 214.437C86.0586 214.302 86.6475 214.234 87.2979 214.234H89.1875ZM95.0146 215.465H96.7725L94.0215 220H92.2637L95.0146 215.465ZM96.377 210.49H100.35V220H98.7236V211.809H96.377C95.9141 211.809 95.5361 211.888 95.2432 212.046C94.9502 212.198 94.7363 212.397 94.6016 212.644C94.4668 212.89 94.3994 213.145 94.3994 213.408C94.3994 213.666 94.4609 213.915 94.584 214.155C94.707 214.39 94.9004 214.583 95.1641 214.735C95.4277 214.888 95.7676 214.964 96.1836 214.964H99.1631V216.3H96.1836C95.6387 216.3 95.1553 216.227 94.7334 216.08C94.3115 215.934 93.9541 215.731 93.6611 215.474C93.3682 215.21 93.1455 214.902 92.9932 214.551C92.8408 214.193 92.7646 213.807 92.7646 213.391C92.7646 212.975 92.8438 212.591 93.002 212.239C93.166 211.888 93.4004 211.58 93.7051 211.316C94.0156 211.053 94.3936 210.851 94.8389 210.71C95.29 210.563 95.8027 210.49 96.377 210.49ZM111.239 218.84C111.626 218.84 111.983 218.761 112.312 218.603C112.64 218.444 112.909 218.228 113.12 217.952C113.331 217.671 113.451 217.352 113.48 216.994H115.027C114.998 217.557 114.808 218.081 114.456 218.567C114.11 219.048 113.656 219.438 113.094 219.736C112.531 220.029 111.913 220.176 111.239 220.176C110.524 220.176 109.9 220.05 109.367 219.798C108.84 219.546 108.4 219.2 108.049 218.761C107.703 218.321 107.442 217.817 107.267 217.249C107.097 216.675 107.012 216.068 107.012 215.43V215.061C107.012 214.422 107.097 213.818 107.267 213.25C107.442 212.676 107.703 212.169 108.049 211.729C108.4 211.29 108.84 210.944 109.367 210.692C109.9 210.44 110.524 210.314 111.239 210.314C111.983 210.314 112.634 210.467 113.19 210.771C113.747 211.07 114.184 211.48 114.5 212.002C114.822 212.518 114.998 213.104 115.027 213.76H113.48C113.451 213.367 113.34 213.013 113.146 212.696C112.959 212.38 112.701 212.128 112.373 211.94C112.051 211.747 111.673 211.65 111.239 211.65C110.741 211.65 110.322 211.75 109.982 211.949C109.648 212.143 109.382 212.406 109.183 212.74C108.989 213.068 108.849 213.435 108.761 213.839C108.679 214.237 108.638 214.645 108.638 215.061V215.43C108.638 215.846 108.679 216.256 108.761 216.66C108.843 217.064 108.98 217.431 109.174 217.759C109.373 218.087 109.64 218.351 109.974 218.55C110.313 218.743 110.735 218.84 111.239 218.84ZM120.731 210.49V220H119.097V210.49H120.731ZM123.922 210.49V211.809H115.968V210.49H123.922ZM130.988 218.374V213.479C130.988 213.104 130.912 212.778 130.76 212.503C130.613 212.222 130.391 212.005 130.092 211.853C129.793 211.7 129.424 211.624 128.984 211.624C128.574 211.624 128.214 211.694 127.903 211.835C127.599 211.976 127.358 212.16 127.183 212.389C127.013 212.617 126.928 212.863 126.928 213.127H125.302C125.302 212.787 125.39 212.45 125.565 212.116C125.741 211.782 125.993 211.48 126.321 211.211C126.655 210.936 127.054 210.719 127.517 210.561C127.985 210.396 128.507 210.314 129.081 210.314C129.772 210.314 130.382 210.432 130.909 210.666C131.442 210.9 131.858 211.255 132.157 211.729C132.462 212.198 132.614 212.787 132.614 213.496V217.926C132.614 218.242 132.641 218.579 132.693 218.937C132.752 219.294 132.837 219.602 132.948 219.859V220H131.252C131.17 219.812 131.105 219.563 131.059 219.253C131.012 218.937 130.988 218.644 130.988 218.374ZM131.27 214.234L131.287 215.377H129.644C129.181 215.377 128.768 215.415 128.404 215.491C128.041 215.562 127.736 215.67 127.49 215.816C127.244 215.963 127.057 216.147 126.928 216.37C126.799 216.587 126.734 216.842 126.734 217.135C126.734 217.434 126.802 217.706 126.937 217.952C127.071 218.198 127.273 218.395 127.543 218.541C127.818 218.682 128.155 218.752 128.554 218.752C129.052 218.752 129.491 218.646 129.872 218.436C130.253 218.225 130.555 217.967 130.777 217.662C131.006 217.357 131.129 217.062 131.146 216.774L131.841 217.557C131.8 217.803 131.688 218.075 131.507 218.374C131.325 218.673 131.082 218.96 130.777 219.235C130.479 219.505 130.121 219.73 129.705 219.912C129.295 220.088 128.832 220.176 128.316 220.176C127.672 220.176 127.106 220.05 126.62 219.798C126.14 219.546 125.765 219.209 125.495 218.787C125.231 218.359 125.1 217.882 125.1 217.354C125.1 216.845 125.199 216.396 125.398 216.01C125.598 215.617 125.885 215.292 126.26 215.034C126.635 214.771 127.086 214.571 127.613 214.437C128.141 214.302 128.729 214.234 129.38 214.234H131.27ZM138.907 210.49V220H137.272V210.49H138.907ZM142.098 210.49V211.809H134.144V210.49H142.098ZM145.455 217.425L149.841 210.49H151.476V220H149.841V213.065L145.455 220H143.838V210.49H145.455V217.425ZM161.258 210.49V220H159.632V210.49H161.258ZM160.704 214.858V216.194C160.376 216.317 160.042 216.429 159.702 216.528C159.368 216.622 159.014 216.698 158.639 216.757C158.27 216.81 157.868 216.836 157.435 216.836C156.685 216.836 156.034 216.707 155.483 216.449C154.933 216.186 154.508 215.79 154.209 215.263C153.91 214.729 153.761 214.059 153.761 213.25V210.473H155.387V213.25C155.387 213.777 155.466 214.205 155.624 214.533C155.782 214.861 156.014 215.104 156.318 215.263C156.623 215.415 156.995 215.491 157.435 215.491C157.856 215.491 158.252 215.465 158.621 215.412C158.996 215.354 159.354 215.277 159.693 215.184C160.039 215.09 160.376 214.981 160.704 214.858ZM170.328 214.612V215.931H165.301V214.612H170.328ZM165.644 210.49V220H164.018V210.49H165.644ZM171.646 210.49V220H170.012V210.49H171.646ZM179.873 218.374V213.479C179.873 213.104 179.797 212.778 179.645 212.503C179.498 212.222 179.275 212.005 178.977 211.853C178.678 211.7 178.309 211.624 177.869 211.624C177.459 211.624 177.099 211.694 176.788 211.835C176.483 211.976 176.243 212.16 176.067 212.389C175.897 212.617 175.812 212.863 175.812 213.127H174.187C174.187 212.787 174.274 212.45 174.45 212.116C174.626 211.782 174.878 211.48 175.206 211.211C175.54 210.936 175.938 210.719 176.401 210.561C176.87 210.396 177.392 210.314 177.966 210.314C178.657 210.314 179.267 210.432 179.794 210.666C180.327 210.9 180.743 211.255 181.042 211.729C181.347 212.198 181.499 212.787 181.499 213.496V217.926C181.499 218.242 181.525 218.579 181.578 218.937C181.637 219.294 181.722 219.602 181.833 219.859V220H180.137C180.055 219.812 179.99 219.563 179.943 219.253C179.896 218.937 179.873 218.644 179.873 218.374ZM180.154 214.234L180.172 215.377H178.528C178.065 215.377 177.652 215.415 177.289 215.491C176.926 215.562 176.621 215.67 176.375 215.816C176.129 215.963 175.941 216.147 175.812 216.37C175.684 216.587 175.619 216.842 175.619 217.135C175.619 217.434 175.687 217.706 175.821 217.952C175.956 218.198 176.158 218.395 176.428 218.541C176.703 218.682 177.04 218.752 177.438 218.752C177.937 218.752 178.376 218.646 178.757 218.436C179.138 218.225 179.439 217.967 179.662 217.662C179.891 217.357 180.014 217.062 180.031 216.774L180.726 217.557C180.685 217.803 180.573 218.075 180.392 218.374C180.21 218.673 179.967 218.96 179.662 219.235C179.363 219.505 179.006 219.73 178.59 219.912C178.18 220.088 177.717 220.176 177.201 220.176C176.557 220.176 175.991 220.05 175.505 219.798C175.024 219.546 174.649 219.209 174.38 218.787C174.116 218.359 173.984 217.882 173.984 217.354C173.984 216.845 174.084 216.396 174.283 216.01C174.482 215.617 174.77 215.292 175.145 215.034C175.52 214.771 175.971 214.571 176.498 214.437C177.025 214.302 177.614 214.234 178.265 214.234H180.154ZM185.981 215.465H187.739L184.988 220H183.23L185.981 215.465ZM187.344 210.49H191.316V220H189.69V211.809H187.344C186.881 211.809 186.503 211.888 186.21 212.046C185.917 212.198 185.703 212.397 185.568 212.644C185.434 212.89 185.366 213.145 185.366 213.408C185.366 213.666 185.428 213.915 185.551 214.155C185.674 214.39 185.867 214.583 186.131 214.735C186.395 214.888 186.734 214.964 187.15 214.964H190.13V216.3H187.15C186.605 216.3 186.122 216.227 185.7 216.08C185.278 215.934 184.921 215.731 184.628 215.474C184.335 215.21 184.112 214.902 183.96 214.551C183.808 214.193 183.731 213.807 183.731 213.391C183.731 212.975 183.811 212.591 183.969 212.239C184.133 211.888 184.367 211.58 184.672 211.316C184.982 211.053 185.36 210.851 185.806 210.71C186.257 210.563 186.77 210.49 187.344 210.49ZM68.665 231.49V232.835H64.2705V241H62.6445V231.49H68.665ZM71.7061 233.318V244.656H70.0713V231.49H71.5654L71.7061 233.318ZM78.1133 236.166V236.351C78.1133 237.042 78.0312 237.684 77.8672 238.275C77.7031 238.861 77.4629 239.371 77.1465 239.805C76.8359 240.238 76.4521 240.575 75.9951 240.815C75.5381 241.056 75.0137 241.176 74.4219 241.176C73.8184 241.176 73.2852 241.076 72.8223 240.877C72.3594 240.678 71.9668 240.388 71.6445 240.007C71.3223 239.626 71.0645 239.169 70.8711 238.636C70.6836 238.103 70.5547 237.502 70.4844 236.834V235.85C70.5547 235.146 70.6865 234.517 70.8799 233.96C71.0732 233.403 71.3281 232.929 71.6445 232.536C71.9668 232.138 72.3564 231.836 72.8135 231.631C73.2705 231.42 73.7979 231.314 74.3955 231.314C74.9932 231.314 75.5234 231.432 75.9863 231.666C76.4492 231.895 76.8389 232.223 77.1553 232.65C77.4717 233.078 77.709 233.591 77.8672 234.188C78.0312 234.78 78.1133 235.439 78.1133 236.166ZM76.4785 236.351V236.166C76.4785 235.691 76.4287 235.246 76.3291 234.83C76.2295 234.408 76.0742 234.039 75.8633 233.723C75.6582 233.4 75.3945 233.148 75.0723 232.967C74.75 232.779 74.3662 232.686 73.9209 232.686C73.5107 232.686 73.1533 232.756 72.8486 232.896C72.5498 233.037 72.2949 233.228 72.084 233.468C71.873 233.702 71.7002 233.972 71.5654 234.276C71.4365 234.575 71.3398 234.886 71.2754 235.208V237.484C71.3926 237.895 71.5566 238.281 71.7676 238.645C71.9785 239.002 72.2598 239.292 72.6113 239.515C72.9629 239.731 73.4053 239.84 73.9385 239.84C74.3779 239.84 74.7559 239.749 75.0723 239.567C75.3945 239.38 75.6582 239.125 75.8633 238.803C76.0742 238.48 76.2295 238.111 76.3291 237.695C76.4287 237.273 76.4785 236.825 76.4785 236.351ZM85.7949 239.374V234.479C85.7949 234.104 85.7188 233.778 85.5664 233.503C85.4199 233.222 85.1973 233.005 84.8984 232.853C84.5996 232.7 84.2305 232.624 83.791 232.624C83.3809 232.624 83.0205 232.694 82.71 232.835C82.4053 232.976 82.165 233.16 81.9893 233.389C81.8193 233.617 81.7344 233.863 81.7344 234.127H80.1084C80.1084 233.787 80.1963 233.45 80.3721 233.116C80.5479 232.782 80.7998 232.48 81.1279 232.211C81.4619 231.936 81.8604 231.719 82.3232 231.561C82.792 231.396 83.3135 231.314 83.8877 231.314C84.5791 231.314 85.1885 231.432 85.7158 231.666C86.249 231.9 86.665 232.255 86.9639 232.729C87.2686 233.198 87.4209 233.787 87.4209 234.496V238.926C87.4209 239.242 87.4473 239.579 87.5 239.937C87.5586 240.294 87.6436 240.602 87.7549 240.859V241H86.0586C85.9766 240.812 85.9121 240.563 85.8652 240.253C85.8184 239.937 85.7949 239.644 85.7949 239.374ZM86.0762 235.234L86.0938 236.377H84.4502C83.9873 236.377 83.5742 236.415 83.2109 236.491C82.8477 236.562 82.543 236.67 82.2969 236.816C82.0508 236.963 81.8633 237.147 81.7344 237.37C81.6055 237.587 81.541 237.842 81.541 238.135C81.541 238.434 81.6084 238.706 81.7432 238.952C81.8779 239.198 82.0801 239.395 82.3496 239.541C82.625 239.682 82.9619 239.752 83.3604 239.752C83.8584 239.752 84.2979 239.646 84.6787 239.436C85.0596 239.225 85.3613 238.967 85.584 238.662C85.8125 238.357 85.9355 238.062 85.9531 237.774L86.6475 238.557C86.6064 238.803 86.4951 239.075 86.3135 239.374C86.1318 239.673 85.8887 239.96 85.584 240.235C85.2852 240.505 84.9277 240.73 84.5117 240.912C84.1016 241.088 83.6387 241.176 83.123 241.176C82.4785 241.176 81.9131 241.05 81.4268 240.798C80.9463 240.546 80.5713 240.209 80.3018 239.787C80.0381 239.359 79.9062 238.882 79.9062 238.354C79.9062 237.845 80.0059 237.396 80.2051 237.01C80.4043 236.617 80.6914 236.292 81.0664 236.034C81.4414 235.771 81.8926 235.571 82.4199 235.437C82.9473 235.302 83.5361 235.234 84.1865 235.234H86.0762ZM100.912 236.412V236.597C100.912 237.265 100.839 237.88 100.692 238.442C100.546 238.999 100.326 239.482 100.033 239.893C99.7461 240.303 99.3887 240.622 98.9609 240.851C98.5332 241.073 98.0381 241.185 97.4756 241.185C97.0127 241.185 96.6055 241.123 96.2539 241C95.9023 240.871 95.6035 240.687 95.3574 240.446C95.1172 240.206 94.9238 239.919 94.7773 239.585C94.6367 239.245 94.54 238.864 94.4873 238.442V234.224C94.54 233.772 94.6367 233.368 94.7773 233.011C94.9238 232.653 95.1172 232.349 95.3574 232.097C95.6035 231.845 95.8994 231.651 96.2451 231.517C96.5908 231.382 96.9951 231.314 97.458 231.314C97.915 231.314 98.3252 231.396 98.6885 231.561C99.0576 231.719 99.3799 231.947 99.6553 232.246C99.9365 232.545 100.168 232.905 100.35 233.327C100.537 233.743 100.678 234.212 100.771 234.733C100.865 235.255 100.912 235.814 100.912 236.412ZM99.2861 236.597V236.412C99.2861 236.002 99.2568 235.612 99.1982 235.243C99.1455 234.868 99.0605 234.525 98.9434 234.215C98.832 233.898 98.6855 233.623 98.5039 233.389C98.3223 233.154 98.1025 232.973 97.8447 232.844C97.5928 232.715 97.3027 232.65 96.9746 232.65C96.623 232.65 96.3301 232.694 96.0957 232.782C95.8672 232.87 95.6885 232.987 95.5596 233.134C95.4307 233.274 95.3369 233.424 95.2783 233.582V239.093C95.3486 239.222 95.4512 239.345 95.5859 239.462C95.7207 239.573 95.9023 239.667 96.1309 239.743C96.3594 239.813 96.6465 239.849 96.9922 239.849C97.4023 239.849 97.751 239.767 98.0381 239.603C98.3311 239.433 98.5684 239.198 98.75 238.899C98.9375 238.601 99.0723 238.255 99.1543 237.862C99.2422 237.47 99.2861 237.048 99.2861 236.597ZM89.6182 236.597V236.412C89.6182 235.814 89.665 235.255 89.7588 234.733C89.8525 234.212 89.9932 233.743 90.1807 233.327C90.3682 232.905 90.5996 232.545 90.875 232.246C91.1562 231.947 91.4785 231.719 91.8418 231.561C92.2109 231.396 92.624 231.314 93.0811 231.314C93.5322 231.314 93.9248 231.382 94.2588 231.517C94.5986 231.651 94.8857 231.845 95.1201 232.097C95.3545 232.349 95.542 232.653 95.6826 233.011C95.8232 233.368 95.9229 233.772 95.9814 234.224V238.275C95.9287 238.721 95.832 239.122 95.6914 239.479C95.5508 239.837 95.3633 240.145 95.1289 240.402C94.8945 240.654 94.6045 240.848 94.2588 240.982C93.9189 241.117 93.5205 241.185 93.0635 241.185C92.501 241.185 92.0059 241.073 91.5781 240.851C91.1504 240.622 90.79 240.303 90.4971 239.893C90.21 239.482 89.9902 238.999 89.8379 238.442C89.6914 237.88 89.6182 237.265 89.6182 236.597ZM91.2529 236.412V236.597C91.2529 237.048 91.291 237.47 91.3672 237.862C91.4492 238.255 91.5752 238.601 91.7451 238.899C91.9209 239.198 92.1494 239.433 92.4307 239.603C92.7119 239.767 93.0576 239.849 93.4678 239.849C93.8193 239.849 94.1094 239.805 94.3379 239.717C94.5664 239.629 94.748 239.515 94.8828 239.374C95.0176 239.233 95.1201 239.087 95.1904 238.935V233.582C95.1318 233.424 95.0352 233.274 94.9004 233.134C94.7715 232.987 94.5928 232.87 94.3643 232.782C94.1357 232.694 93.8428 232.65 93.4854 232.65C93.0752 232.65 92.7266 232.75 92.4395 232.949C92.1523 233.148 91.9209 233.421 91.7451 233.767C91.5752 234.112 91.4492 234.514 91.3672 234.971C91.291 235.422 91.2529 235.902 91.2529 236.412ZM94.3818 244.656V227.5H96.0166V244.656H94.3818ZM104.797 238.425L109.183 231.49H110.817V241H109.183V234.065L104.797 241H103.18V231.49H104.797V238.425ZM115.194 231.49V241H113.568V231.49H115.194ZM121.435 231.49L116.926 236.939H114.649L114.403 235.516H116.267L119.457 231.49H121.435ZM119.686 241L116.188 236.693L117.233 235.516L121.751 241H119.686ZM128.773 239.374V234.479C128.773 234.104 128.697 233.778 128.545 233.503C128.398 233.222 128.176 233.005 127.877 232.853C127.578 232.7 127.209 232.624 126.77 232.624C126.359 232.624 125.999 232.694 125.688 232.835C125.384 232.976 125.144 233.16 124.968 233.389C124.798 233.617 124.713 233.863 124.713 234.127H123.087C123.087 233.787 123.175 233.45 123.351 233.116C123.526 232.782 123.778 232.48 124.106 232.211C124.44 231.936 124.839 231.719 125.302 231.561C125.771 231.396 126.292 231.314 126.866 231.314C127.558 231.314 128.167 231.432 128.694 231.666C129.228 231.9 129.644 232.255 129.942 232.729C130.247 233.198 130.399 233.787 130.399 234.496V238.926C130.399 239.242 130.426 239.579 130.479 239.937C130.537 240.294 130.622 240.602 130.733 240.859V241H129.037C128.955 240.812 128.891 240.563 128.844 240.253C128.797 239.937 128.773 239.644 128.773 239.374ZM129.055 235.234L129.072 236.377H127.429C126.966 236.377 126.553 236.415 126.189 236.491C125.826 236.562 125.521 236.67 125.275 236.816C125.029 236.963 124.842 237.147 124.713 237.37C124.584 237.587 124.52 237.842 124.52 238.135C124.52 238.434 124.587 238.706 124.722 238.952C124.856 239.198 125.059 239.395 125.328 239.541C125.604 239.682 125.94 239.752 126.339 239.752C126.837 239.752 127.276 239.646 127.657 239.436C128.038 239.225 128.34 238.967 128.562 238.662C128.791 238.357 128.914 238.062 128.932 237.774L129.626 238.557C129.585 238.803 129.474 239.075 129.292 239.374C129.11 239.673 128.867 239.96 128.562 240.235C128.264 240.505 127.906 240.73 127.49 240.912C127.08 241.088 126.617 241.176 126.102 241.176C125.457 241.176 124.892 241.05 124.405 240.798C123.925 240.546 123.55 240.209 123.28 239.787C123.017 239.359 122.885 238.882 122.885 238.354C122.885 237.845 122.984 237.396 123.184 237.01C123.383 236.617 123.67 236.292 124.045 236.034C124.42 235.771 124.871 235.571 125.398 235.437C125.926 235.302 126.515 235.234 127.165 235.234H129.055Z" fill="#272727"/>
</svg>
