<svg width="1798" height="192" viewBox="0 0 1798 192" fill="none" xmlns="http://www.w3.org/2000/svg">
<path d="M308.172 175.266L318.982 157.406H323.834V183H318.982V165.141L308.172 183H303.338V157.406H308.172V175.266ZM345.736 167.971V171.768H332.271V167.971H345.736ZM333.59 157.406V183H328.756V157.406H333.59ZM349.322 157.406V183H344.488V157.406H349.322ZM363.701 159.762H369.062C370.586 159.762 371.986 160.014 373.264 160.518C374.541 161.021 375.654 161.736 376.604 162.662C377.564 163.588 378.309 164.695 378.836 165.984C379.363 167.273 379.627 168.715 379.627 170.309C379.627 171.867 379.363 173.285 378.836 174.562C378.309 175.84 377.564 176.941 376.604 177.867C375.654 178.781 374.541 179.484 373.264 179.977C371.986 180.469 370.586 180.715 369.062 180.715H363.701C362.178 180.715 360.771 180.469 359.482 179.977C358.205 179.484 357.086 178.781 356.125 177.867C355.176 176.953 354.438 175.863 353.91 174.598C353.383 173.32 353.119 171.902 353.119 170.344C353.119 168.75 353.383 167.309 353.91 166.02C354.438 164.73 355.176 163.617 356.125 162.68C357.086 161.742 358.205 161.021 359.482 160.518C360.771 160.014 362.178 159.762 363.701 159.762ZM363.701 163.629C362.482 163.629 361.422 163.893 360.52 164.42C359.617 164.947 358.92 165.709 358.428 166.705C357.936 167.701 357.689 168.914 357.689 170.344C357.689 171.387 357.83 172.312 358.111 173.121C358.404 173.93 358.814 174.609 359.342 175.16C359.869 175.711 360.502 176.133 361.24 176.426C361.979 176.707 362.799 176.848 363.701 176.848H369.098C370.305 176.848 371.348 176.59 372.227 176.074C373.117 175.559 373.809 174.814 374.301 173.842C374.793 172.857 375.039 171.68 375.039 170.309C375.039 169.242 374.898 168.299 374.617 167.479C374.336 166.646 373.938 165.943 373.422 165.369C372.906 164.795 372.279 164.361 371.541 164.068C370.814 163.775 370 163.629 369.098 163.629H363.701ZM368.711 156.352V184.055H364.07V156.352H368.711ZM404.008 169.553V170.871C404.008 172.805 403.75 174.545 403.234 176.092C402.719 177.627 401.986 178.934 401.037 180.012C400.088 181.09 398.957 181.916 397.645 182.49C396.332 183.064 394.873 183.352 393.268 183.352C391.686 183.352 390.232 183.064 388.908 182.49C387.596 181.916 386.459 181.09 385.498 180.012C384.537 178.934 383.793 177.627 383.266 176.092C382.738 174.545 382.475 172.805 382.475 170.871V169.553C382.475 167.607 382.738 165.867 383.266 164.332C383.793 162.797 384.531 161.49 385.48 160.412C386.43 159.322 387.561 158.49 388.873 157.916C390.197 157.342 391.65 157.055 393.232 157.055C394.838 157.055 396.297 157.342 397.609 157.916C398.922 158.49 400.053 159.322 401.002 160.412C401.963 161.49 402.701 162.797 403.217 164.332C403.744 165.867 404.008 167.607 404.008 169.553ZM399.121 170.871V169.518C399.121 168.123 398.992 166.898 398.734 165.844C398.477 164.777 398.096 163.881 397.592 163.154C397.088 162.428 396.467 161.883 395.729 161.52C394.99 161.145 394.158 160.957 393.232 160.957C392.295 160.957 391.463 161.145 390.736 161.52C390.021 161.883 389.412 162.428 388.908 163.154C388.404 163.881 388.018 164.777 387.748 165.844C387.49 166.898 387.361 168.123 387.361 169.518V170.871C387.361 172.254 387.49 173.479 387.748 174.545C388.018 175.611 388.404 176.514 388.908 177.252C389.424 177.979 390.045 178.529 390.771 178.904C391.498 179.279 392.33 179.467 393.268 179.467C394.205 179.467 395.037 179.279 395.764 178.904C396.49 178.529 397.1 177.979 397.592 177.252C398.096 176.514 398.477 175.611 398.734 174.545C398.992 173.479 399.121 172.254 399.121 170.871ZM417.947 173.666H411.355V169.869H417.947C419.025 169.869 419.898 169.693 420.566 169.342C421.246 168.979 421.744 168.486 422.061 167.865C422.377 167.232 422.535 166.512 422.535 165.703C422.535 164.918 422.377 164.186 422.061 163.506C421.744 162.826 421.246 162.275 420.566 161.854C419.898 161.432 419.025 161.221 417.947 161.221H412.938V183H408.104V157.406H417.947C419.939 157.406 421.639 157.764 423.045 158.479C424.463 159.182 425.541 160.16 426.279 161.414C427.029 162.656 427.404 164.074 427.404 165.668C427.404 167.32 427.029 168.744 426.279 169.939C425.541 171.135 424.463 172.055 423.045 172.699C421.639 173.344 419.939 173.666 417.947 173.666ZM433.311 157.406H437.494L444.49 176.672L451.469 157.406H455.67L446.16 183H442.803L433.311 157.406ZM431.201 157.406H435.297L436.035 175.107V183H431.201V157.406ZM453.666 157.406H457.779V183H452.945V175.107L453.666 157.406ZM473.195 161.291L465.9 183H460.785L470.348 157.406H473.617L473.195 161.291ZM479.295 183L471.965 161.291L471.525 157.406H474.812L484.428 183H479.295ZM478.961 173.49V177.305H465.232V173.49H478.961ZM510.725 179.186L510.391 189.17H505.891V183H503.693V179.186H510.725ZM486.889 183V157.406H491.723V179.203H502.551V157.406H507.402V183H486.889ZM518.898 175.266L529.709 157.406H534.561V183H529.709V165.141L518.898 183H514.064V157.406H518.898V175.266ZM553.229 173.543H546.215L544.457 172.822C542.488 172.201 540.982 171.264 539.939 170.01C538.896 168.756 538.375 167.168 538.375 165.246C538.375 163.547 538.75 162.117 539.5 160.957C540.262 159.785 541.34 158.9 542.734 158.303C544.141 157.705 545.805 157.406 547.727 157.406H556.48V183H551.629V161.221H547.727C546.191 161.221 545.055 161.602 544.316 162.363C543.578 163.125 543.209 164.186 543.209 165.545C543.209 166.494 543.373 167.297 543.701 167.953C544.041 168.609 544.539 169.102 545.195 169.43C545.863 169.758 546.689 169.922 547.674 169.922H553.211L553.229 173.543ZM547.99 171.504L542.172 183H536.951L542.805 171.504H547.99ZM590.898 169.553V170.871C590.898 172.805 590.641 174.545 590.125 176.092C589.609 177.627 588.877 178.934 587.928 180.012C586.979 181.09 585.848 181.916 584.535 182.49C583.223 183.064 581.764 183.352 580.158 183.352C578.576 183.352 577.123 183.064 575.799 182.49C574.486 181.916 573.35 181.09 572.389 180.012C571.428 178.934 570.684 177.627 570.156 176.092C569.629 174.545 569.365 172.805 569.365 170.871V169.553C569.365 167.607 569.629 165.867 570.156 164.332C570.684 162.797 571.422 161.49 572.371 160.412C573.32 159.322 574.451 158.49 575.764 157.916C577.088 157.342 578.541 157.055 580.123 157.055C581.729 157.055 583.188 157.342 584.5 157.916C585.812 158.49 586.943 159.322 587.893 160.412C588.854 161.49 589.592 162.797 590.107 164.332C590.635 165.867 590.898 167.607 590.898 169.553ZM586.012 170.871V169.518C586.012 168.123 585.883 166.898 585.625 165.844C585.367 164.777 584.986 163.881 584.482 163.154C583.979 162.428 583.357 161.883 582.619 161.52C581.881 161.145 581.049 160.957 580.123 160.957C579.186 160.957 578.354 161.145 577.627 161.52C576.912 161.883 576.303 162.428 575.799 163.154C575.295 163.881 574.908 164.777 574.639 165.844C574.381 166.898 574.252 168.123 574.252 169.518V170.871C574.252 172.254 574.381 173.479 574.639 174.545C574.908 175.611 575.295 176.514 575.799 177.252C576.314 177.979 576.936 178.529 577.662 178.904C578.389 179.279 579.221 179.467 580.158 179.467C581.096 179.467 581.928 179.279 582.654 178.904C583.381 178.529 583.99 177.979 584.482 177.252C584.986 176.514 585.367 175.611 585.625 174.545C585.883 173.479 586.012 172.254 586.012 170.871ZM611.465 157.406V161.221H599.758V183H594.941V157.406H611.465ZM598.193 166.986H604.398C606.379 166.986 608.078 167.32 609.496 167.988C610.914 168.645 611.998 169.564 612.748 170.748C613.51 171.932 613.891 173.32 613.891 174.914C613.891 176.109 613.674 177.199 613.24 178.184C612.818 179.168 612.197 180.023 611.377 180.75C610.557 181.465 609.561 182.021 608.389 182.42C607.217 182.807 605.887 183 604.398 183H594.941V157.406H599.793V179.203H604.398C605.453 179.203 606.326 179.004 607.018 178.605C607.709 178.207 608.225 177.68 608.564 177.023C608.904 176.367 609.074 175.652 609.074 174.879C609.074 174.117 608.904 173.426 608.564 172.805C608.225 172.184 607.709 171.691 607.018 171.328C606.326 170.965 605.453 170.783 604.398 170.783H598.193V166.986ZM643.545 168.305V172.119H632.77V168.305H643.545ZM625.527 174.598H630.344C630.449 175.676 630.695 176.584 631.082 177.322C631.48 178.061 632.055 178.623 632.805 179.01C633.555 179.385 634.516 179.572 635.688 179.572C636.672 179.572 637.516 179.385 638.219 179.01C638.934 178.623 639.514 178.066 639.959 177.34C640.416 176.613 640.75 175.734 640.961 174.703C641.184 173.672 641.295 172.5 641.295 171.188V169.236C641.295 168.146 641.219 167.162 641.066 166.283C640.914 165.393 640.68 164.613 640.363 163.945C640.059 163.266 639.678 162.703 639.221 162.258C638.764 161.801 638.23 161.455 637.621 161.221C637.012 160.986 636.332 160.869 635.582 160.869C634.387 160.869 633.42 161.074 632.682 161.484C631.943 161.883 631.393 162.463 631.029 163.225C630.666 163.975 630.432 164.883 630.326 165.949H625.51C625.674 164.227 626.154 162.697 626.951 161.361C627.748 160.014 628.861 158.959 630.291 158.197C631.732 157.436 633.496 157.055 635.582 157.055C637.188 157.055 638.635 157.342 639.924 157.916C641.225 158.479 642.338 159.293 643.264 160.359C644.189 161.426 644.893 162.709 645.373 164.209C645.865 165.709 646.111 167.396 646.111 169.271V171.188C646.111 173.051 645.871 174.732 645.391 176.232C644.91 177.732 644.219 179.01 643.316 180.064C642.414 181.119 641.318 181.934 640.029 182.508C638.752 183.082 637.305 183.369 635.688 183.369C633.613 183.369 631.844 182.994 630.379 182.244C628.914 181.482 627.771 180.445 626.951 179.133C626.131 177.809 625.656 176.297 625.527 174.598ZM660.578 157.406V183H655.762V157.406H660.578ZM668.523 157.406V161.221H647.904V157.406H668.523ZM680.125 161.291L672.83 183H667.715L677.277 157.406H680.547L680.125 161.291ZM686.225 183L678.895 161.291L678.455 157.406H681.742L691.357 183H686.225ZM685.891 173.49V177.305H672.162V173.49H685.891ZM714.543 157.406V183H709.709V161.221H698.881V183H694.047V157.406H714.543ZM729.695 161.291L722.4 183H717.285L726.848 157.406H730.117L729.695 161.291ZM735.795 183L728.465 161.291L728.025 157.406H731.312L740.928 183H735.795ZM735.461 173.49V177.305H721.732V173.49H735.461ZM747.414 157.406L752.529 166.529L757.662 157.406H763.217L755.623 170.098L763.41 183H757.803L752.529 173.701L747.273 183H741.648L749.436 170.098L741.842 157.406H747.414ZM780.232 157.406V183H775.398V157.406H780.232ZM795.473 157.406L785.365 172.207H779.02L778.387 167.953H782.746L789.584 157.406H795.473ZM790.498 183L782.781 171.434L786.033 167.865L796.281 183H790.498ZM818.746 169.553V170.871C818.746 172.805 818.488 174.545 817.973 176.092C817.457 177.627 816.725 178.934 815.775 180.012C814.826 181.09 813.695 181.916 812.383 182.49C811.07 183.064 809.611 183.352 808.006 183.352C806.424 183.352 804.971 183.064 803.646 182.49C802.334 181.916 801.197 181.09 800.236 180.012C799.275 178.934 798.531 177.627 798.004 176.092C797.477 174.545 797.213 172.805 797.213 170.871V169.553C797.213 167.607 797.477 165.867 798.004 164.332C798.531 162.797 799.27 161.49 800.219 160.412C801.168 159.322 802.299 158.49 803.611 157.916C804.936 157.342 806.389 157.055 807.971 157.055C809.576 157.055 811.035 157.342 812.348 157.916C813.66 158.49 814.791 159.322 815.74 160.412C816.701 161.49 817.439 162.797 817.955 164.332C818.482 165.867 818.746 167.607 818.746 169.553ZM813.859 170.871V169.518C813.859 168.123 813.73 166.898 813.473 165.844C813.215 164.777 812.834 163.881 812.33 163.154C811.826 162.428 811.205 161.883 810.467 161.52C809.729 161.145 808.896 160.957 807.971 160.957C807.033 160.957 806.201 161.145 805.475 161.52C804.76 161.883 804.15 162.428 803.646 163.154C803.143 163.881 802.756 164.777 802.486 165.844C802.229 166.898 802.1 168.123 802.1 169.518V170.871C802.1 172.254 802.229 173.479 802.486 174.545C802.756 175.611 803.143 176.514 803.646 177.252C804.162 177.979 804.783 178.529 805.51 178.904C806.236 179.279 807.068 179.467 808.006 179.467C808.943 179.467 809.775 179.279 810.502 178.904C811.229 178.529 811.838 177.979 812.33 177.252C812.834 176.514 813.215 175.611 813.473 174.545C813.73 173.479 813.859 172.254 813.859 170.871ZM839.822 167.971V171.768H826.357V167.971H839.822ZM827.676 157.406V183H822.842V157.406H827.676ZM843.408 157.406V183H838.574V157.406H843.408ZM853.217 157.406V183H848.383V157.406H853.217ZM868.457 157.406L858.35 172.207H852.004L851.371 167.953H855.73L862.568 157.406H868.457ZM863.482 183L855.766 171.434L859.018 167.865L869.266 183H863.482ZM879.584 173.912L885.982 157.406H891.238L882.414 178.201C882.121 178.869 881.787 179.514 881.412 180.135C881.037 180.756 880.586 181.312 880.059 181.805C879.543 182.285 878.916 182.666 878.178 182.947C877.451 183.229 876.572 183.369 875.541 183.369C875.271 183.369 874.949 183.357 874.574 183.334C874.199 183.322 873.912 183.305 873.713 183.281V179.484C873.854 179.52 874.082 179.543 874.398 179.555C874.727 179.566 874.961 179.572 875.102 179.572C875.781 179.572 876.32 179.467 876.719 179.256C877.129 179.033 877.451 178.734 877.686 178.359C877.932 177.973 878.148 177.533 878.336 177.041L879.584 173.912ZM875.049 157.406L881.184 170.818L882.625 176.039L878.951 176.145L869.811 157.406H875.049ZM904.123 173.666H897.531V169.869H904.123C905.201 169.869 906.074 169.693 906.742 169.342C907.422 168.979 907.92 168.486 908.236 167.865C908.553 167.232 908.711 166.512 908.711 165.703C908.711 164.918 908.553 164.186 908.236 163.506C907.92 162.826 907.422 162.275 906.742 161.854C906.074 161.432 905.201 161.221 904.123 161.221H899.113V183H894.279V157.406H904.123C906.115 157.406 907.814 157.764 909.221 158.479C910.639 159.182 911.717 160.16 912.455 161.414C913.205 162.656 913.58 164.074 913.58 165.668C913.58 167.32 913.205 168.744 912.455 169.939C911.717 171.135 910.639 172.055 909.221 172.699C907.814 173.344 906.115 173.666 904.123 173.666ZM932.354 174.58H937.188C937.059 176.291 936.584 177.809 935.764 179.133C934.943 180.445 933.801 181.477 932.336 182.227C930.871 182.977 929.096 183.352 927.01 183.352C925.404 183.352 923.957 183.07 922.668 182.508C921.391 181.934 920.295 181.119 919.381 180.064C918.479 178.998 917.787 177.721 917.307 176.232C916.826 174.732 916.586 173.051 916.586 171.188V169.236C916.586 167.373 916.832 165.691 917.324 164.191C917.816 162.691 918.52 161.414 919.434 160.359C920.359 159.293 921.467 158.473 922.756 157.898C924.057 157.324 925.51 157.037 927.115 157.037C929.201 157.037 930.965 157.424 932.406 158.197C933.848 158.959 934.967 160.008 935.764 161.344C936.561 162.68 937.041 164.215 937.205 165.949H932.371C932.277 164.871 932.043 163.957 931.668 163.207C931.305 162.457 930.754 161.889 930.016 161.502C929.289 161.104 928.322 160.904 927.115 160.904C926.178 160.904 925.352 161.08 924.637 161.432C923.934 161.783 923.348 162.311 922.879 163.014C922.41 163.705 922.059 164.572 921.824 165.615C921.59 166.646 921.473 167.842 921.473 169.201V171.188C921.473 172.488 921.578 173.654 921.789 174.686C922 175.717 922.328 176.59 922.773 177.305C923.219 178.02 923.793 178.564 924.496 178.939C925.199 179.314 926.037 179.502 927.01 179.502C928.193 179.502 929.154 179.314 929.893 178.939C930.643 178.564 931.211 178.014 931.598 177.287C931.996 176.561 932.248 175.658 932.354 174.58ZM951.109 161.291L943.814 183H938.699L948.262 157.406H951.531L951.109 161.291ZM957.209 183L949.879 161.291L949.439 157.406H952.727L962.342 183H957.209ZM956.875 173.49V177.305H943.146V173.49H956.875Z" fill="#286CBB"/>
<path d="M-32 167L268 167" stroke="#368EF5" stroke-opacity="0.7" stroke-width="7"/>
<path fill-rule="evenodd" clip-rule="evenodd" d="M1787.92 28.262V1.54148e-06L1752.66 0V28.262L1742.58 28.2618V114.514C1742.58 129.07 1753.81 141.005 1768.08 142.134V163.908H988V170.908H1771.58H1775.08V167.408V141.81C1788.1 139.544 1798 128.185 1798 114.514V28.2618L1787.92 28.262ZM1752.73 115.506C1752.73 105.787 1760.61 97.9077 1770.33 97.9077C1780.05 97.9077 1787.92 105.787 1787.92 115.506C1787.92 125.226 1780.05 133.105 1770.33 133.105C1760.61 133.105 1752.73 125.226 1752.73 115.506Z" fill="#368EF5" fill-opacity="0.7"/>
</svg>
