<svg width="205" height="128" viewBox="0 0 205 128" fill="none" xmlns="http://www.w3.org/2000/svg">
<rect x="43.7921" y="57.0055" width="13.6929" height="15.4597" transform="rotate(-90 43.7921 57.0055)" fill="#368EF5"/>
<path fill-rule="evenodd" clip-rule="evenodd" d="M39.3749 100.072C39.3749 106.781 44.8133 112.219 51.5218 112.219C58.2304 112.219 63.6687 106.781 63.6687 100.072L63.6687 57.0057L39.3749 57.0057L39.3749 100.072ZM59.2518 100.072C59.2518 95.8029 55.791 92.3421 51.5219 92.3421C47.2528 92.3421 43.7921 95.8029 43.7921 100.072C43.7921 104.341 47.2528 107.802 51.5219 107.802C55.791 107.802 59.2518 104.341 59.2518 100.072Z" fill="#368EF5"/>
<path d="M88.2419 74.0273V80.8207H86.0619V76.0373H72.4499V57.8706H74.7312V74.0019H83.7806V57.8706H86.0366V74.0273H88.2419Z" fill="#FF9B05"/>
<path d="M93.038 70.7196C93.038 70.8723 93.0296 71.0928 93.0127 71.3812C93.0127 71.6526 93.0042 71.9494 92.9873 72.2717C92.9704 72.577 92.9535 72.8739 92.9366 73.1622C92.9197 73.4336 92.9028 73.6541 92.8859 73.8238L100.161 62.3996H102.899V76.0373H100.82V67.9972C100.82 67.7258 100.82 67.3696 100.82 66.9285C100.837 66.4875 100.854 66.055 100.871 65.6309C100.888 65.1899 100.904 64.8591 100.921 64.6386L93.6971 76.0373H90.9341V62.3996H93.038V70.7196Z" fill="#FF9B05"/>
<path d="M115.334 62.196C116.686 62.3148 117.86 62.671 118.857 63.2646C119.871 63.8583 120.657 64.6556 121.215 65.6564C121.772 66.6571 122.051 67.8445 122.051 69.2185C122.051 70.5924 121.781 71.7883 121.24 72.806C120.699 73.8068 119.93 74.604 118.933 75.1977C117.936 75.7744 116.736 76.1222 115.334 76.2409V82.1438H113.154V76.2409C111.819 76.1222 110.644 75.7744 109.63 75.1977C108.617 74.604 107.831 73.8068 107.273 72.806C106.715 71.7883 106.437 70.5924 106.437 69.2185C106.437 67.8275 106.707 66.6317 107.248 65.6309C107.788 64.6132 108.566 63.8159 109.58 63.2392C110.594 62.6455 111.81 62.2978 113.23 62.196V56.7002H115.334V62.196ZM113.23 64.0534C112.199 64.1552 111.354 64.4181 110.695 64.8422C110.036 65.2662 109.546 65.8429 109.225 66.5723C108.921 67.3017 108.769 68.1838 108.769 69.2185C108.769 70.2362 108.921 71.1182 109.225 71.8646C109.546 72.594 110.036 73.1792 110.695 73.6202C111.354 74.0443 112.199 74.3072 113.23 74.409V64.0534ZM115.334 74.409C116.348 74.2902 117.176 74.0188 117.818 73.5948C118.477 73.1707 118.959 72.594 119.263 71.8646C119.584 71.1182 119.744 70.2362 119.744 69.2185C119.744 68.2007 119.584 67.3271 119.263 66.5978C118.942 65.8684 118.452 65.2917 117.793 64.8676C117.15 64.4435 116.331 64.1806 115.334 64.0788V74.409Z" fill="#FF9B05"/>
<path d="M132.054 62.1451C133.727 62.1451 135.07 62.7303 136.084 63.9007C137.115 65.0711 137.63 66.8352 137.63 69.193C137.63 70.7366 137.394 72.0427 136.921 73.1113C136.464 74.163 135.814 74.9602 134.969 75.503C134.141 76.0289 133.161 76.2918 132.028 76.2918C131.336 76.2918 130.719 76.1985 130.178 76.0119C129.637 75.8253 129.173 75.5878 128.784 75.2995C128.412 74.9942 128.091 74.6634 127.821 74.3072H127.669C127.702 74.5955 127.736 74.9602 127.77 75.4013C127.804 75.8423 127.821 76.2239 127.821 76.5462V82.1438H125.59V62.3996H127.415L127.719 64.257H127.821C128.091 63.8668 128.412 63.5106 128.784 63.1883C129.173 62.866 129.629 62.6116 130.153 62.425C130.693 62.2384 131.327 62.1451 132.054 62.1451ZM131.648 64.028C130.736 64.028 130.001 64.2061 129.443 64.5623C128.885 64.9015 128.48 65.4189 128.226 66.1143C127.973 66.8098 127.837 67.6918 127.821 68.7605V69.193C127.821 70.3125 127.939 71.2624 128.175 72.0427C128.412 72.823 128.809 73.4167 129.367 73.8238C129.941 74.2309 130.719 74.4344 131.699 74.4344C132.527 74.4344 133.203 74.2054 133.727 73.7474C134.268 73.2894 134.665 72.6703 134.918 71.89C135.188 71.0928 135.324 70.1853 135.324 69.1676C135.324 67.607 135.02 66.3603 134.411 65.4274C133.82 64.4944 132.899 64.028 131.648 64.028Z" fill="#FF9B05"/>
<path d="M152.997 69.193C152.997 70.3295 152.845 71.3388 152.541 72.2208C152.254 73.0859 151.831 73.8238 151.274 74.4344C150.733 75.045 150.065 75.5115 149.271 75.8338C148.494 76.1391 147.624 76.2918 146.66 76.2918C145.765 76.2918 144.937 76.1391 144.176 75.8338C143.416 75.5115 142.757 75.045 142.199 74.4344C141.641 73.8238 141.202 73.0859 140.881 72.2208C140.577 71.3388 140.425 70.3295 140.425 69.193C140.425 67.6834 140.678 66.4112 141.185 65.3765C141.692 64.3248 142.419 63.5276 143.365 62.9848C144.311 62.425 145.435 62.1451 146.736 62.1451C147.97 62.1451 149.051 62.425 149.981 62.9848C150.927 63.5276 151.662 64.3248 152.186 65.3765C152.727 66.4112 152.997 67.6834 152.997 69.193ZM142.731 69.193C142.731 70.2616 142.867 71.1946 143.137 71.9918C143.424 72.7721 143.864 73.3742 144.455 73.7983C145.046 74.2224 145.798 74.4344 146.711 74.4344C147.624 74.4344 148.376 74.2224 148.967 73.7983C149.558 73.3742 149.989 72.7721 150.26 71.9918C150.547 71.1946 150.691 70.2616 150.691 69.193C150.691 68.1074 150.547 67.183 150.26 66.4197C149.972 65.6564 149.533 65.0711 148.942 64.664C148.367 64.24 147.615 64.028 146.686 64.028C145.3 64.028 144.294 64.4859 143.669 65.4019C143.044 66.3179 142.731 67.5816 142.731 69.193Z" fill="#FF9B05"/>
<path d="M167.458 65.8345C167.458 66.6826 167.204 67.3441 166.697 67.8191C166.19 68.294 165.54 68.6163 164.745 68.7859V68.8877C165.59 69.0064 166.326 69.3118 166.951 69.8037C167.576 70.2786 167.889 71.025 167.889 72.0427C167.889 72.6194 167.779 73.1537 167.559 73.6456C167.356 74.1376 167.035 74.5616 166.596 74.9178C166.157 75.274 165.59 75.5539 164.898 75.7575C164.205 75.9441 163.368 76.0373 162.388 76.0373H156.533V62.3996H162.363C163.326 62.3996 164.188 62.5098 164.948 62.7303C165.726 62.9339 166.334 63.2901 166.773 63.799C167.23 64.2909 167.458 64.9694 167.458 65.8345ZM165.582 72.0427C165.582 71.2624 165.286 70.7027 164.695 70.3634C164.103 70.0242 163.233 69.8545 162.084 69.8545H158.763V74.2309H162.135C163.25 74.2309 164.103 74.0697 164.695 73.7474C165.286 73.4082 165.582 72.8399 165.582 72.0427ZM165.202 66.1143C165.202 65.4698 164.965 65.0033 164.492 64.7149C164.036 64.4096 163.284 64.257 162.236 64.257H158.763V67.9972H161.83C162.929 67.9972 163.765 67.8445 164.34 67.5392C164.914 67.2339 165.202 66.7589 165.202 66.1143Z" fill="#FF9B05"/>
<path d="M182.95 69.193C182.95 70.3295 182.798 71.3388 182.494 72.2208C182.206 73.0859 181.784 73.8238 181.226 74.4344C180.685 75.045 180.018 75.5115 179.224 75.8338C178.446 76.1391 177.576 76.2918 176.613 76.2918C175.717 76.2918 174.889 76.1391 174.129 75.8338C173.368 75.5115 172.709 75.045 172.152 74.4344C171.594 73.8238 171.155 73.0859 170.833 72.2208C170.529 71.3388 170.377 70.3295 170.377 69.193C170.377 67.6834 170.631 66.4112 171.138 65.3765C171.645 64.3248 172.371 63.5276 173.318 62.9848C174.264 62.425 175.388 62.1451 176.689 62.1451C177.922 62.1451 179.004 62.425 179.933 62.9848C180.88 63.5276 181.615 64.3248 182.139 65.3765C182.68 66.4112 182.95 67.6834 182.95 69.193ZM172.684 69.193C172.684 70.2616 172.819 71.1946 173.089 71.9918C173.377 72.7721 173.816 73.3742 174.408 73.7983C174.999 74.2224 175.751 74.4344 176.664 74.4344C177.576 74.4344 178.328 74.2224 178.92 73.7983C179.511 73.3742 179.942 72.7721 180.212 71.9918C180.5 71.1946 180.643 70.2616 180.643 69.193C180.643 68.1074 180.5 67.183 180.212 66.4197C179.925 65.6564 179.486 65.0711 178.894 64.664C178.32 64.24 177.568 64.028 176.638 64.028C175.252 64.028 174.247 64.4859 173.622 65.4019C172.996 66.3179 172.684 67.5816 172.684 69.193Z" fill="#FF9B05"/>
<path d="M188.589 70.7196C188.589 70.8723 188.581 71.0928 188.564 71.3812C188.564 71.6526 188.555 71.9494 188.538 72.2717C188.522 72.577 188.505 72.8739 188.488 73.1622C188.471 73.4336 188.454 73.6541 188.437 73.8238L195.712 62.3996H198.45V76.0373H196.371V67.9972C196.371 67.7258 196.371 67.3696 196.371 66.9285C196.388 66.4875 196.405 66.055 196.422 65.6309C196.439 65.1899 196.456 64.8591 196.472 64.6386L189.248 76.0373H186.485V62.3996H188.589V70.7196Z" fill="#FF9B05"/>
<path d="M81.8541 85.3624C84.2622 85.3624 86.2774 85.5914 87.8997 86.0494C89.5473 86.482 90.7767 87.2071 91.5878 88.2248C92.4243 89.2171 92.8426 90.5657 92.8426 92.2704C92.8426 93.2881 92.6778 94.2168 92.3483 95.0565C92.0188 95.8961 91.5371 96.5831 90.9034 97.1174C90.2951 97.6517 89.5473 97.9952 88.6601 98.1479V98.3387C89.5726 98.5168 90.3965 98.8348 91.1316 99.2928C91.8667 99.7508 92.4497 100.412 92.8806 101.277C93.3115 102.143 93.527 103.287 93.527 104.712C93.527 106.366 93.1214 107.791 92.3103 108.987C91.5245 110.157 90.3838 111.06 88.8882 111.697C87.3927 112.307 85.6183 112.613 83.5651 112.613H73.4131V85.3624H81.8541ZM82.5005 96.1632C84.1735 96.1632 85.3268 95.8961 85.9605 95.3618C86.6196 94.8275 86.9491 94.0514 86.9491 93.0337C86.9491 91.9905 86.5689 91.2399 85.8084 90.7819C85.048 90.3239 83.8439 90.0949 82.1963 90.0949H79.1545V96.1632H82.5005ZM79.1545 100.743V107.842H82.9187C84.6424 107.842 85.8464 107.511 86.5309 106.85C87.2153 106.163 87.5575 105.259 87.5575 104.14C87.5575 103.453 87.4054 102.855 87.1012 102.346C86.8224 101.837 86.3281 101.443 85.6183 101.163C84.9086 100.883 83.9453 100.743 82.7286 100.743H79.1545Z" fill="#FF9B05"/>
<path d="M114.587 112.613H98.9594V85.3624H114.587V90.0949H104.701V96.0869H113.902V100.819H104.701V107.842H114.587V112.613Z" fill="#FF9B05"/>
<path d="M130.692 112.613H124.95V90.1713H117.574V85.3624H138.068V90.1713H130.692V112.613Z" fill="#FF9B05"/>
<path d="M157.882 112.613H142.254V85.3624H157.882V90.0949H147.996V96.0869H157.197V100.819H147.996V107.842H157.882V112.613Z" fill="#FF9B05"/>
<path d="M172.2 85.3624C175.698 85.3624 178.245 86.1257 179.842 87.6524C181.465 89.1535 182.276 91.2272 182.276 93.8733C182.276 95.0692 182.098 96.2141 181.743 97.3082C181.389 98.3768 180.793 99.3437 179.956 100.209C179.145 101.048 178.068 101.71 176.724 102.193C175.381 102.677 173.721 102.919 171.743 102.919H169.272V112.613H163.531V85.3624H172.2ZM171.896 90.0949H169.272V98.186H171.173C172.263 98.186 173.201 98.0461 173.987 97.7662C174.773 97.4863 175.381 97.0411 175.812 96.4304C176.243 95.8198 176.458 95.031 176.458 94.0642C176.458 92.7156 176.091 91.7233 175.356 91.0872C174.621 90.4257 173.467 90.0949 171.896 90.0949Z" fill="#FF9B05"/>
<path d="M51.9749 108.972V126H192.937V92.1376" stroke="#368EF5" stroke-width="3"/>
<mask id="mask0_1_354" style="mask-type:alpha" maskUnits="userSpaceOnUse" x="0" y="0" width="101" height="101">
<ellipse cx="50.3999" cy="50.3999" rx="50.3999" ry="50.3999" transform="rotate(-90 50.3999 50.3999)" fill="#9D6868"/>
</mask>
<g mask="url(#mask0_1_354)">
<path d="M51.1874 35.8314V14.1752" stroke="#368EF5" stroke-width="2" stroke-linecap="round"/>
<path d="M33.075 1.57495C33.075 1.57495 37.6228 14.1749 49.6125 14.1749C61.6021 14.1749 66.1499 1.57495 66.1499 1.57495" stroke="#368EF5" stroke-width="2" stroke-linecap="round"/>
<path d="M37.7999 1.57495C37.7999 1.57495 40.5562 10.2374 49.6124 10.2374C58.6686 10.2374 61.4249 1.57495 61.4249 1.57495" stroke="#368EF5" stroke-width="2" stroke-linecap="round"/>
<path d="M44.8875 2.36267C44.8875 2.36267 45.675 6.30016 49.6125 6.30016C53.55 6.30016 54.3375 2.36267 54.3375 2.36267" stroke="#368EF5" stroke-width="2" stroke-linecap="round"/>
<path d="M38.1507 42.0872L22.8375 26.7739" stroke="#368EF5" stroke-width="2" stroke-linecap="round"/>
<path d="M2.36255 28.1118C2.36255 28.1118 14.4879 33.8056 22.9658 25.3276C31.4438 16.8496 25.75 4.72432 25.75 4.72432" stroke="#368EF5" stroke-width="2" stroke-linecap="round"/>
<path d="M5.70361 24.7714C5.70361 24.7714 13.7779 28.9477 20.1816 22.544C26.5853 16.1403 22.409 8.06601 22.409 8.06601" stroke="#368EF5" stroke-width="2" stroke-linecap="round"/>
<path d="M11.2721 20.3156C11.2721 20.3156 14.6132 22.5429 17.3974 19.7587C20.1816 16.9745 17.9542 13.6334 17.9542 13.6334" stroke="#368EF5" stroke-width="2" stroke-linecap="round"/>
<path d="M33.4687 51.1868H11.8125" stroke="#368EF5" stroke-width="2" stroke-linecap="round"/>
<path d="M-0.787415 68.5121C-0.787415 68.5121 11.8126 63.9643 11.8126 51.9746C11.8126 39.985 -0.787415 35.4372 -0.787415 35.4372" stroke="#368EF5" stroke-width="2" stroke-linecap="round"/>
<path d="M-0.787415 63.7869C-0.787415 63.7869 7.87506 61.0306 7.87506 51.9744C7.87506 42.9182 -0.787415 40.1619 -0.787415 40.1619" stroke="#368EF5" stroke-width="2" stroke-linecap="round"/>
<path d="M6.10352e-05 56.6996C6.10352e-05 56.6996 3.93755 55.9121 3.93755 51.9746C3.93755 48.0371 6.10352e-05 47.2496 6.10352e-05 47.2496" stroke="#368EF5" stroke-width="2" stroke-linecap="round"/>
<path d="M65.3624 42.0885L80.6757 26.7753" stroke="#368EF5" stroke-width="2" stroke-linecap="round"/>
<path d="M78.0034 5.51245C78.0034 5.51245 72.3097 17.6378 80.7876 26.1157C89.2656 34.5937 101.391 28.8999 101.391 28.8999" stroke="#368EF5" stroke-width="2" stroke-linecap="round"/>
<path d="M81.3445 8.85388C81.3445 8.85388 77.1681 16.9281 83.5719 23.3319C89.9756 29.7356 98.0498 25.5592 98.0498 25.5592" stroke="#368EF5" stroke-width="2" stroke-linecap="round"/>
<path d="M85.7993 14.4218C85.7993 14.4218 83.5719 17.7628 86.3561 20.547C89.1403 23.3313 92.4814 21.1039 92.4814 21.1039" stroke="#368EF5" stroke-width="2" stroke-linecap="round"/>
<path d="M36.225 67.2341L25.2 78.259" stroke="#368EF5" stroke-width="2" stroke-linecap="round"/>
<path d="M3.93756 75.5565C3.93756 75.5565 16.031 69.8946 24.509 78.3726C32.987 86.8506 27.3251 98.944 27.3251 98.944" stroke="#368EF5" stroke-width="2" stroke-linecap="round"/>
<path d="M7.27869 78.8975C7.27869 78.8975 15.331 74.743 21.7348 81.1467C28.1385 87.5505 23.984 95.6028 23.984 95.6028" stroke="#368EF5" stroke-width="2" stroke-linecap="round"/>
<path d="M12.8452 83.3549C12.8452 83.3549 16.1763 81.1374 18.9605 83.9217C21.7447 86.7059 19.5273 90.037 19.5273 90.037" stroke="#368EF5" stroke-width="2" stroke-linecap="round"/>
</g>
<path d="M184.159 53.3829C184.159 53.3829 186.365 60.2145 193.652 60.2266C200.939 60.2388 203.168 53.4146 203.168 53.4146" stroke="#368EF5" stroke-width="2" stroke-linecap="square"/>
<path d="M188.247 51.7974C188.247 51.7974 189.154 56.0889 193.721 56.0966C198.288 56.1042 199.208 51.8156 199.208 51.8156" stroke="#368EF5" stroke-width="2" stroke-linecap="square"/>
<circle cx="193.666" cy="51.0057" r="1.58453" fill="#368EF5"/>
<path d="M192.937 106.312L192.937 81.1123" stroke="#368EF5" stroke-width="3" stroke-linecap="round"/>
</svg>
