<svg width="194" height="194" viewBox="0 0 194 194" fill="none" xmlns="http://www.w3.org/2000/svg">
<rect width="194" height="194" rx="97" fill="#FB8A05"/>
<path d="M60.5568 98.5935C60.5568 97.5154 60.9893 96.4814 61.7591 95.7191C62.5289 94.9567 63.5729 94.5285 64.6616 94.5285H72.8712V86.3984C72.8712 85.3203 73.3037 84.2863 74.0735 83.524C74.8433 82.7616 75.8873 82.3333 76.976 82.3333C78.0646 82.3333 79.1087 82.7616 79.8785 83.524C80.6483 84.2863 81.0808 85.3203 81.0808 86.3984V94.5285H89.2904C90.379 94.5285 91.4231 94.9567 92.1929 95.7191C92.9627 96.4814 93.3952 97.5154 93.3952 98.5935C93.3952 99.6716 92.9627 100.706 92.1929 101.468C91.4231 102.23 90.379 102.659 89.2904 102.659H81.0808V110.789C81.0808 111.867 80.6483 112.901 79.8785 113.663C79.1087 114.425 78.0646 114.854 76.976 114.854C75.8873 114.854 74.8433 114.425 74.0735 113.663C73.3037 112.901 72.8712 111.867 72.8712 110.789V102.659H64.6616C63.5729 102.659 62.5289 102.23 61.7591 101.468C60.9893 100.706 60.5568 99.6716 60.5568 98.5935ZM122.088 110.789C122.088 112.945 121.223 115.013 119.683 116.537C118.144 118.062 116.055 118.919 113.878 118.919C111.701 118.919 109.613 118.062 108.073 116.537C106.533 115.013 105.669 112.945 105.669 110.789C105.669 108.632 106.533 106.564 108.073 105.04C109.613 103.515 111.701 102.659 113.878 102.659C116.055 102.659 118.144 103.515 119.683 105.04C121.223 106.564 122.088 108.632 122.088 110.789ZM122.088 94.5285C124.265 94.5285 126.353 93.6719 127.893 92.1472C129.432 90.6225 130.297 88.5546 130.297 86.3984C130.297 84.2421 129.432 82.1742 127.893 80.6495C126.353 79.1249 124.265 78.2683 122.088 78.2683C119.91 78.2683 117.822 79.1249 116.283 80.6495C114.743 82.1742 113.878 84.2421 113.878 86.3984C113.878 88.5546 114.743 90.6225 116.283 92.1472C117.822 93.6719 119.91 94.5285 122.088 94.5285ZM40 98.5935C40 88.8905 43.8922 79.5848 50.8204 72.7237C57.7486 65.8627 67.1452 62.0081 76.9431 62.0081H118.057C127.855 62.0081 137.251 65.8627 144.18 72.7237C151.108 79.5848 155 88.8905 155 98.5935C155 108.297 151.108 117.602 144.18 124.463C137.251 131.324 127.855 135.179 118.057 135.179H76.9431C67.1452 135.179 57.7486 131.324 50.8204 124.463C43.8922 117.602 40 108.297 40 98.5935ZM76.9431 70.1382C69.3225 70.1382 62.014 73.1362 56.6254 78.4726C51.2369 83.809 48.2096 91.0467 48.2096 98.5935C48.2096 106.14 51.2369 113.378 56.6254 118.714C62.014 124.051 69.3225 127.049 76.9431 127.049H118.057C125.677 127.049 132.986 124.051 138.374 118.714C143.763 113.378 146.79 106.14 146.79 98.5935C146.79 91.0467 143.763 83.809 138.374 78.4726C132.986 73.1362 125.677 70.1382 118.057 70.1382H76.9431Z" fill="white"/>
</svg>
