<svg width="39" height="39" viewBox="0 0 39 39" fill="none" xmlns="http://www.w3.org/2000/svg">
<path d="M19.5 19.5C21.9533 19.5 24.306 18.5254 26.0407 16.7907C27.7754 15.056 28.75 12.7033 28.75 10.25C28.75 7.79675 27.7754 5.44397 26.0407 3.70926C24.306 1.97455 21.9533 1 19.5 1C17.0467 1 14.694 1.97455 12.9593 3.70926C11.2246 5.44397 10.25 7.79675 10.25 10.25C10.25 12.7033 11.2246 15.056 12.9593 16.7907C14.694 18.5254 17.0467 19.5 19.5 19.5ZM25.6667 10.25C25.6667 11.8855 25.017 13.454 23.8605 14.6105C22.704 15.767 21.1355 16.4167 19.5 16.4167C17.8645 16.4167 16.296 15.767 15.1395 14.6105C13.983 13.454 13.3333 11.8855 13.3333 10.25C13.3333 8.6145 13.983 7.04598 15.1395 5.88951C16.296 4.73303 17.8645 4.08333 19.5 4.08333C21.1355 4.08333 22.704 4.73303 23.8605 5.88951C25.017 7.04598 25.6667 8.6145 25.6667 10.25ZM38 34.9167C38 38 34.9167 38 34.9167 38H4.08333C4.08333 38 1 38 1 34.9167C1 31.8333 4.08333 22.5833 19.5 22.5833C34.9167 22.5833 38 31.8333 38 34.9167ZM34.9167 34.9043C34.9136 34.1458 34.4418 31.8642 32.3513 29.7737C30.341 27.7633 26.5577 25.6667 19.5 25.6667C12.4392 25.6667 8.659 27.7633 6.64867 29.7737C4.55817 31.8642 4.0895 34.1458 4.08333 34.9043H34.9167Z" fill="#368EF5" stroke="#368EF5"/>
</svg>
