<svg width="1891" height="474" viewBox="0 0 1891 474" fill="none" xmlns="http://www.w3.org/2000/svg">
<line x1="140.044" y1="348.525" x2="109" y2="393.575" stroke="#368EF5" stroke-width="3"/>
<path opacity="0.3" d="M123.684 299.5C119.682 309.326 117.242 332.813 139.496 348.148C161.75 363.483 182.594 352.679 190.234 345.361" stroke="#368EF5" stroke-width="4"/>
<path opacity="0.3" d="M132.898 305.85C130.023 312.928 128.295 329.858 144.386 340.947C160.478 352.036 175.513 344.276 181.02 339.01" stroke="#368EF5" stroke-width="4"/>
<path opacity="0.3" d="M143.137 312.906C141.33 317.198 140.027 327.374 149.271 333.744C158.515 340.114 167.462 335.206 170.781 331.956" stroke="#368EF5" stroke-width="4"/>
<line x1="1767.63" y1="326.946" x2="1817.21" y2="350.094" stroke="#368EF5" stroke-width="3"/>
<path opacity="0.3" d="M1722 351.203C1732.35 353.521 1755.92 352.034 1767.35 327.547C1778.79 303.059 1764.68 284.294 1756.2 277.972" stroke="#368EF5" stroke-width="4"/>
<path opacity="0.3" d="M1726.73 341.064C1734.19 342.727 1751.17 341.625 1759.44 323.918C1767.71 306.212 1757.57 292.67 1751.46 288.113" stroke="#368EF5" stroke-width="4"/>
<path opacity="0.3" d="M1732 329.797C1736.53 330.868 1746.78 330.466 1751.53 320.294C1756.28 310.122 1749.96 302.112 1746.2 299.378" stroke="#368EF5" stroke-width="4"/>
<line y1="-1.5" x2="54.7101" y2="-1.5" transform="matrix(-0.986621 0.163032 0.163032 0.986621 190.07 425.752)" stroke="#368EF5" stroke-width="3"/>
<path opacity="0.3" d="M227.227 459.941C216.632 459.381 194.34 451.593 189.934 424.928C185.528 398.264 204.175 384 214.05 380.201" stroke="#368EF5" stroke-width="4"/>
<path opacity="0.3" d="M225.402 448.9C217.773 448.49 201.717 442.848 198.531 423.568C195.345 404.287 208.766 393.984 215.875 391.242" stroke="#368EF5" stroke-width="4"/>
<path opacity="0.3" d="M223.375 436.633C218.722 436.441 208.96 433.29 207.129 422.214C205.299 411.138 213.548 405.129 217.902 403.51" stroke="#368EF5" stroke-width="4"/>
<line y1="-1.5" x2="54.7101" y2="-1.5" transform="matrix(0.324294 0.945956 0.945956 -0.324294 1835.5 264.809)" stroke="#368EF5" stroke-width="3"/>
<path opacity="0.3" d="M1863.06 222.5C1864.27 233.041 1860.28 256.315 1834.71 265.08C1809.15 273.844 1791.99 257.818 1786.61 248.71" stroke="#368EF5" stroke-width="4"/>
<path opacity="0.3" d="M1852.48 226.129C1853.34 233.721 1850.43 250.489 1831.95 256.827C1813.46 263.164 1801.08 251.637 1797.19 245.081" stroke="#368EF5" stroke-width="4"/>
<path opacity="0.3" d="M1840.71 230.162C1841.3 234.782 1839.81 244.932 1829.19 248.573C1818.57 252.213 1811.28 245.074 1808.96 241.049" stroke="#368EF5" stroke-width="4"/>
<path d="M8.29027e-08 3.49998L215 4.50002" stroke="#368EF5" stroke-width="7"/>
<path fill-rule="evenodd" clip-rule="evenodd" d="M1778.92 143.146V171.408L1743.66 171.408V143.146L1733.58 143.146V56.8947C1733.58 42.1939 1745.03 30.167 1759.5 29.2436V7H359V0H1763H1766.5V3.5V29.6753C1779.31 32.1121 1789 43.3721 1789 56.8946V143.146L1778.92 143.146ZM1743.73 55.9019C1743.73 65.6213 1751.61 73.5005 1761.33 73.5005C1771.05 73.5005 1778.92 65.6213 1778.92 55.9019C1778.92 46.1825 1771.05 38.3034 1761.33 38.3034C1751.61 38.3034 1743.73 46.1825 1743.73 55.9019Z" fill="#368EF5"/>
</svg>
