<svg width="1891" height="491" viewBox="0 0 1891 491" fill="none" xmlns="http://www.w3.org/2000/svg">
<path d="M334.395 7.40625H338.332L345.732 27.1465L353.115 7.40625H357.053L347.279 33H344.15L334.395 7.40625ZM332.602 7.40625H336.346L336.996 24.4922V33H332.602V7.40625ZM355.102 7.40625H358.863V33H354.451V24.4922L355.102 7.40625ZM384.51 19.5V20.9062C384.51 22.8398 384.258 24.5742 383.754 26.1094C383.25 27.6445 382.529 28.9512 381.592 30.0293C380.666 31.1074 379.553 31.9336 378.252 32.5078C376.951 33.0703 375.51 33.3516 373.928 33.3516C372.357 33.3516 370.922 33.0703 369.621 32.5078C368.332 31.9336 367.213 31.1074 366.264 30.0293C365.314 28.9512 364.576 27.6445 364.049 26.1094C363.533 24.5742 363.275 22.8398 363.275 20.9062V19.5C363.275 17.5664 363.533 15.8379 364.049 14.3145C364.564 12.7793 365.291 11.4727 366.229 10.3945C367.178 9.30469 368.297 8.47852 369.586 7.91602C370.887 7.3418 372.322 7.05469 373.893 7.05469C375.475 7.05469 376.916 7.3418 378.217 7.91602C379.518 8.47852 380.637 9.30469 381.574 10.3945C382.512 11.4727 383.232 12.7793 383.736 14.3145C384.252 15.8379 384.51 17.5664 384.51 19.5ZM380.098 20.9062V19.4648C380.098 18.0352 379.957 16.7754 379.676 15.6855C379.406 14.584 379.002 13.6641 378.463 12.9258C377.936 12.1758 377.285 11.6133 376.512 11.2383C375.738 10.8516 374.865 10.6582 373.893 10.6582C372.92 10.6582 372.053 10.8516 371.291 11.2383C370.529 11.6133 369.879 12.1758 369.34 12.9258C368.812 13.6641 368.408 14.584 368.127 15.6855C367.846 16.7754 367.705 18.0352 367.705 19.4648V20.9062C367.705 22.3359 367.846 23.6016 368.127 24.7031C368.408 25.8047 368.818 26.7363 369.357 27.498C369.908 28.248 370.564 28.8164 371.326 29.2031C372.088 29.5781 372.955 29.7656 373.928 29.7656C374.912 29.7656 375.785 29.5781 376.547 29.2031C377.309 28.8164 377.953 28.248 378.48 27.498C379.008 26.7363 379.406 25.8047 379.676 24.7031C379.957 23.6016 380.098 22.3359 380.098 20.9062ZM393.281 25.8105L404.637 7.40625H409.049V33H404.637V14.5781L393.281 33H388.887V7.40625H393.281V25.8105ZM433.025 23.4551H426.363V19.957H433.025C434.186 19.957 435.123 19.7695 435.838 19.3945C436.553 19.0195 437.074 18.5039 437.402 17.8477C437.742 17.1797 437.912 16.418 437.912 15.5625C437.912 14.7539 437.742 13.998 437.402 13.2949C437.074 12.5801 436.553 12.0059 435.838 11.5723C435.123 11.1387 434.186 10.9219 433.025 10.9219H427.717V33H423.305V7.40625H433.025C435.006 7.40625 436.688 7.75781 438.07 8.46094C439.465 9.15234 440.525 10.1133 441.252 11.3438C441.979 12.5625 442.342 13.957 442.342 15.5273C442.342 17.1797 441.979 18.5977 441.252 19.7812C440.525 20.9648 439.465 21.873 438.07 22.5059C436.688 23.1387 435.006 23.4551 433.025 23.4551ZM453.592 10.8164L445.945 33H441.322L450.955 7.40625H453.908L453.592 10.8164ZM459.99 33L452.326 10.8164L451.992 7.40625H454.963L464.631 33H459.99ZM459.621 23.5078V27.0059H445.699V23.5078H459.621ZM483.721 7.40625V10.9219H471.82V33H467.426V7.40625H483.721ZM470.484 17.2324H476.918C478.863 17.2324 480.527 17.5605 481.91 18.2168C483.293 18.8613 484.348 19.7695 485.074 20.9414C485.801 22.1133 486.164 23.4785 486.164 25.0371C486.164 26.209 485.959 27.2812 485.549 28.2539C485.139 29.2266 484.535 30.0703 483.738 30.7852C482.941 31.4883 481.969 32.0332 480.82 32.4199C479.684 32.8066 478.383 33 476.918 33H467.426V7.40625H471.855V29.502H476.918C478.031 29.502 478.945 29.2969 479.66 28.8867C480.375 28.4648 480.902 27.9141 481.242 27.2344C481.594 26.5547 481.77 25.8105 481.77 25.002C481.77 24.2168 481.594 23.502 481.242 22.8574C480.902 22.2129 480.375 21.6973 479.66 21.3105C478.945 20.9238 478.031 20.7305 476.918 20.7305H470.484V17.2324ZM510.545 19.5V20.9062C510.545 22.8398 510.293 24.5742 509.789 26.1094C509.285 27.6445 508.564 28.9512 507.627 30.0293C506.701 31.1074 505.588 31.9336 504.287 32.5078C502.986 33.0703 501.545 33.3516 499.963 33.3516C498.393 33.3516 496.957 33.0703 495.656 32.5078C494.367 31.9336 493.248 31.1074 492.299 30.0293C491.35 28.9512 490.611 27.6445 490.084 26.1094C489.568 24.5742 489.311 22.8398 489.311 20.9062V19.5C489.311 17.5664 489.568 15.8379 490.084 14.3145C490.6 12.7793 491.326 11.4727 492.264 10.3945C493.213 9.30469 494.332 8.47852 495.621 7.91602C496.922 7.3418 498.357 7.05469 499.928 7.05469C501.51 7.05469 502.951 7.3418 504.252 7.91602C505.553 8.47852 506.672 9.30469 507.609 10.3945C508.547 11.4727 509.268 12.7793 509.771 14.3145C510.287 15.8379 510.545 17.5664 510.545 19.5ZM506.133 20.9062V19.4648C506.133 18.0352 505.992 16.7754 505.711 15.6855C505.441 14.584 505.037 13.6641 504.498 12.9258C503.971 12.1758 503.32 11.6133 502.547 11.2383C501.773 10.8516 500.9 10.6582 499.928 10.6582C498.955 10.6582 498.088 10.8516 497.326 11.2383C496.564 11.6133 495.914 12.1758 495.375 12.9258C494.848 13.6641 494.443 14.584 494.162 15.6855C493.881 16.7754 493.74 18.0352 493.74 19.4648V20.9062C493.74 22.3359 493.881 23.6016 494.162 24.7031C494.443 25.8047 494.854 26.7363 495.393 27.498C495.943 28.248 496.6 28.8164 497.361 29.2031C498.123 29.5781 498.99 29.7656 499.963 29.7656C500.947 29.7656 501.82 29.5781 502.582 29.2031C503.344 28.8164 503.988 28.248 504.516 27.498C505.043 26.7363 505.441 25.8047 505.711 24.7031C505.992 23.6016 506.133 22.3359 506.133 20.9062ZM524.607 7.40625V33H520.23V7.40625H524.607ZM532.641 7.40625V10.9219H512.268V7.40625H532.641ZM539.145 17.2324H545.596C547.541 17.2324 549.199 17.5605 550.57 18.2168C551.953 18.8613 553.008 19.7695 553.734 20.9414C554.473 22.1133 554.842 23.4785 554.842 25.0371C554.842 26.209 554.631 27.2812 554.209 28.2539C553.799 29.2266 553.195 30.0703 552.398 30.7852C551.602 31.4883 550.629 32.0332 549.48 32.4199C548.344 32.8066 547.049 33 545.596 33H536.104V7.40625H540.516V29.502H545.596C546.709 29.502 547.623 29.2969 548.338 28.8867C549.053 28.4648 549.58 27.9141 549.92 27.2344C550.271 26.5547 550.447 25.8105 550.447 25.002C550.447 24.2168 550.271 23.502 549.92 22.8574C549.58 22.2129 549.053 21.6973 548.338 21.3105C547.623 20.9238 546.709 20.7305 545.596 20.7305H539.145V17.2324ZM561.891 7.40625V33H557.479V7.40625H561.891Z" fill="#286CBB"/>
<path d="M8.29032e-08 20L301 21" stroke="#368EF5" stroke-opacity="0.7" stroke-width="7"/>
<path fill-rule="evenodd" clip-rule="evenodd" d="M1778.92 159.646V187.908L1743.66 187.908V159.646L1733.58 159.646V73.3947C1733.58 58.6939 1745.03 46.667 1759.5 45.7436V23.5H593V16.5H1763H1766.5V20V46.1753C1779.31 48.6121 1789 59.8721 1789 73.3946V159.646L1778.92 159.646ZM1743.73 72.4019C1743.73 82.1213 1751.61 90.0005 1761.33 90.0005C1771.05 90.0005 1778.92 82.1213 1778.92 72.4019C1778.92 62.6825 1771.05 54.8034 1761.33 54.8034C1751.61 54.8034 1743.73 62.6825 1743.73 72.4019Z" fill="#368EF5" fill-opacity="0.7"/>
<line x1="140.044" y1="365.025" x2="109" y2="410.075" stroke="#368EF5" stroke-width="3"/>
<path opacity="0.3" d="M123.684 316C119.682 325.826 117.242 349.313 139.496 364.648C161.75 379.983 182.594 369.179 190.234 361.861" stroke="#368EF5" stroke-width="4"/>
<path opacity="0.3" d="M132.898 322.35C130.023 329.428 128.295 346.358 144.386 357.447C160.478 368.536 175.513 360.776 181.02 355.51" stroke="#368EF5" stroke-width="4"/>
<path opacity="0.3" d="M143.137 329.406C141.33 333.698 140.027 343.874 149.271 350.244C158.515 356.614 167.462 351.706 170.781 348.456" stroke="#368EF5" stroke-width="4"/>
<line x1="1767.63" y1="343.446" x2="1817.21" y2="366.594" stroke="#368EF5" stroke-width="3"/>
<path opacity="0.3" d="M1722 367.703C1732.35 370.021 1755.92 368.534 1767.35 344.047C1778.79 319.559 1764.68 300.794 1756.2 294.472" stroke="#368EF5" stroke-width="4"/>
<path opacity="0.3" d="M1726.73 357.564C1734.19 359.227 1751.17 358.125 1759.44 340.418C1767.71 322.712 1757.57 309.17 1751.46 304.613" stroke="#368EF5" stroke-width="4"/>
<path opacity="0.3" d="M1732 346.297C1736.53 347.368 1746.78 346.966 1751.53 336.794C1756.28 326.622 1749.96 318.612 1746.2 315.878" stroke="#368EF5" stroke-width="4"/>
<line y1="-1.5" x2="54.7101" y2="-1.5" transform="matrix(-0.986621 0.163032 0.163032 0.986621 190.07 442.252)" stroke="#368EF5" stroke-width="3"/>
<path opacity="0.3" d="M227.227 476.441C216.632 475.881 194.34 468.093 189.934 441.428C185.528 414.764 204.175 400.5 214.05 396.701" stroke="#368EF5" stroke-width="4"/>
<path opacity="0.3" d="M225.402 465.4C217.773 464.99 201.717 459.348 198.531 440.068C195.345 420.787 208.766 410.484 215.875 407.742" stroke="#368EF5" stroke-width="4"/>
<path opacity="0.3" d="M223.375 453.133C218.722 452.941 208.96 449.79 207.129 438.714C205.299 427.638 213.548 421.629 217.902 420.01" stroke="#368EF5" stroke-width="4"/>
<line y1="-1.5" x2="54.7101" y2="-1.5" transform="matrix(0.324294 0.945956 0.945956 -0.324294 1835.5 281.309)" stroke="#368EF5" stroke-width="3"/>
<path opacity="0.3" d="M1863.06 239C1864.27 249.541 1860.28 272.815 1834.71 281.58C1809.15 290.344 1791.99 274.318 1786.61 265.21" stroke="#368EF5" stroke-width="4"/>
<path opacity="0.3" d="M1852.48 242.629C1853.34 250.221 1850.43 266.989 1831.95 273.327C1813.46 279.664 1801.08 268.137 1797.19 261.581" stroke="#368EF5" stroke-width="4"/>
<path opacity="0.3" d="M1840.71 246.662C1841.3 251.282 1839.81 261.432 1829.19 265.073C1818.57 268.713 1811.28 261.574 1808.96 257.549" stroke="#368EF5" stroke-width="4"/>
</svg>
