<svg width="1920" height="646" viewBox="0 0 1920 646" fill="none" xmlns="http://www.w3.org/2000/svg">
<rect width="1920" height="646" fill="#368EF5"/>
<line y1="-1.5" x2="42.2351" y2="-1.5" transform="matrix(0.241442 0.970415 0.970415 -0.241442 1822.53 319.703)" stroke="white" stroke-opacity="0.5" stroke-width="3"/>
<path opacity="0.3" d="M1846.55 289C1846.77 297.188 1842.15 314.822 1821.91 319.859C1801.66 324.897 1789.53 311.428 1786 304.064" stroke="white" stroke-width="4"/>
<path opacity="0.3" d="M1838.16 291.086C1838.32 296.982 1834.97 309.686 1820.33 313.328C1805.69 316.97 1796.93 307.279 1794.38 301.979" stroke="white" stroke-width="4"/>
<path opacity="0.3" d="M1828.85 293.403C1828.99 296.995 1827.17 304.703 1818.76 306.795C1810.35 308.887 1805.21 302.911 1803.7 299.661" stroke="white" stroke-width="4"/>
<line x1="233.323" y1="557.001" x2="263.355" y2="548.085" stroke="white" stroke-opacity="0.5" stroke-width="3"/>
<path opacity="0.3" d="M223.172 585.348C228.488 582.407 238.019 572.817 233.614 557.982C229.21 543.147 216.036 540.468 210 540.983" stroke="white" stroke-width="4"/>
<path opacity="0.3" d="M221.348 579.205C225.174 577.084 232.031 570.16 228.846 559.433C225.661 548.706 216.171 546.759 211.823 547.126" stroke="white" stroke-width="4"/>
<path opacity="0.3" d="M219.322 572.379C221.67 571.116 225.91 567.049 224.08 560.887C222.25 554.725 216.498 553.695 213.851 553.95" stroke="white" stroke-width="4"/>
<line x1="1666.89" y1="582.673" x2="1703.47" y2="603.78" stroke="white" stroke-opacity="0.5" stroke-width="3"/>
<path opacity="0.3" d="M1630 598.586C1637.81 601.058 1656.03 601.485 1666.46 583.414C1676.88 565.342 1667.28 549.97 1661.18 544.543" stroke="white" stroke-width="4"/>
<path opacity="0.3" d="M1634.32 591.104C1639.94 592.879 1653.08 593.163 1660.61 580.096C1668.15 567.029 1661.25 555.938 1656.86 552.026" stroke="white" stroke-width="4"/>
<path opacity="0.3" d="M1639.11 582.789C1642.53 583.914 1650.44 584.289 1654.77 576.782C1659.1 569.275 1654.77 562.693 1652.06 560.34" stroke="white" stroke-width="4"/>
<line y1="-1.5" x2="42.2351" y2="-1.5" transform="matrix(0.241442 0.970415 0.970415 -0.241442 1723.05 539.703)" stroke="white" stroke-opacity="0.5" stroke-width="3"/>
<path opacity="0.3" d="M1747.07 509C1747.29 517.188 1742.67 534.822 1722.43 539.859C1702.18 544.897 1690.05 531.428 1686.52 524.064" stroke="white" stroke-width="4"/>
<path opacity="0.3" d="M1738.68 511.086C1738.84 516.982 1735.49 529.686 1720.85 533.328C1706.21 536.97 1697.45 527.279 1694.9 521.979" stroke="white" stroke-width="4"/>
<path opacity="0.3" d="M1729.37 513.404C1729.51 516.996 1727.68 524.704 1719.27 526.796C1710.86 528.888 1705.73 522.912 1704.22 519.662" stroke="white" stroke-width="4"/>
<path d="M333.443 73.3008C336.76 73.3008 339.18 74.0156 340.703 75.4453C342.227 76.8633 342.988 78.8203 342.988 81.3164C342.988 82.4414 342.818 83.5195 342.479 84.5508C342.139 85.5703 341.582 86.4785 340.809 87.2754C340.047 88.0723 339.027 88.7051 337.75 89.1738C336.473 89.6309 334.896 89.8594 333.021 89.8594H330.684V99H325.234V73.3008H333.443ZM333.162 77.7656H330.684V85.3945H332.477C333.496 85.3945 334.381 85.2598 335.131 84.9902C335.881 84.7207 336.461 84.2988 336.871 83.7246C337.281 83.1504 337.486 82.4121 337.486 81.5098C337.486 80.2441 337.135 79.3066 336.432 78.6973C335.729 78.0762 334.639 77.7656 333.162 77.7656ZM355.521 78.9785C357.338 78.9785 358.902 79.3301 360.215 80.0332C361.527 80.7246 362.541 81.7324 363.256 83.0566C363.971 84.3809 364.328 85.998 364.328 87.9082V90.5098H351.654C351.713 92.0215 352.164 93.2109 353.008 94.0781C353.863 94.9336 355.047 95.3613 356.559 95.3613C357.812 95.3613 358.961 95.2324 360.004 94.9746C361.047 94.7168 362.119 94.3301 363.221 93.8145V97.9629C362.248 98.4434 361.229 98.7949 360.162 99.0176C359.107 99.2402 357.824 99.3516 356.312 99.3516C354.344 99.3516 352.598 98.9883 351.074 98.2617C349.562 97.5352 348.373 96.4277 347.506 94.9395C346.65 93.4512 346.223 91.5762 346.223 89.3145C346.223 87.0176 346.609 85.1074 347.383 83.584C348.168 82.0488 349.258 80.9004 350.652 80.1387C352.047 79.3652 353.67 78.9785 355.521 78.9785ZM355.557 82.793C354.514 82.793 353.646 83.127 352.955 83.7949C352.275 84.4629 351.883 85.5117 351.777 86.9414H359.301C359.289 86.1445 359.143 85.4355 358.861 84.8145C358.592 84.1934 358.182 83.7012 357.631 83.3379C357.092 82.9746 356.4 82.793 355.557 82.793ZM382.258 79.3477V83.373H374.049V99H368.688V79.3477H382.258ZM391.1 79.3477V87.1172C391.1 87.5156 391.082 88.0195 391.047 88.6289C391.023 89.2266 390.988 89.8359 390.941 90.457C390.895 91.0781 390.848 91.6348 390.801 92.127C390.754 92.6191 390.719 92.9531 390.695 93.1289L399.766 79.3477H406.217V99H401.031V91.1602C401.031 90.5156 401.055 89.8066 401.102 89.0332C401.148 88.248 401.201 87.5098 401.26 86.8184C401.318 86.127 401.359 85.6055 401.383 85.2539L392.348 99H385.914V79.3477H391.1ZM419.84 99.3516C417.895 99.3516 416.236 99 414.865 98.2969C413.494 97.582 412.451 96.4805 411.736 94.9922C411.021 93.5039 410.664 91.5996 410.664 89.2793C410.664 86.877 411.068 84.9199 411.877 83.4082C412.697 81.8848 413.828 80.7656 415.27 80.0508C416.723 79.3359 418.404 78.9785 420.314 78.9785C421.674 78.9785 422.846 79.1133 423.83 79.3828C424.826 79.6406 425.693 79.9512 426.432 80.3145L424.85 84.4629C424.006 84.123 423.221 83.8477 422.494 83.6367C421.768 83.4141 421.041 83.3027 420.314 83.3027C419.377 83.3027 418.598 83.5254 417.977 83.9707C417.355 84.4043 416.893 85.0605 416.588 85.9395C416.283 86.8184 416.131 87.9199 416.131 89.2441C416.131 90.5449 416.295 91.623 416.623 92.4785C416.951 93.334 417.426 93.9727 418.047 94.3945C418.668 94.8047 419.424 95.0098 420.314 95.0098C421.428 95.0098 422.418 94.8633 423.285 94.5703C424.152 94.2656 424.996 93.8438 425.816 93.3047V97.8926C424.996 98.4082 424.135 98.7773 423.232 99C422.342 99.2344 421.211 99.3516 419.84 99.3516ZM446.646 83.373H440.213V99H434.852V83.373H428.4V79.3477H446.646V83.373ZM461.254 78.9785C463.469 78.9785 465.256 79.8398 466.615 81.5625C467.986 83.2852 468.672 85.8105 468.672 89.1387C468.672 91.3652 468.35 93.2402 467.705 94.7637C467.061 96.2754 466.17 97.418 465.033 98.1914C463.896 98.9648 462.59 99.3516 461.113 99.3516C460.164 99.3516 459.35 99.2344 458.67 99C457.99 98.7539 457.41 98.4434 456.93 98.0684C456.449 97.6816 456.033 97.2715 455.682 96.8379H455.4C455.494 97.3066 455.564 97.7871 455.611 98.2793C455.658 98.7715 455.682 99.252 455.682 99.7207V107.648H450.32V79.3477H454.68L455.436 81.8965H455.682C456.033 81.3691 456.461 80.8828 456.965 80.4375C457.469 79.9922 458.072 79.6406 458.775 79.3828C459.49 79.1133 460.316 78.9785 461.254 78.9785ZM459.531 83.2676C458.594 83.2676 457.85 83.4609 457.299 83.8477C456.748 84.2344 456.344 84.8145 456.086 85.5879C455.84 86.3613 455.705 87.3398 455.682 88.5234V89.1035C455.682 90.3691 455.799 91.4414 456.033 92.3203C456.279 93.1992 456.684 93.8672 457.246 94.3242C457.82 94.7812 458.605 95.0098 459.602 95.0098C460.422 95.0098 461.096 94.7812 461.623 94.3242C462.15 93.8672 462.543 93.1992 462.801 92.3203C463.07 91.4297 463.205 90.3457 463.205 89.0684C463.205 87.1465 462.906 85.6992 462.309 84.7266C461.711 83.7539 460.785 83.2676 459.531 83.2676ZM481.152 78.9434C483.789 78.9434 485.811 79.5176 487.217 80.666C488.623 81.8145 489.326 83.5605 489.326 85.9043V99H485.582L484.545 96.3281H484.404C483.842 97.0312 483.268 97.6055 482.682 98.0508C482.096 98.4961 481.422 98.8242 480.66 99.0352C479.898 99.2461 478.973 99.3516 477.883 99.3516C476.723 99.3516 475.68 99.1289 474.754 98.6836C473.84 98.2383 473.119 97.5586 472.592 96.6445C472.064 95.7188 471.801 94.5469 471.801 93.1289C471.801 91.043 472.533 89.5078 473.998 88.5234C475.463 87.5273 477.66 86.9766 480.59 86.8711L484 86.7656V85.9043C484 84.873 483.73 84.1172 483.191 83.6367C482.652 83.1562 481.902 82.916 480.941 82.916C479.992 82.916 479.061 83.0508 478.146 83.3203C477.232 83.5898 476.318 83.9297 475.404 84.3398L473.629 80.7188C474.672 80.168 475.838 79.7344 477.127 79.418C478.428 79.1016 479.77 78.9434 481.152 78.9434ZM484 89.8945L481.926 89.9648C480.191 90.0117 478.984 90.3223 478.305 90.8965C477.637 91.4707 477.303 92.2266 477.303 93.1641C477.303 93.9844 477.543 94.5703 478.023 94.9219C478.504 95.2617 479.131 95.4316 479.904 95.4316C481.053 95.4316 482.02 95.0918 482.805 94.4121C483.602 93.7324 484 92.7656 484 91.5117V89.8945ZM516.309 106.049H511.492V99H494.863V79.3477H500.225V94.9746H508.064V79.3477H513.443V95.0801H516.309V106.049ZM524.834 79.3477V87.1172C524.834 87.5156 524.816 88.0195 524.781 88.6289C524.758 89.2266 524.723 89.8359 524.676 90.457C524.629 91.0781 524.582 91.6348 524.535 92.127C524.488 92.6191 524.453 92.9531 524.43 93.1289L533.5 79.3477H539.951V99H534.766V91.1602C534.766 90.5156 534.789 89.8066 534.836 89.0332C534.883 88.248 534.936 87.5098 534.994 86.8184C535.053 86.127 535.094 85.6055 535.117 85.2539L526.082 99H519.648V79.3477H524.834ZM548.582 99H542.781L548.072 91.2305C547.404 90.9492 546.777 90.5625 546.191 90.0703C545.605 89.5664 545.131 88.9336 544.768 88.1719C544.404 87.4102 544.223 86.4961 544.223 85.4297C544.223 83.4727 544.961 81.9727 546.438 80.9297C547.926 79.875 549.842 79.3477 552.186 79.3477H561.326V99H555.965V91.6875H553.012L548.582 99ZM549.479 85.4648C549.479 86.2852 549.801 86.9297 550.445 87.3984C551.102 87.8555 551.945 88.084 552.977 88.084H555.965V83.127H552.291C551.33 83.127 550.621 83.3613 550.164 83.8301C549.707 84.2871 549.479 84.832 549.479 85.4648Z" fill="white"/>
<path fill-rule="evenodd" clip-rule="evenodd" d="M1807.62 251H1784.77V217.339H1767V122.591H1796.18V92.4999L594 92.5V85.5L1803 85.4999V87.9776L1803.18 87.9775V122.591H1824.12V217.339H1807.62V251Z" fill="#FF9B05"/>
<path d="M8.29032e-08 85L301 86" stroke="#FF9B05" stroke-width="7"/>
<line x1="136.044" y1="188.025" x2="105" y2="233.075" stroke="white" stroke-opacity="0.5" stroke-width="3"/>
<path opacity="0.3" d="M119.684 139C115.682 148.826 113.242 172.313 135.496 187.648C157.75 202.983 178.594 192.179 186.234 184.861" stroke="white" stroke-width="4"/>
<path opacity="0.3" d="M128.898 145.35C126.023 152.428 124.295 169.358 140.386 180.447C156.478 191.536 171.513 183.776 177.02 178.51" stroke="white" stroke-width="4"/>
<path opacity="0.3" d="M139.137 152.405C137.33 156.697 136.027 166.873 145.271 173.243C154.515 179.613 163.462 174.705 166.781 171.455" stroke="white" stroke-width="4"/>
<line y1="-1.5" x2="54.7101" y2="-1.5" transform="matrix(-0.986621 0.163032 0.163032 0.986621 186.07 265.254)" stroke="white" stroke-opacity="0.5" stroke-width="3"/>
<path opacity="0.3" d="M223.227 299.442C212.632 298.882 190.34 291.094 185.934 264.429C181.528 237.765 200.175 223.501 210.05 219.702" stroke="white" stroke-width="4"/>
<path opacity="0.3" d="M221.402 288.401C213.773 287.991 197.717 282.349 194.531 263.068C191.345 243.788 204.766 233.485 211.875 230.743" stroke="white" stroke-width="4"/>
<path opacity="0.3" d="M219.375 276.134C214.722 275.942 204.96 272.791 203.129 261.715C201.299 250.639 209.548 244.63 213.902 243.011" stroke="white" stroke-width="4"/>
</svg>
