<svg width="1920" height="646" viewBox="0 0 1920 646" fill="none" xmlns="http://www.w3.org/2000/svg">
<rect width="1920" height="646" fill="#368EF5"/>
<line y1="-1.5" x2="42.2351" y2="-1.5" transform="matrix(-0.86565 0.500649 0.500649 0.86565 1680.42 243.436)" stroke="white" stroke-opacity="0.5" stroke-width="3"/>
<path opacity="0.3" d="M1716.57 258.011C1708.76 260.491 1690.54 260.937 1680.1 242.877C1669.65 224.816 1679.24 209.434 1685.33 204" stroke="white" stroke-width="4"/>
<path opacity="0.3" d="M1712.25 250.532C1706.62 252.314 1693.49 252.612 1685.94 239.552C1678.38 226.493 1685.27 215.395 1689.66 211.479" stroke="white" stroke-width="4"/>
<path opacity="0.3" d="M1707.44 242.224C1704.03 243.353 1696.12 243.735 1691.78 236.233C1687.44 228.731 1691.76 222.144 1694.47 219.789" stroke="white" stroke-width="4"/>
<line x1="332.323" y1="543.002" x2="362.355" y2="534.086" stroke="white" stroke-opacity="0.5" stroke-width="3"/>
<path opacity="0.3" d="M322.172 571.348C327.488 568.407 337.019 558.817 332.614 543.982C328.21 529.147 315.036 526.468 309 526.983" stroke="white" stroke-width="4"/>
<path opacity="0.3" d="M320.348 565.205C324.174 563.084 331.031 556.16 327.846 545.433C324.661 534.706 315.171 532.759 310.823 533.126" stroke="white" stroke-width="4"/>
<path opacity="0.3" d="M318.32 558.38C320.669 557.117 324.908 553.05 323.078 546.888C321.248 540.726 315.496 539.696 312.849 539.951" stroke="white" stroke-width="4"/>
<line x1="1500.89" y1="499.673" x2="1537.47" y2="520.78" stroke="white" stroke-opacity="0.5" stroke-width="3"/>
<path opacity="0.3" d="M1464 515.587C1471.81 518.059 1490.03 518.486 1500.46 500.414C1510.88 482.343 1501.28 466.971 1495.18 461.544" stroke="white" stroke-width="4"/>
<path opacity="0.3" d="M1468.32 508.104C1473.94 509.88 1487.08 510.164 1494.61 497.097C1502.15 484.03 1495.25 472.939 1490.86 469.027" stroke="white" stroke-width="4"/>
<path opacity="0.3" d="M1473.11 499.79C1476.53 500.915 1484.44 501.29 1488.77 493.783C1493.1 486.276 1488.77 479.694 1486.06 477.341" stroke="white" stroke-width="4"/>
<line y1="-1.5" x2="42.2351" y2="-1.5" transform="matrix(0.241442 0.970415 0.970415 -0.241442 1557.05 456.703)" stroke="white" stroke-opacity="0.5" stroke-width="3"/>
<path opacity="0.3" d="M1581.07 426C1581.29 434.188 1576.67 451.822 1556.43 456.859C1536.18 461.897 1524.05 448.428 1520.52 441.064" stroke="white" stroke-width="4"/>
<path opacity="0.3" d="M1572.68 428.086C1572.84 433.982 1569.49 446.686 1554.85 450.328C1540.21 453.97 1531.45 444.279 1528.9 438.979" stroke="white" stroke-width="4"/>
<path opacity="0.3" d="M1563.37 430.403C1563.51 433.995 1561.68 441.703 1553.27 443.795C1544.86 445.887 1539.73 439.911 1538.22 436.661" stroke="white" stroke-width="4"/>
<path d="M736.234 73.3008H744.232C747.654 73.3008 750.244 73.7812 752.002 74.7422C753.76 75.7031 754.639 77.3906 754.639 79.8047C754.639 80.7773 754.48 81.6562 754.164 82.4414C753.859 83.2266 753.414 83.8711 752.828 84.375C752.242 84.8789 751.527 85.207 750.684 85.3594V85.5352C751.539 85.7109 752.312 86.0156 753.004 86.4492C753.695 86.8711 754.246 87.4922 754.656 88.3125C755.078 89.1211 755.289 90.1992 755.289 91.5469C755.289 93.1055 754.908 94.4414 754.146 95.5547C753.385 96.668 752.295 97.5234 750.877 98.1211C749.471 98.707 747.795 99 745.85 99H736.234V73.3008ZM741.684 83.4785H744.848C746.43 83.4785 747.525 83.2324 748.135 82.7402C748.744 82.2363 749.049 81.498 749.049 80.5254C749.049 79.541 748.686 78.8379 747.959 78.416C747.244 77.9824 746.107 77.7656 744.549 77.7656H741.684V83.4785ZM741.684 87.8027V94.5H745.234C746.875 94.5 748.018 94.1836 748.662 93.5508C749.307 92.918 749.629 92.0684 749.629 91.002C749.629 90.3691 749.488 89.8125 749.207 89.332C748.926 88.8516 748.451 88.4766 747.783 88.207C747.127 87.9375 746.219 87.8027 745.059 87.8027H741.684ZM777.859 89.1387C777.859 90.7793 777.637 92.2324 777.191 93.498C776.758 94.7637 776.119 95.8359 775.275 96.7148C774.443 97.582 773.436 98.2383 772.252 98.6836C771.08 99.1289 769.756 99.3516 768.279 99.3516C766.896 99.3516 765.625 99.1289 764.465 98.6836C763.316 98.2383 762.314 97.582 761.459 96.7148C760.615 95.8359 759.959 94.7637 759.49 93.498C759.033 92.2324 758.805 90.7793 758.805 89.1387C758.805 86.959 759.191 85.1133 759.965 83.6016C760.738 82.0898 761.84 80.9414 763.27 80.1562C764.699 79.3711 766.404 78.9785 768.385 78.9785C770.225 78.9785 771.854 79.3711 773.271 80.1562C774.701 80.9414 775.82 82.0898 776.629 83.6016C777.449 85.1133 777.859 86.959 777.859 89.1387ZM764.271 89.1387C764.271 90.4277 764.412 91.5117 764.693 92.3906C764.975 93.2695 765.414 93.9316 766.012 94.377C766.609 94.8223 767.389 95.0449 768.35 95.0449C769.299 95.0449 770.066 94.8223 770.652 94.377C771.25 93.9316 771.684 93.2695 771.953 92.3906C772.234 91.5117 772.375 90.4277 772.375 89.1387C772.375 87.8379 772.234 86.7598 771.953 85.9043C771.684 85.0371 771.25 84.3867 770.652 83.9531C770.055 83.5195 769.275 83.3027 768.314 83.3027C766.896 83.3027 765.865 83.7891 765.221 84.7617C764.588 85.7344 764.271 87.1934 764.271 89.1387ZM790.27 99.3516C788.324 99.3516 786.666 99 785.295 98.2969C783.924 97.582 782.881 96.4805 782.166 94.9922C781.451 93.5039 781.094 91.5996 781.094 89.2793C781.094 86.877 781.498 84.9199 782.307 83.4082C783.127 81.8848 784.258 80.7656 785.699 80.0508C787.152 79.3359 788.834 78.9785 790.744 78.9785C792.104 78.9785 793.275 79.1133 794.26 79.3828C795.256 79.6406 796.123 79.9512 796.861 80.3145L795.279 84.4629C794.436 84.123 793.65 83.8477 792.924 83.6367C792.197 83.4141 791.471 83.3027 790.744 83.3027C789.807 83.3027 789.027 83.5254 788.406 83.9707C787.785 84.4043 787.322 85.0605 787.018 85.9395C786.713 86.8184 786.561 87.9199 786.561 89.2441C786.561 90.5449 786.725 91.623 787.053 92.4785C787.381 93.334 787.855 93.9727 788.477 94.3945C789.098 94.8047 789.854 95.0098 790.744 95.0098C791.857 95.0098 792.848 94.8633 793.715 94.5703C794.582 94.2656 795.426 93.8438 796.246 93.3047V97.8926C795.426 98.4082 794.564 98.7773 793.662 99C792.771 99.2344 791.641 99.3516 790.27 99.3516ZM808.797 99.3516C806.852 99.3516 805.193 99 803.822 98.2969C802.451 97.582 801.408 96.4805 800.693 94.9922C799.979 93.5039 799.621 91.5996 799.621 89.2793C799.621 86.877 800.025 84.9199 800.834 83.4082C801.654 81.8848 802.785 80.7656 804.227 80.0508C805.68 79.3359 807.361 78.9785 809.271 78.9785C810.631 78.9785 811.803 79.1133 812.787 79.3828C813.783 79.6406 814.65 79.9512 815.389 80.3145L813.807 84.4629C812.963 84.123 812.178 83.8477 811.451 83.6367C810.725 83.4141 809.998 83.3027 809.271 83.3027C808.334 83.3027 807.555 83.5254 806.934 83.9707C806.312 84.4043 805.85 85.0605 805.545 85.9395C805.24 86.8184 805.088 87.9199 805.088 89.2441C805.088 90.5449 805.252 91.623 805.58 92.4785C805.908 93.334 806.383 93.9727 807.004 94.3945C807.625 94.8047 808.381 95.0098 809.271 95.0098C810.385 95.0098 811.375 94.8633 812.242 94.5703C813.109 94.2656 813.953 93.8438 814.773 93.3047V97.8926C813.953 98.4082 813.092 98.7773 812.189 99C811.299 99.2344 810.168 99.3516 808.797 99.3516ZM835.604 83.373H829.17V99H823.809V83.373H817.357V79.3477H835.604V83.373ZM847.328 78.9434C849.965 78.9434 851.986 79.5176 853.393 80.666C854.799 81.8145 855.502 83.5605 855.502 85.9043V99H851.758L850.721 96.3281H850.58C850.018 97.0312 849.443 97.6055 848.857 98.0508C848.271 98.4961 847.598 98.8242 846.836 99.0352C846.074 99.2461 845.148 99.3516 844.059 99.3516C842.898 99.3516 841.855 99.1289 840.93 98.6836C840.016 98.2383 839.295 97.5586 838.768 96.6445C838.24 95.7188 837.977 94.5469 837.977 93.1289C837.977 91.043 838.709 89.5078 840.174 88.5234C841.639 87.5273 843.836 86.9766 846.766 86.8711L850.176 86.7656V85.9043C850.176 84.873 849.906 84.1172 849.367 83.6367C848.828 83.1562 848.078 82.916 847.117 82.916C846.168 82.916 845.236 83.0508 844.322 83.3203C843.408 83.5898 842.494 83.9297 841.58 84.3398L839.805 80.7188C840.848 80.168 842.014 79.7344 843.303 79.418C844.604 79.1016 845.945 78.9434 847.328 78.9434ZM850.176 89.8945L848.102 89.9648C846.367 90.0117 845.16 90.3223 844.48 90.8965C843.812 91.4707 843.479 92.2266 843.479 93.1641C843.479 93.9844 843.719 94.5703 844.199 94.9219C844.68 95.2617 845.307 95.4316 846.08 95.4316C847.229 95.4316 848.195 95.0918 848.98 94.4121C849.777 93.7324 850.176 92.7656 850.176 91.5117V89.8945ZM866.4 79.3477V86.9062H873.889V79.3477H879.25V99H873.889V90.8965H866.4V99H861.039V79.3477H866.4ZM902.734 89.1387C902.734 90.7793 902.512 92.2324 902.066 93.498C901.633 94.7637 900.994 95.8359 900.15 96.7148C899.318 97.582 898.311 98.2383 897.127 98.6836C895.955 99.1289 894.631 99.3516 893.154 99.3516C891.771 99.3516 890.5 99.1289 889.34 98.6836C888.191 98.2383 887.189 97.582 886.334 96.7148C885.49 95.8359 884.834 94.7637 884.365 93.498C883.908 92.2324 883.68 90.7793 883.68 89.1387C883.68 86.959 884.066 85.1133 884.84 83.6016C885.613 82.0898 886.715 80.9414 888.145 80.1562C889.574 79.3711 891.279 78.9785 893.26 78.9785C895.1 78.9785 896.729 79.3711 898.146 80.1562C899.576 80.9414 900.695 82.0898 901.504 83.6016C902.324 85.1133 902.734 86.959 902.734 89.1387ZM889.146 89.1387C889.146 90.4277 889.287 91.5117 889.568 92.3906C889.85 93.2695 890.289 93.9316 890.887 94.377C891.484 94.8223 892.264 95.0449 893.225 95.0449C894.174 95.0449 894.941 94.8223 895.527 94.377C896.125 93.9316 896.559 93.2695 896.828 92.3906C897.109 91.5117 897.25 90.4277 897.25 89.1387C897.25 87.8379 897.109 86.7598 896.828 85.9043C896.559 85.0371 896.125 84.3867 895.527 83.9531C894.93 83.5195 894.15 83.3027 893.189 83.3027C891.771 83.3027 890.74 83.7891 890.096 84.7617C889.463 85.7344 889.146 87.1934 889.146 89.1387ZM924.584 84.498C924.584 85.5527 924.25 86.4551 923.582 87.2051C922.926 87.9434 921.953 88.418 920.664 88.6289V88.7695C922.023 88.9336 923.119 89.4082 923.951 90.1934C924.783 90.9668 925.199 91.9453 925.199 93.1289C925.199 94.2539 924.906 95.2617 924.32 96.1523C923.734 97.0312 922.803 97.7285 921.525 98.2441C920.248 98.748 918.578 99 916.516 99H907.164V79.3477H916.516C918.051 79.3477 919.428 79.5117 920.646 79.8398C921.865 80.1562 922.826 80.6895 923.529 81.4395C924.232 82.1895 924.584 83.209 924.584 84.498ZM919.645 92.8477C919.645 92.0742 919.34 91.5176 918.73 91.1777C918.133 90.8262 917.242 90.6504 916.059 90.6504H912.525V95.291H916.164C917.172 95.291 918.004 95.1035 918.66 94.7285C919.316 94.3535 919.645 93.7266 919.645 92.8477ZM919.152 84.9199C919.152 84.3105 918.912 83.8594 918.432 83.5664C917.951 83.2734 917.242 83.127 916.305 83.127H912.525V87.0117H915.689C916.826 87.0117 917.688 86.8477 918.273 86.5195C918.859 86.1914 919.152 85.6582 919.152 84.9199ZM947.4 99H942.039V83.373H937.1C936.854 86.2559 936.561 88.7109 936.221 90.7383C935.881 92.7656 935.447 94.418 934.92 95.6953C934.393 96.9609 933.736 97.8867 932.951 98.4727C932.166 99.0586 931.199 99.3516 930.051 99.3516C929.418 99.3516 928.85 99.3047 928.346 99.2109C927.854 99.1172 927.402 98.9766 926.992 98.7891V94.5C927.25 94.6055 927.525 94.6934 927.818 94.7637C928.111 94.8223 928.41 94.8516 928.715 94.8516C929.055 94.8516 929.377 94.7168 929.682 94.4473C929.986 94.1777 930.273 93.7148 930.543 93.0586C930.812 92.3906 931.064 91.4707 931.299 90.2988C931.545 89.127 931.768 87.6445 931.967 85.8516C932.166 84.0586 932.354 81.8906 932.529 79.3477H947.4V99ZM961.146 78.9785C962.963 78.9785 964.527 79.3301 965.84 80.0332C967.152 80.7246 968.166 81.7324 968.881 83.0566C969.596 84.3809 969.953 85.998 969.953 87.9082V90.5098H957.279C957.338 92.0215 957.789 93.2109 958.633 94.0781C959.488 94.9336 960.672 95.3613 962.184 95.3613C963.438 95.3613 964.586 95.2324 965.629 94.9746C966.672 94.7168 967.744 94.3301 968.846 93.8145V97.9629C967.873 98.4434 966.854 98.7949 965.787 99.0176C964.732 99.2402 963.449 99.3516 961.938 99.3516C959.969 99.3516 958.223 98.9883 956.699 98.2617C955.188 97.5352 953.998 96.4277 953.131 94.9395C952.275 93.4512 951.848 91.5762 951.848 89.3145C951.848 87.0176 952.234 85.1074 953.008 83.584C953.793 82.0488 954.883 80.9004 956.277 80.1387C957.672 79.3652 959.295 78.9785 961.146 78.9785ZM961.182 82.793C960.139 82.793 959.271 83.127 958.58 83.7949C957.9 84.4629 957.508 85.5117 957.402 86.9414H964.926C964.914 86.1445 964.768 85.4355 964.486 84.8145C964.217 84.1934 963.807 83.7012 963.256 83.3379C962.717 82.9746 962.025 82.793 961.182 82.793ZM979.674 79.3477V86.9062H987.162V79.3477H992.523V99H987.162V90.8965H979.674V99H974.312V79.3477H979.674ZM1003.33 79.3477V87.1172C1003.33 87.5156 1003.32 88.0195 1003.28 88.6289C1003.26 89.2266 1003.22 89.8359 1003.18 90.457C1003.13 91.0781 1003.08 91.6348 1003.04 92.127C1002.99 92.6191 1002.95 92.9531 1002.93 93.1289L1012 79.3477H1018.45V99H1013.27V91.1602C1013.27 90.5156 1013.29 89.8066 1013.34 89.0332C1013.38 88.248 1013.44 87.5098 1013.49 86.8184C1013.55 86.127 1013.59 85.6055 1013.62 85.2539L1004.58 99H998.148V79.3477H1003.33ZM1032.2 78.9785C1034.01 78.9785 1035.58 79.3301 1036.89 80.0332C1038.2 80.7246 1039.22 81.7324 1039.93 83.0566C1040.65 84.3809 1041 85.998 1041 87.9082V90.5098H1028.33C1028.39 92.0215 1028.84 93.2109 1029.68 94.0781C1030.54 94.9336 1031.72 95.3613 1033.23 95.3613C1034.49 95.3613 1035.64 95.2324 1036.68 94.9746C1037.72 94.7168 1038.79 94.3301 1039.9 93.8145V97.9629C1038.92 98.4434 1037.9 98.7949 1036.84 99.0176C1035.78 99.2402 1034.5 99.3516 1032.99 99.3516C1031.02 99.3516 1029.27 98.9883 1027.75 98.2617C1026.24 97.5352 1025.05 96.4277 1024.18 94.9395C1023.33 93.4512 1022.9 91.5762 1022.9 89.3145C1022.9 87.0176 1023.29 85.1074 1024.06 83.584C1024.84 82.0488 1025.93 80.9004 1027.33 80.1387C1028.72 79.3652 1030.35 78.9785 1032.2 78.9785ZM1032.23 82.793C1031.19 82.793 1030.32 83.127 1029.63 83.7949C1028.95 84.4629 1028.56 85.5117 1028.45 86.9414H1035.98C1035.96 86.1445 1035.82 85.4355 1035.54 84.8145C1035.27 84.1934 1034.86 83.7012 1034.31 83.3379C1033.77 82.9746 1033.08 82.793 1032.23 82.793ZM1072.57 79.3477V99H1067.2V83.373H1060.08V99H1054.71V79.3477H1072.57ZM1086.25 78.9434C1088.89 78.9434 1090.91 79.5176 1092.31 80.666C1093.72 81.8145 1094.42 83.5605 1094.42 85.9043V99H1090.68L1089.64 96.3281H1089.5C1088.94 97.0312 1088.37 97.6055 1087.78 98.0508C1087.19 98.4961 1086.52 98.8242 1085.76 99.0352C1085 99.2461 1084.07 99.3516 1082.98 99.3516C1081.82 99.3516 1080.78 99.1289 1079.85 98.6836C1078.94 98.2383 1078.22 97.5586 1077.69 96.6445C1077.16 95.7188 1076.9 94.5469 1076.9 93.1289C1076.9 91.043 1077.63 89.5078 1079.1 88.5234C1080.56 87.5273 1082.76 86.9766 1085.69 86.8711L1089.1 86.7656V85.9043C1089.1 84.873 1088.83 84.1172 1088.29 83.6367C1087.75 83.1562 1087 82.916 1086.04 82.916C1085.09 82.916 1084.16 83.0508 1083.24 83.3203C1082.33 83.5898 1081.42 83.9297 1080.5 84.3398L1078.73 80.7188C1079.77 80.168 1080.94 79.7344 1082.22 79.418C1083.53 79.1016 1084.87 78.9434 1086.25 78.9434ZM1089.1 89.8945L1087.02 89.9648C1085.29 90.0117 1084.08 90.3223 1083.4 90.8965C1082.73 91.4707 1082.4 92.2266 1082.4 93.1641C1082.4 93.9844 1082.64 94.5703 1083.12 94.9219C1083.6 95.2617 1084.23 95.4316 1085 95.4316C1086.15 95.4316 1087.12 95.0918 1087.9 94.4121C1088.7 93.7324 1089.1 92.7656 1089.1 91.5117V89.8945ZM1110.89 78.9785C1113.11 78.9785 1114.9 79.8398 1116.26 81.5625C1117.63 83.2852 1118.31 85.8105 1118.31 89.1387C1118.31 91.3652 1117.99 93.2402 1117.35 94.7637C1116.7 96.2754 1115.81 97.418 1114.67 98.1914C1113.54 98.9648 1112.23 99.3516 1110.75 99.3516C1109.8 99.3516 1108.99 99.2344 1108.31 99C1107.63 98.7539 1107.05 98.4434 1106.57 98.0684C1106.09 97.6816 1105.67 97.2715 1105.32 96.8379H1105.04C1105.13 97.3066 1105.21 97.7871 1105.25 98.2793C1105.3 98.7715 1105.32 99.252 1105.32 99.7207V107.648H1099.96V79.3477H1104.32L1105.08 81.8965H1105.32C1105.67 81.3691 1106.1 80.8828 1106.61 80.4375C1107.11 79.9922 1107.71 79.6406 1108.42 79.3828C1109.13 79.1133 1109.96 78.9785 1110.89 78.9785ZM1109.17 83.2676C1108.23 83.2676 1107.49 83.4609 1106.94 83.8477C1106.39 84.2344 1105.98 84.8145 1105.73 85.5879C1105.48 86.3613 1105.35 87.3398 1105.32 88.5234V89.1035C1105.32 90.3691 1105.44 91.4414 1105.67 92.3203C1105.92 93.1992 1106.32 93.8672 1106.89 94.3242C1107.46 94.7812 1108.25 95.0098 1109.24 95.0098C1110.06 95.0098 1110.74 94.7812 1111.26 94.3242C1111.79 93.8672 1112.18 93.1992 1112.44 92.3203C1112.71 91.4297 1112.85 90.3457 1112.85 89.0684C1112.85 87.1465 1112.55 85.6992 1111.95 84.7266C1111.35 83.7539 1110.43 83.2676 1109.17 83.2676ZM1140.6 89.1387C1140.6 90.7793 1140.38 92.2324 1139.93 93.498C1139.5 94.7637 1138.86 95.8359 1138.02 96.7148C1137.19 97.582 1136.18 98.2383 1134.99 98.6836C1133.82 99.1289 1132.5 99.3516 1131.02 99.3516C1129.64 99.3516 1128.37 99.1289 1127.21 98.6836C1126.06 98.2383 1125.06 97.582 1124.2 96.7148C1123.36 95.8359 1122.7 94.7637 1122.23 93.498C1121.78 92.2324 1121.55 90.7793 1121.55 89.1387C1121.55 86.959 1121.93 85.1133 1122.71 83.6016C1123.48 82.0898 1124.58 80.9414 1126.01 80.1562C1127.44 79.3711 1129.15 78.9785 1131.13 78.9785C1132.97 78.9785 1134.6 79.3711 1136.01 80.1562C1137.44 80.9414 1138.56 82.0898 1139.37 83.6016C1140.19 85.1133 1140.6 86.959 1140.6 89.1387ZM1127.01 89.1387C1127.01 90.4277 1127.15 91.5117 1127.44 92.3906C1127.72 93.2695 1128.16 93.9316 1128.75 94.377C1129.35 94.8223 1130.13 95.0449 1131.09 95.0449C1132.04 95.0449 1132.81 94.8223 1133.39 94.377C1133.99 93.9316 1134.43 93.2695 1134.7 92.3906C1134.98 91.5117 1135.12 90.4277 1135.12 89.1387C1135.12 87.8379 1134.98 86.7598 1134.7 85.9043C1134.43 85.0371 1133.99 84.3867 1133.39 83.9531C1132.8 83.5195 1132.02 83.3027 1131.06 83.3027C1129.64 83.3027 1128.61 83.7891 1127.96 84.7617C1127.33 85.7344 1127.01 87.1934 1127.01 89.1387ZM1162.63 99H1157.27V83.373H1152.33C1152.08 86.2559 1151.79 88.7109 1151.45 90.7383C1151.11 92.7656 1150.67 94.418 1150.15 95.6953C1149.62 96.9609 1148.96 97.8867 1148.18 98.4727C1147.39 99.0586 1146.43 99.3516 1145.28 99.3516C1144.64 99.3516 1144.08 99.3047 1143.57 99.2109C1143.08 99.1172 1142.63 98.9766 1142.22 98.7891V94.5C1142.48 94.6055 1142.75 94.6934 1143.04 94.7637C1143.34 94.8223 1143.64 94.8516 1143.94 94.8516C1144.28 94.8516 1144.6 94.7168 1144.91 94.4473C1145.21 94.1777 1145.5 93.7148 1145.77 93.0586C1146.04 92.3906 1146.29 91.4707 1146.53 90.2988C1146.77 89.127 1146.99 87.6445 1147.19 85.8516C1147.39 84.0586 1147.58 81.8906 1147.76 79.3477H1162.63V99ZM1171.26 99H1165.46L1170.75 91.2305C1170.08 90.9492 1169.45 90.5625 1168.87 90.0703C1168.28 89.5664 1167.81 88.9336 1167.44 88.1719C1167.08 87.4102 1166.9 86.4961 1166.9 85.4297C1166.9 83.4727 1167.64 81.9727 1169.11 80.9297C1170.6 79.875 1172.52 79.3477 1174.86 79.3477H1184V99H1178.64V91.6875H1175.69L1171.26 99ZM1172.15 85.4648C1172.15 86.2852 1172.48 86.9297 1173.12 87.3984C1173.78 87.8555 1174.62 88.084 1175.65 88.084H1178.64V83.127H1174.97C1174.01 83.127 1173.3 83.3613 1172.84 83.8301C1172.38 84.2871 1172.15 84.832 1172.15 85.4648Z" fill="white"/>
<path fill-rule="evenodd" clip-rule="evenodd" d="M1807.62 251H1784.77V217.339H1767V122.591H1796.18V92.5003L1222 92.5002V85.5002L1803 85.5003V87.9776L1803.18 87.9775V122.591H1824.12V217.339H1807.62V251Z" fill="#FF9B05"/>
<path d="M8.29069e-08 84.9999L695 86.0001" stroke="#FF9B05" stroke-width="7"/>
<line x1="275.044" y1="198.025" x2="244" y2="243.075" stroke="white" stroke-opacity="0.5" stroke-width="3"/>
<line y1="-1.5" x2="54.7101" y2="-1.5" transform="matrix(-0.986621 0.163032 0.163032 0.986621 325.07 275.254)" stroke="white" stroke-opacity="0.5" stroke-width="3"/>
<path opacity="0.3" d="M362.227 309.442C351.632 308.882 329.34 301.094 324.934 274.429C320.528 247.765 339.175 233.501 349.05 229.702" stroke="white" stroke-width="4"/>
<path opacity="0.3" d="M360.402 298.401C352.773 297.991 336.717 292.349 333.531 273.068C330.345 253.788 343.766 243.485 350.875 240.743" stroke="white" stroke-width="4"/>
<path opacity="0.3" d="M358.375 286.134C353.722 285.942 343.96 282.791 342.129 271.715C340.299 260.639 348.548 254.63 352.902 253.011" stroke="white" stroke-width="4"/>
</svg>
