<svg width="33" height="33" viewBox="0 0 33 33" fill="none" xmlns="http://www.w3.org/2000/svg">
<path d="M29.9062 0.420898H3.09375C1.39219 0.420898 0 1.7709 0 3.4209V29.4209C0 31.0709 1.39219 32.4209 3.09375 32.4209H29.9062C31.6078 32.4209 33 31.0709 33 29.4209V3.4209C33 1.7709 31.6078 0.420898 29.9062 0.420898ZM26.7279 22.8209L23.7105 22.8649C23.7105 22.8649 23.0588 22.9909 22.209 22.4209C21.0808 21.6709 20.0166 19.7149 19.1854 19.9709C18.348 20.2269 18.3727 21.9829 18.3727 21.9829C18.3727 21.9829 18.3789 22.3589 18.1851 22.5569C17.9788 22.7749 17.5663 22.8189 17.5663 22.8189H16.2195C16.2195 22.8189 13.2412 22.9949 10.6177 20.3429C7.755 17.4549 5.2305 11.7249 5.2305 11.7249C5.2305 11.7249 5.082 11.3489 5.24288 11.1689C5.42231 10.9629 5.907 10.9509 5.907 10.9509L9.13687 10.9329C9.13687 10.9329 9.44006 10.9829 9.65869 11.1389C9.84019 11.2649 9.93506 11.5069 9.93506 11.5069C9.93506 11.5069 10.4569 12.7889 11.1478 13.9449C12.4946 16.2009 13.1257 16.6949 13.5836 16.4569C14.2478 16.1069 14.0477 13.2629 14.0477 13.2629C14.0477 13.2629 14.0601 12.2309 13.7136 11.7749C13.4434 11.4189 12.9339 11.3129 12.7153 11.2869C12.5338 11.2609 12.8308 10.8549 13.2186 10.6689C13.7981 10.3929 14.8232 10.3749 16.0359 10.3869C16.9764 10.3929 17.2549 10.4549 17.622 10.5369C18.7378 10.7989 18.3562 11.8049 18.3562 14.2189C18.3562 14.9949 18.2139 16.0809 18.7873 16.4369C19.0328 16.5929 19.6371 16.4609 21.153 13.9689C21.8687 12.7869 22.4091 11.4009 22.4091 11.4009C22.4091 11.4009 22.5246 11.1509 22.7061 11.0449C22.8937 10.9389 23.1454 10.9709 23.1454 10.9709L26.5423 10.9529C26.5423 10.9529 27.5612 10.8349 27.7283 11.2849C27.9015 11.7529 27.3488 12.8469 25.9628 14.6409C23.6878 17.5849 23.43 17.3089 25.3254 19.0089C27.1301 20.6349 27.5034 21.4269 27.5694 21.5269C28.3037 22.7269 26.7321 22.8209 26.7321 22.8209H26.7279Z" fill="#368EF5"/>
</svg>
